<?xml version="1.0" encoding="utf-8"?>
<!-- Generator: Adobe Illustrator 21.1.0, SVG Export Plug-In . SVG Version: 6.00 Build 0)  -->
<svg version="1.1" id="Bildmarke" xmlns="http://www.w3.org/2000/svg" xmlns:xlink="http://www.w3.org/1999/xlink" x="0px" y="0px"
	 viewBox="0 0 690.2 569.9" style="enable-background:new 0 0 690.2 569.9;" xml:space="preserve">
<style type="text/css">
	.st0{fill:#FF9900;}
	.st1{fill:#990000;}
	.st2{fill:#FFFFFF;}
</style>
<circle class="st0" cx="344.9" cy="270.5" r="160.5"/>
<circle class="st1" cx="344.9" cy="270.5" r="147.4"/>
<g>
	<polygon class="st2" points="289,218.9 272.9,218.9 272.9,181.2 259.8,181.2 259.8,229.1 289,229.1 	"/>
	<polygon class="st2" points="338.7,229.1 351.8,229.1 351.8,191.8 371.1,191.8 371.1,229.1 384.2,229.1 384.2,191.8 394,191.8 
		394,181.2 328.9,181.2 328.9,191.8 338.7,191.8 	"/>
	<path class="st2" d="M413.5,230c13.4,0,17.9-7,17.9-24.9c0-17.9-4.6-24.9-17.9-24.9c-13.4,0-17.9,7-17.9,24.9
		C395.6,223,400.2,230,413.5,230z M413.5,188.7c4,0,4.4,3.5,4.4,16.4c0,12.9-0.4,16.4-4.4,16.4c-4,0-4.4-3.5-4.4-16.4
		C409.1,192.2,409.5,188.7,413.5,188.7z"/>
	<path class="st2" d="M309.3,230c13.4,0,17.9-7,17.9-24.9c0-17.9-4.6-24.9-17.9-24.9c-13.4,0-17.9,7-17.9,24.9
		C291.4,223,296,230,309.3,230z M309.3,188.7c4,0,4.4,3.5,4.4,16.4c0,12.9-0.4,16.4-4.4,16.4c-4,0-4.4-3.5-4.4-16.4
		C304.9,192.2,305.3,188.7,309.3,188.7z"/>
	<path class="st2" d="M287.9,305.9c-10.7,9.2-29.1,26.3-29.1,55.2H341v-22.5h-45.6c3.1-6.9,12.5-14.5,25.1-26
		c16-14.5,20.4-21.5,20.4-39.8c0-19.2-8.5-34.3-39.8-34.3c-27.6,0-41.4,12.3-41.4,36.9v4h28.4c0-9.3,0-22.5,11.6-22.5
		c8.7,0,10.7,6.4,10.7,16.1C310.3,282.2,309.9,287.2,287.9,305.9z"/>
	<path class="st2" d="M419.6,241h-32.7l-41.8,73.9v22.5h46.2v23.7h28.4v-23.7h12v-22.5h-12V241z M391.3,314.9h-22l21.6-41h0.4V314.9
		z"/>
</g>
</svg>
