<?xml version="1.0" encoding="UTF-8" standalone="no"?>
<!-- Created with Inkscape (http://www.inkscape.org/) -->

<svg
   xmlns:osb="http://www.openswatchbook.org/uri/2009/osb"
   xmlns:dc="http://purl.org/dc/elements/1.1/"
   xmlns:cc="http://creativecommons.org/ns#"
   xmlns:rdf="http://www.w3.org/1999/02/22-rdf-syntax-ns#"
   xmlns:svg="http://www.w3.org/2000/svg"
   xmlns="http://www.w3.org/2000/svg"
   xmlns:sodipodi="http://sodipodi.sourceforge.net/DTD/sodipodi-0.dtd"
   xmlns:inkscape="http://www.inkscape.org/namespaces/inkscape"
   width="990mm"
   height="2200mm"
   viewBox="0 0 3507.874 7795.2756"
   id="svg2"
   version="1.1"
   inkscape:version="0.91 r13725"
   sodipodi:docname="elbsides-rollup-2019-base.svg">
  <defs
     id="defs4">
    <linearGradient
       id="linearGradient6456"
       osb:paint="solid">
      <stop
         style="stop-color:#e77137;stop-opacity:1;"
         offset="0"
         id="stop6458" />
    </linearGradient>
    <style
       id="style4415">.cls-1{fill:#00d298;}.cls-2{fill:#fff;}.cls-3,.cls-4{fill:none;stroke-width:5px;}.cls-3{stroke:#fff;}.cls-3,.cls-4,.cls-6{stroke-miterlimit:10;}.cls-4,.cls-6{stroke:#115641;}.cls-5,.cls-6{fill:#115641;}</style>
    <style
       id="style6681">.cls-1{fill:#929396;}.cls-2{fill:#ff3633;}</style>
  </defs>
  <sodipodi:namedview
     id="base"
     pagecolor="#ffffff"
     bordercolor="#666666"
     borderopacity="1.0"
     inkscape:pageopacity="0.0"
     inkscape:pageshadow="2"
     inkscape:zoom="0.11"
     inkscape:cx="-77.987013"
     inkscape:cy="3884.3875"
     inkscape:document-units="mm"
     inkscape:current-layer="layer3"
     showgrid="true"
     inkscape:window-width="1920"
     inkscape:window-height="1076"
     inkscape:window-x="1"
     inkscape:window-y="1083"
     inkscape:window-maximized="0"
     fit-margin-bottom="200"
     borderlayer="true">
    <inkscape:grid
       type="xygrid"
       id="grid4136"
       units="cm"
       spacingx="35.433071"
       spacingy="35.433072"
       dotted="true" />
    <sodipodi:guide
       position="-885.82677,708.66144"
       orientation="0,3507.874"
       id="guide6509" />
    <sodipodi:guide
       position="3507.874,0"
       orientation="-7795.2756,0"
       id="guide6511" />
    <sodipodi:guide
       position="3507.874,7795.2758"
       orientation="0,-3507.874"
       id="guide6513" />
    <sodipodi:guide
       position="0,7795.2758"
       orientation="7795.2756,0"
       id="guide6515" />
  </sodipodi:namedview>
  <metadata
     id="metadata7">
    <rdf:RDF>
      <cc:Work
         rdf:about="">
        <dc:format>image/svg+xml</dc:format>
        <dc:type
           rdf:resource="http://purl.org/dc/dcmitype/StillImage" />
        <dc:title></dc:title>
      </cc:Work>
    </rdf:RDF>
  </metadata>
  <g
     inkscape:groupmode="layer"
     id="layer2"
     inkscape:label="Background"
     sodipodi:insensitive="true">
    <rect
       style="fill:#00d298;fill-opacity:1"
       id="rect4752"
       width="3543.3071"
       height="7795.2754"
       x="0"
       y="-0.00023999999" />
  </g>
  <g
     inkscape:label="Elbsides logo"
     inkscape:groupmode="layer"
     id="layer1"
     transform="translate(0,6742.9134)"
     sodipodi:insensitive="true">
    <g
       id="g4875"
       transform="translate(4681.8182,-372.72727)">
      <g
         transform="matrix(2.1816542,0,0,1.9184455,-5169.3739,-6293.7976)"
         data-name="Layer 3"
         id="Layer_3">
        <path
           transform="translate(-61.55,-10.31)"
           d="M 622.62,63 A 14.67,14.67 0 1 0 637.29,77.67 14.67,14.67 0 0 0 622.62,63 Z m 0,25 A 10.37,10.37 0 1 1 633,77.67 10.37,10.37 0 0 1 622.62,88 Z"
           class="cls-2"
           id="circle"
           inkscape:connector-curvature="0"
           style="fill:#ffffff" />
        <path
           transform="translate(-61.55,-10.31)"
           d="M 665.31,128.83 A 14.67,14.67 0 1 0 680,143.5 14.67,14.67 0 0 0 665.31,128.83 Z m 0,25 a 10.38,10.38 0 1 1 10.37,-10.37 10.37,10.37 0 0 1 -10.37,10.41 z"
           class="cls-2"
           data-name="circle"
           id="circle-2"
           inkscape:connector-curvature="0"
           style="fill:#ffffff" />
        <path
           transform="translate(-61.55,-10.31)"
           d="m 643.22,99.49 a 14.67,14.67 0 1 0 14.67,14.67 14.67,14.67 0 0 0 -14.67,-14.67 z m 0,25 a 10.38,10.38 0 1 1 10.37,-10.37 10.37,10.37 0 0 1 -10.37,10.41 z"
           class="cls-2"
           data-name="circle"
           id="circle-3"
           inkscape:connector-curvature="0"
           style="fill:#ffffff" />
        <path
           transform="translate(-61.55,-10.31)"
           d="m 622.62,660.85 a 14.67,14.67 0 1 0 14.67,14.67 14.67,14.67 0 0 0 -14.67,-14.67 z m 0,25 A 10.37,10.37 0 1 1 633,675.52 10.37,10.37 0 0 1 622.62,685.89 Z"
           class="cls-2"
           data-name="circle"
           id="circle-4"
           inkscape:connector-curvature="0"
           style="fill:#ffffff" />
        <path
           transform="translate(-61.55,-10.31)"
           d="m 630.39,746.75 a 14.67,14.67 0 1 0 14.67,14.67 14.67,14.67 0 0 0 -14.67,-14.67 z m 0,25 a 10.38,10.38 0 1 1 10.38,-10.38 10.37,10.37 0 0 1 -10.38,10.43 z"
           class="cls-2"
           data-name="circle"
           id="circle-5"
           inkscape:connector-curvature="0"
           style="fill:#ffffff" />
        <path
           transform="translate(-61.55,-10.31)"
           d="M 652,801.57 A 14.67,14.67 0 1 0 666.67,816.24 14.67,14.67 0 0 0 652,801.57 Z m 0,25 A 10.38,10.38 0 1 1 662.37,816.2 10.37,10.37 0 0 1 652,826.61 Z"
           class="cls-2"
           data-name="circle"
           id="circle-6"
           inkscape:connector-curvature="0"
           style="fill:#ffffff" />
        <path
           transform="translate(-61.55,-10.31)"
           d="m 806.24,770.59 a 14.67,14.67 0 1 0 14.67,14.67 14.67,14.67 0 0 0 -14.67,-14.67 z m 0,25 a 10.38,10.38 0 1 1 10.38,-10.38 10.38,10.38 0 0 1 -10.38,10.43 z"
           class="cls-2"
           data-name="circle"
           id="circle-7"
           inkscape:connector-curvature="0"
           style="fill:#ffffff" />
        <path
           transform="translate(-61.55,-10.31)"
           d="M 786,969.83 A 14.67,14.67 0 1 0 800.67,984.5 14.67,14.67 0 0 0 786,969.83 Z m 0,25 A 10.38,10.38 0 1 1 796.38,984.45 10.38,10.38 0 0 1 786,994.88 Z"
           class="cls-2"
           data-name="circle"
           id="circle-8"
           inkscape:connector-curvature="0"
           style="fill:#ffffff" />
        <path
           transform="translate(-61.55,-10.31)"
           d="m 840.4,885.56 a 14.67,14.67 0 1 0 14.67,14.67 14.67,14.67 0 0 0 -14.67,-14.67 z m 0,25.05 a 10.38,10.38 0 1 1 10.37,-10.38 10.38,10.38 0 0 1 -10.37,10.38 z"
           class="cls-2"
           data-name="circle"
           id="circle-9"
           inkscape:connector-curvature="0"
           style="fill:#ffffff" />
        <path
           transform="translate(-61.55,-10.31)"
           d="m 858.67,859.11 a 14.67,14.67 0 1 0 14.67,14.67 14.67,14.67 0 0 0 -14.67,-14.67 z m 0,25 A 10.37,10.37 0 1 1 869,873.78 10.37,10.37 0 0 1 858.67,884.15 Z"
           class="cls-2"
           data-name="circle"
           id="circle-10"
           inkscape:connector-curvature="0"
           style="fill:#ffffff" />
        <path
           transform="translate(-61.55,-10.31)"
           d="m 1191.57,915.56 a 14.67,14.67 0 1 0 14.66,14.67 14.66,14.66 0 0 0 -14.66,-14.67 z m 0,25 a 10.38,10.38 0 1 1 10.37,-10.37 10.38,10.38 0 0 1 -10.37,10.41 z"
           class="cls-2"
           data-name="circle"
           id="circle-11"
           inkscape:connector-curvature="0"
           style="fill:#ffffff" />
        <path
           transform="translate(-61.55,-10.31)"
           d="m 1147.39,765.59 a 14.67,14.67 0 1 0 14.67,14.67 14.67,14.67 0 0 0 -14.67,-14.67 z m 0,25 a 10.37,10.37 0 1 1 10.37,-10.37 10.37,10.37 0 0 1 -10.37,10.41 z"
           class="cls-2"
           data-name="circle"
           id="circle-12"
           inkscape:connector-curvature="0"
           style="fill:#ffffff" />
        <path
           transform="translate(-61.55,-10.31)"
           d="m 1368.15,750.92 a 14.67,14.67 0 1 0 14.67,14.67 14.67,14.67 0 0 0 -14.67,-14.67 z m 0,25 a 10.37,10.37 0 1 1 10.37,-10.37 10.37,10.37 0 0 1 -10.37,10.45 z"
           class="cls-2"
           data-name="circle"
           id="circle-13"
           inkscape:connector-curvature="0"
           style="fill:#ffffff" />
        <path
           transform="translate(-61.55,-10.31)"
           d="m 1378.52,890.41 a 14.67,14.67 0 1 0 14.67,14.67 14.66,14.66 0 0 0 -14.67,-14.67 z m 0,25 a 10.37,10.37 0 1 1 10.38,-10.37 10.37,10.37 0 0 1 -10.38,10.41 z"
           class="cls-2"
           data-name="circle"
           id="circle-14"
           inkscape:connector-curvature="0"
           style="fill:#ffffff" />
        <path
           transform="translate(-61.55,-10.31)"
           d="m 1429.19,984.64 a 14.67,14.67 0 1 0 14.67,14.67 14.67,14.67 0 0 0 -14.67,-14.67 z m 0,25 a 10.37,10.37 0 1 1 10.38,-10.37 10.37,10.37 0 0 1 -10.38,10.41 z"
           class="cls-2"
           data-name="circle"
           id="circle-15"
           inkscape:connector-curvature="0"
           style="fill:#ffffff" />
        <path
           transform="translate(-61.55,-10.31)"
           d="m 1457.26,913.46 a 14.67,14.67 0 1 0 14.67,14.67 14.67,14.67 0 0 0 -14.67,-14.67 z m 0,25 a 10.37,10.37 0 1 1 10.38,-10.37 10.37,10.37 0 0 1 -10.38,10.41 z"
           class="cls-2"
           data-name="circle"
           id="circle-16"
           inkscape:connector-curvature="0"
           style="fill:#ffffff" />
        <path
           transform="translate(-61.55,-10.31)"
           d="m 1531.77,771.77 a 14.67,14.67 0 1 0 14.67,14.67 14.67,14.67 0 0 0 -14.67,-14.67 z m 0,25 a 10.38,10.38 0 1 1 10.37,-10.37 10.37,10.37 0 0 1 -10.37,10.41 z"
           class="cls-2"
           data-name="circle"
           id="circle-17"
           inkscape:connector-curvature="0"
           style="fill:#ffffff" />
        <path
           transform="translate(-61.55,-10.31)"
           d="m 1297.42,632.85 a 14.67,14.67 0 1 0 14.67,14.67 14.67,14.67 0 0 0 -14.67,-14.67 z m 0,25 a 10.38,10.38 0 1 1 10.38,-10.37 10.37,10.37 0 0 1 -10.38,10.41 z"
           class="cls-2"
           data-name="circle"
           id="circle-18"
           inkscape:connector-curvature="0"
           style="fill:#ffffff" />
        <path
           transform="translate(-61.55,-10.31)"
           d="m 1357.78,618.18 a 14.67,14.67 0 1 0 14.67,14.67 14.67,14.67 0 0 0 -14.67,-14.67 z m 0,25 a 10.38,10.38 0 1 1 10.37,-10.37 10.37,10.37 0 0 1 -10.37,10.41 z"
           class="cls-2"
           data-name="circle"
           id="circle-19"
           inkscape:connector-curvature="0"
           style="fill:#ffffff" />
        <path
           transform="translate(-61.55,-10.31)"
           d="m 1092.69,432.1 a 14.67,14.67 0 1 0 14.67,14.67 14.67,14.67 0 0 0 -14.67,-14.67 z m 0,25 a 10.38,10.38 0 1 1 10.37,-10.37 10.38,10.38 0 0 1 -10.37,10.41 z"
           class="cls-2"
           data-name="circle"
           id="circle-20"
           inkscape:connector-curvature="0"
           style="fill:#ffffff" />
        <path
           transform="translate(-61.55,-10.31)"
           d="m 940.15,329.25 a 14.67,14.67 0 1 0 14.67,14.67 14.67,14.67 0 0 0 -14.67,-14.67 z m 0,25 a 10.37,10.37 0 1 1 10.37,-10.37 10.37,10.37 0 0 1 -10.37,10.41 z"
           class="cls-2"
           data-name="circle"
           id="circle-21"
           inkscape:connector-curvature="0"
           style="fill:#ffffff" />
        <path
           transform="translate(-61.55,-10.31)"
           d="m 1350.34,414.26 a 14.67,14.67 0 1 0 14.66,14.67 14.67,14.67 0 0 0 -14.66,-14.67 z m 0,25 a 10.38,10.38 0 1 1 10.37,-10.37 10.37,10.37 0 0 1 -10.37,10.41 z"
           class="cls-2"
           data-name="circle"
           id="circle-22"
           inkscape:connector-curvature="0"
           style="fill:#ffffff" />
        <path
           transform="translate(-61.55,-10.31)"
           d="m 1525.43,590.33 a 14.67,14.67 0 1 0 14.67,14.67 14.67,14.67 0 0 0 -14.67,-14.67 z m 0,25 a 10.38,10.38 0 1 1 10.37,-10.33 10.38,10.38 0 0 1 -10.37,10.38 z"
           class="cls-2"
           data-name="circle"
           id="circle-23"
           inkscape:connector-curvature="0"
           style="fill:#ffffff" />
        <path
           transform="translate(-61.55,-10.31)"
           d="m 1541.65,483.19 a 14.67,14.67 0 1 0 14.67,14.67 14.67,14.67 0 0 0 -14.67,-14.67 z m 0,25 a 10.38,10.38 0 1 1 10.35,-10.33 10.37,10.37 0 0 1 -10.35,10.37 z"
           class="cls-2"
           data-name="circle"
           id="circle-24"
           inkscape:connector-curvature="0"
           style="fill:#ffffff" />
        <path
           transform="translate(-61.55,-10.31)"
           d="m 1539.56,360.93 a 14.67,14.67 0 1 0 14.67,14.67 14.67,14.67 0 0 0 -14.67,-14.67 z m 0,25 a 10.37,10.37 0 1 1 10.37,-10.37 10.37,10.37 0 0 1 -10.37,10.44 z"
           class="cls-2"
           data-name="circle"
           id="circle-25"
           inkscape:connector-curvature="0"
           style="fill:#ffffff" />
        <path
           transform="translate(-61.55,-10.31)"
           d="m 1539.56,394.53 a 14.67,14.67 0 1 0 14.67,14.67 14.67,14.67 0 0 0 -14.67,-14.67 z m 0,25.05 a 10.38,10.38 0 1 1 10.37,-10.38 10.37,10.37 0 0 1 -10.37,10.38 z"
           class="cls-2"
           data-name="circle"
           id="circle-26"
           inkscape:connector-curvature="0"
           style="fill:#ffffff" />
        <path
           transform="translate(-61.55,-10.31)"
           d="m 1538.1,440.36 a 14.67,14.67 0 1 0 14.67,14.64 14.67,14.67 0 0 0 -14.67,-14.64 z m 0,25.05 a 10.38,10.38 0 1 1 10.37,-10.41 10.37,10.37 0 0 1 -10.37,10.41 z"
           class="cls-2"
           data-name="circle"
           id="circle-27"
           inkscape:connector-curvature="0"
           style="fill:#ffffff" />
        <path
           transform="translate(-61.55,-10.31)"
           d="m 1565,580.5 a 14.67,14.67 0 1 0 14.67,14.67 A 14.67,14.67 0 0 0 1565,580.5 Z m 0,25 a 10.38,10.38 0 1 1 10.37,-10.37 10.37,10.37 0 0 1 -10.37,10.41 z"
           class="cls-2"
           data-name="circle"
           id="circle-28"
           inkscape:connector-curvature="0"
           style="fill:#ffffff" />
        <path
           transform="translate(-61.55,-10.31)"
           d="M 1425,761.29 A 14.67,14.67 0 1 0 1439.68,776 14.67,14.67 0 0 0 1425,761.29 Z m 0,25.05 A 10.38,10.38 0 1 1 1435.38,776 10.37,10.37 0 0 1 1425,786.34 Z"
           class="cls-2"
           data-name="circle"
           id="circle-29"
           inkscape:connector-curvature="0"
           style="fill:#ffffff" />
        <path
           transform="translate(-61.55,-10.31)"
           d="m 1186.39,950 a 14.67,14.67 0 1 0 14.67,14.67 14.67,14.67 0 0 0 -14.67,-14.67 z m 0,25 a 10.37,10.37 0 1 1 10.37,-10.37 10.37,10.37 0 0 1 -10.37,10.45 z"
           class="cls-2"
           data-name="circle"
           id="circle-30"
           inkscape:connector-curvature="0"
           style="fill:#ffffff" />
        <path
           transform="translate(-61.55,-10.31)"
           d="M 1198.28,982.29 A 14.67,14.67 0 1 0 1213,997 14.66,14.66 0 0 0 1198.28,982.29 Z m 0,25 a 10.38,10.38 0 1 1 10.38,-10.29 10.38,10.38 0 0 1 -10.38,10.33 z"
           class="cls-2"
           data-name="circle"
           id="circle-31"
           inkscape:connector-curvature="0"
           style="fill:#ffffff" />
        <path
           transform="translate(-61.55,-10.31)"
           d="M 732,660.85 A 14.67,14.67 0 1 0 746.67,675.52 14.67,14.67 0 0 0 732,660.85 Z m 0,25 A 10.37,10.37 0 1 1 742.38,675.48 10.37,10.37 0 0 1 732,685.89 Z"
           class="cls-2"
           data-name="circle"
           id="circle-32"
           inkscape:connector-curvature="0"
           style="fill:#ffffff" />
        <path
           transform="translate(-61.55,-10.31)"
           d="m 727.75,570.86 a 14.67,14.67 0 1 0 14.67,14.67 14.67,14.67 0 0 0 -14.67,-14.67 z m 0,25 a 10.38,10.38 0 1 1 10.37,-10.37 10.37,10.37 0 0 1 -10.37,10.41 z"
           class="cls-2"
           data-name="circle"
           id="circle-33"
           inkscape:connector-curvature="0"
           style="fill:#ffffff" />
        <path
           transform="translate(-61.55,-10.31)"
           d="M 664.18,172 A 14.67,14.67 0 1 0 678.85,186.67 14.67,14.67 0 0 0 664.18,172 Z m 0,25 a 10.38,10.38 0 1 1 10.37,-10.37 10.37,10.37 0 0 1 -10.37,10.43 z"
           class="cls-2"
           data-name="circle"
           id="circle-34"
           inkscape:connector-curvature="0"
           style="fill:#ffffff" />
        <polyline
           id="polyline4457"
           points="1455.07 603.5 1403.47 655.09 1253.84 655.17 1244.78 646.11"
           class="cls-3"
           style="fill:none;stroke:#ffffff;stroke-width:5px;stroke-miterlimit:10" />
        <path
           id="path4459"
           transform="translate(-61.55,-10.31)"
           d="M 1304.15,654.94"
           class="cls-3"
           inkscape:connector-curvature="0"
           style="fill:none;stroke:#ffffff;stroke-width:5px;stroke-miterlimit:10" />
        <polyline
           id="polyline4461"
           points="1296.23 637.2 1296.23 644.62 1396.7 644.62 1441.67 599.65 1441.67 580.93 1480.1 542.51 1480.1 499.4"
           class="cls-3"
           style="fill:none;stroke:#ffffff;stroke-width:5px;stroke-miterlimit:10" />
      </g>
      <g
         transform="matrix(2.1816542,0,0,1.9184455,-5169.3739,-6293.7976)"
         data-name="Layer 4"
         id="Layer_4">
        <path
           id="path4464"
           transform="translate(-61.55,-10.31)"
           d="M 673.66,152.69"
           class="cls-3"
           inkscape:connector-curvature="0"
           style="fill:none;stroke:#ffffff;stroke-width:5px;stroke-miterlimit:10" />
        <polyline
           id="polyline4466"
           points="1465.74 365.29 1397.9 365.29 1347.15 314.54 1291.95 369.73 1231.76 369.73 1129.97 267.94 1057.49 340.42 933.41 340.42 776.67 183.68 755.88 204.47 673.5 204.47 612.09 143.05"
           class="cls-3"
           style="fill:none;stroke:#ffffff;stroke-width:5px;stroke-miterlimit:10" />
        <polyline
           id="polyline4468"
           points="611.36 185.1 645.85 219.6 764.47 219.6 776.74 207.33 878.6 309.19 878.6 322.42"
           class="cls-3"
           style="fill:none;stroke:#ffffff;stroke-width:5px;stroke-miterlimit:10" />
        <path
           id="path4470"
           transform="translate(-61.55,-10.31)"
           d="m 1092.69,434.86 0,-36.95 97.31,-97.31 97.44,97.45 72.2,-0.21 48.27,-48.27 46.09,46.12 71.88,-0.14 5.07,5.07"
           class="cls-3"
           inkscape:connector-curvature="0"
           style="fill:none;stroke:#ffffff;stroke-width:5px;stroke-miterlimit:10" />
        <polyline
           id="polyline4472"
           points="1467.64 435.8 1433.99 402.16 1386.04 402.16 1345.59 361.71 1297.48 409.82"
           class="cls-3"
           style="fill:none;stroke:#ffffff;stroke-width:5px;stroke-miterlimit:10" />
        <line
           id="line4474"
           y2="79.5"
           x2="561.07001"
           y1="650.53998"
           x1="561.07001"
           class="cls-3"
           style="fill:none;stroke:#ffffff;stroke-width:5px;stroke-miterlimit:10" />
        <polyline
           id="polyline4476"
           points="581.67 116.25 581.67 577.11 661.12 656.55"
           class="cls-3"
           style="fill:none;stroke:#ffffff;stroke-width:5px;stroke-miterlimit:10" />
        <polyline
           id="polyline4478"
           points="666.2 589.88 666.2 619.94 713.63 667.37 1420.98 667.33 1494.87 593.44"
           class="cls-3"
           style="fill:none;stroke:#ffffff;stroke-width:5px;stroke-miterlimit:10" />
        <polyline
           id="polyline4480"
           points="568.84 765.78 568.84 1005.82 692.71 1005.82 715.3 983.24"
           class="cls-3"
           style="fill:none;stroke:#ffffff;stroke-width:5px;stroke-miterlimit:10" />
        <polyline
           id="polyline4482"
           points="590.41 793.32 590.41 778.79 615.47 753.74 723.04 753.74 735.63 766.32"
           class="cls-3"
           style="fill:none;stroke:#ffffff;stroke-width:5px;stroke-miterlimit:10" />
        <polyline
           id="polyline4484"
           points="788.16 854.51 775.68 842.03 775.68 747.02 947.05 747.02 947.05 1010.46 778.85 1010.46 778.85 904.59"
           class="cls-3"
           style="fill:none;stroke:#ffffff;stroke-width:5px;stroke-miterlimit:10" />
        <polyline
           id="polyline4486"
           points="1085.84 755.28 1085.84 748.93 982.91 748.93 982.91 1010.46 1039.41 1010.51 1121.17 928.76"
           class="cls-3"
           style="fill:none;stroke:#ffffff;stroke-width:5px;stroke-miterlimit:10" />
        <polyline
           id="polyline4488"
           points="1115.9 963.33 1078.68 1000.55 1078.68 1010.51 1136.73 1010.51 1136.73 998.46"
           class="cls-3"
           style="fill:none;stroke:#ffffff;stroke-width:5px;stroke-miterlimit:10" />
        <polyline
           id="polyline4490"
           points="1294.61 755.28 1244.3 755.28 1189.66 809.92 1189.66 1015.44 1276 1015.44 1317.66 973.78 1317.66 909.44"
           class="cls-3"
           style="fill:none;stroke:#ffffff;stroke-width:5px;stroke-miterlimit:10" />
        <polyline
           id="polyline4492"
           points="1375.74 765.75 1405.47 765.75 1425.13 746.09 1470.22 746.09 1470.22 762.43"
           class="cls-3"
           style="fill:none;stroke:#ffffff;stroke-width:5px;stroke-miterlimit:10" />
        <polyline
           id="polyline4494"
           points="1376.29 997.64 1392.41 1013.77 1484.01 1013.77 1484.01 819.7 1441.82 777.51 1390.2 777.51 1365.12 802.59 1365.12 888.01 1386.56 909.45"
           class="cls-3"
           style="fill:none;stroke:#ffffff;stroke-width:5px;stroke-miterlimit:10" />
      </g>
      <g
         transform="matrix(2.1816542,0,0,1.9184455,-5169.3739,-6293.7976)"
         data-name="Layer 5"
         id="Layer_5">
        <polyline
           id="polyline4497"
           points="888.94 411.83 795.67 411.83 775.63 431.88 775.63 597.89 801.13 623.38 880 623.38"
           class="cls-4"
           style="fill:none;stroke:#115641;stroke-width:5px;stroke-miterlimit:10" />
        <path
           id="path4499"
           transform="translate(-61.55,-10.31)"
           d="m 959.37,410.79 a 12.46,12.46 0 1 0 12.46,12.46 12.46,12.46 0 0 0 -12.46,-12.46 z m 0,20.76 a 8.3,8.3 0 1 1 8.3,-8.3 8.29,8.29 0 0 1 -8.3,8.3 z"
           class="cls-5"
           inkscape:connector-curvature="0"
           style="fill:#115641" />
        <path
           id="path4501"
           transform="translate(-61.55,-10.31)"
           d="m 997.21,406.69 a 12.46,12.46 0 1 0 12.46,12.46 12.46,12.46 0 0 0 -12.46,-12.46 z m 0,20.76 a 8.3,8.3 0 1 1 8.3,-8.3 8.31,8.31 0 0 1 -8.3,8.3 z"
           class="cls-5"
           inkscape:connector-curvature="0"
           style="fill:#115641" />
        <path
           id="path4503"
           transform="translate(-61.55,-10.31)"
           d="m 1048.21,431.93 a 12.46,12.46 0 1 0 12.46,12.46 12.46,12.46 0 0 0 -12.46,-12.46 z m 0,20.76 a 8.3,8.3 0 1 1 8.3,-8.3 8.3,8.3 0 0 1 -8.3,8.3 z"
           class="cls-5"
           inkscape:connector-curvature="0"
           style="fill:#115641" />
        <path
           id="path4505"
           transform="translate(-61.55,-10.31)"
           d="m 1102.76,600.22 a 12.46,12.46 0 1 0 12.46,12.46 12.46,12.46 0 0 0 -12.46,-12.46 z m 0,20.76 a 8.3,8.3 0 1 1 8.3,-8.3 8.31,8.31 0 0 1 -8.3,8.32 z"
           class="cls-5"
           inkscape:connector-curvature="0"
           style="fill:#115641" />
        <path
           id="path4507"
           transform="translate(-61.55,-10.31)"
           d="m 1125.79,624.82 a 12.46,12.46 0 1 0 12.46,12.46 12.46,12.46 0 0 0 -12.46,-12.46 z m 0,20.76 a 8.3,8.3 0 1 1 8.3,-8.3 8.31,8.31 0 0 1 -8.3,8.3 z"
           class="cls-5"
           inkscape:connector-curvature="0"
           style="fill:#115641" />
        <path
           id="path4509"
           transform="translate(-61.55,-10.31)"
           d="m 1212.08,533.14 a 12.46,12.46 0 1 0 12.46,12.46 12.46,12.46 0 0 0 -12.46,-12.46 z m 0,20.76 a 8.3,8.3 0 1 1 8.3,-8.3 8.3,8.3 0 0 1 -8.3,8.3 z"
           class="cls-5"
           inkscape:connector-curvature="0"
           style="fill:#115641" />
        <path
           id="path4511"
           transform="translate(-61.55,-10.31)"
           d="m 1190,496 a 12.46,12.46 0 1 0 12.46,12.45 A 12.45,12.45 0 0 0 1190,496 Z m 0,20.76 a 8.31,8.31 0 1 1 8.3,-8.31 8.3,8.3 0 0 1 -8.3,8.28 z"
           class="cls-5"
           inkscape:connector-curvature="0"
           style="fill:#115641" />
        <path
           id="path4513"
           transform="translate(-61.55,-10.31)"
           d="m 1190,467.64 a 12.46,12.46 0 1 0 12.46,12.46 12.46,12.46 0 0 0 -12.46,-12.46 z m 0,20.76 a 8.3,8.3 0 1 1 8.3,-8.3 8.3,8.3 0 0 1 -8.3,8.3 z"
           class="cls-5"
           inkscape:connector-curvature="0"
           style="fill:#115641" />
        <path
           id="path4515"
           transform="translate(-61.55,-10.31)"
           d="m 1258.16,524.05 a 12.46,12.46 0 1 0 12.46,12.46 12.46,12.46 0 0 0 -12.46,-12.46 z m 0,20.76 a 8.3,8.3 0 1 1 8.3,-8.3 8.3,8.3 0 0 1 -8.3,8.3 z"
           class="cls-5"
           inkscape:connector-curvature="0"
           style="fill:#115641" />
        <path
           id="path4517"
           transform="translate(-61.55,-10.31)"
           d="m 1274.25,480.1 a 12.46,12.46 0 1 0 12.46,12.46 12.46,12.46 0 0 0 -12.46,-12.46 z m 0,20.76 a 8.3,8.3 0 1 1 8.3,-8.3 8.31,8.31 0 0 1 -8.3,8.3 z"
           class="cls-5"
           inkscape:connector-curvature="0"
           style="fill:#115641" />
        <path
           id="path4519"
           transform="translate(-61.55,-10.31)"
           d="m 1196,554.9 a 12.46,12.46 0 1 0 12.46,12.46 A 12.46,12.46 0 0 0 1196,554.9 Z m 0,20.76 a 8.3,8.3 0 1 1 8.3,-8.3 8.29,8.29 0 0 1 -8.3,8.3 z"
           class="cls-5"
           inkscape:connector-curvature="0"
           style="fill:#115641" />
        <path
           id="path4521"
           transform="translate(-61.55,-10.31)"
           d="M 887,429.39 A 12.46,12.46 0 1 0 899.46,441.85 12.45,12.45 0 0 0 887,429.39 Z m 0,20.76 a 8.31,8.31 0 1 1 8.3,-8.3 8.3,8.3 0 0 1 -8.3,8.3 z"
           class="cls-5"
           inkscape:connector-curvature="0"
           style="fill:#115641" />
        <path
           id="path4523"
           transform="translate(-61.55,-10.31)"
           d="M 950.49,621.24 A 12.46,12.46 0 1 0 963,633.7 12.46,12.46 0 0 0 950.49,621.24 Z m 0,20.76 a 8.3,8.3 0 1 1 8.3,-8.3 8.3,8.3 0 0 1 -8.3,8.3 z"
           class="cls-5"
           inkscape:connector-curvature="0"
           style="fill:#115641" />
        <path
           id="path4525"
           transform="translate(-61.55,-10.31)"
           d="m 729.83,721.83 a 12.46,12.46 0 1 0 12.46,12.46 12.46,12.46 0 0 0 -12.46,-12.46 z m 0,20.76 a 8.3,8.3 0 1 1 8.3,-8.3 8.3,8.3 0 0 1 -8.3,8.3 z"
           class="cls-5"
           inkscape:connector-curvature="0"
           style="fill:#115641" />
        <path
           id="path4527"
           transform="translate(-61.55,-10.31)"
           d="M 693,840.46 A 12.46,12.46 0 1 0 705.46,852.92 12.46,12.46 0 0 0 693,840.46 Z m 0,20.76 a 8.3,8.3 0 1 1 8.3,-8.3 8.29,8.29 0 0 1 -8.3,8.3 z"
           class="cls-6"
           inkscape:connector-curvature="0"
           style="fill:#115641;stroke:#115641;stroke-miterlimit:10" />
        <path
           id="path4529"
           transform="translate(-61.55,-10.31)"
           d="m 728.35,868.48 a 12.46,12.46 0 1 0 12.46,12.46 12.46,12.46 0 0 0 -12.46,-12.46 z m 0,20.76 a 8.3,8.3 0 1 1 8.3,-8.3 8.29,8.29 0 0 1 -8.3,8.3 z"
           class="cls-6"
           inkscape:connector-curvature="0"
           style="fill:#115641;stroke:#115641;stroke-miterlimit:10" />
        <path
           id="path4531"
           transform="translate(-61.55,-10.31)"
           d="m 786.71,852.92 a 12.46,12.46 0 1 0 12.46,12.46 12.46,12.46 0 0 0 -12.46,-12.46 z m 0,20.76 a 8.3,8.3 0 1 1 8.3,-8.3 8.29,8.29 0 0 1 -8.3,8.3 z"
           class="cls-6"
           inkscape:connector-curvature="0"
           style="fill:#115641;stroke:#115641;stroke-miterlimit:10" />
        <path
           id="path4533"
           transform="translate(-61.55,-10.31)"
           d="m 928.65,863.41 a 12.46,12.46 0 1 0 12.46,12.46 12.46,12.46 0 0 0 -12.46,-12.46 z m 0,20.76 a 8.3,8.3 0 1 1 8.3,-8.3 8.31,8.31 0 0 1 -8.3,8.3 z"
           class="cls-6"
           inkscape:connector-curvature="0"
           style="fill:#115641;stroke:#115641;stroke-miterlimit:10" />
        <path
           id="path4535"
           transform="translate(-61.55,-10.31)"
           d="m 928.65,830.91 a 12.46,12.46 0 1 0 12.46,12.46 12.46,12.46 0 0 0 -12.46,-12.46 z m 0,20.76 a 8.3,8.3 0 1 1 8.3,-8.3 8.31,8.31 0 0 1 -8.3,8.3 z"
           class="cls-6"
           inkscape:connector-curvature="0"
           style="fill:#115641;stroke:#115641;stroke-miterlimit:10" />
        <path
           id="path4537"
           transform="translate(-61.55,-10.31)"
           d="m 924.93,962.92 a 12.46,12.46 0 1 0 12.46,12.46 12.46,12.46 0 0 0 -12.46,-12.46 z m 0,20.76 a 8.3,8.3 0 1 1 8.3,-8.3 8.3,8.3 0 0 1 -8.3,8.3 z"
           class="cls-6"
           inkscape:connector-curvature="0"
           style="fill:#115641;stroke:#115641;stroke-miterlimit:10" />
        <path
           id="path4539"
           transform="translate(-61.55,-10.31)"
           d="m 1104.4,907.73 a 12.46,12.46 0 1 0 12.46,12.46 12.46,12.46 0 0 0 -12.46,-12.46 z m 0,20.76 a 8.3,8.3 0 1 1 8.3,-8.3 8.3,8.3 0 0 1 -8.3,8.3 z"
           class="cls-6"
           inkscape:connector-curvature="0"
           style="fill:#115641;stroke:#115641;stroke-miterlimit:10" />
        <path
           id="path4541"
           transform="translate(-61.55,-10.31)"
           d="m 1169.2,851 a 12.46,12.46 0 1 0 12.46,12.46 A 12.46,12.46 0 0 0 1169.2,851 Z m 0,20.76 a 8.3,8.3 0 1 1 8.3,-8.3 8.31,8.31 0 0 1 -8.3,8.25 z"
           class="cls-6"
           inkscape:connector-curvature="0"
           style="fill:#115641;stroke:#115641;stroke-miterlimit:10" />
        <path
           id="path4543"
           transform="translate(-61.55,-10.31)"
           d="m 1269.42,872.64 a 12.46,12.46 0 1 0 12.46,12.46 12.46,12.46 0 0 0 -12.46,-12.46 z m 0,20.76 a 8.3,8.3 0 1 1 8.3,-8.3 8.31,8.31 0 0 1 -8.3,8.3 z"
           class="cls-6"
           inkscape:connector-curvature="0"
           style="fill:#115641;stroke:#115641;stroke-miterlimit:10" />
        <path
           id="path4545"
           transform="translate(-61.55,-10.31)"
           d="m 1345.32,778.17 a 12.46,12.46 0 1 0 12.46,12.46 12.46,12.46 0 0 0 -12.46,-12.46 z m 0,20.76 a 8.3,8.3 0 1 1 8.3,-8.3 8.3,8.3 0 0 1 -8.3,8.3 z"
           class="cls-6"
           inkscape:connector-curvature="0"
           style="fill:#115641;stroke:#115641;stroke-miterlimit:10" />
        <path
           id="path4547"
           transform="translate(-61.55,-10.31)"
           d="m 1187.27,880.94 a 12.46,12.46 0 1 0 12.46,12.46 12.46,12.46 0 0 0 -12.46,-12.46 z m 0,20.76 a 8.3,8.3 0 1 1 8.3,-8.3 8.29,8.29 0 0 1 -8.3,8.3 z"
           class="cls-6"
           inkscape:connector-curvature="0"
           style="fill:#115641;stroke:#115641;stroke-miterlimit:10" />
        <path
           id="path4549"
           transform="translate(-61.55,-10.31)"
           d="m 1312.76,872.64 a 12.46,12.46 0 1 0 12.46,12.46 12.46,12.46 0 0 0 -12.46,-12.46 z m 0,20.76 a 8.3,8.3 0 1 1 8.3,-8.3 8.31,8.31 0 0 1 -8.3,8.3 z"
           class="cls-6"
           inkscape:connector-curvature="0"
           style="fill:#115641;stroke:#115641;stroke-miterlimit:10" />
        <path
           id="path4551"
           transform="translate(-61.55,-10.31)"
           d="m 1356,956.12 a 12.46,12.46 0 1 0 12.46,12.46 12.46,12.46 0 0 0 -12.46,-12.46 z m 0,20.76 a 8.3,8.3 0 1 1 8.3,-8.3 8.3,8.3 0 0 1 -8.3,8.3 z"
           class="cls-6"
           inkscape:connector-curvature="0"
           style="fill:#115641;stroke:#115641;stroke-miterlimit:10" />
        <path
           id="path4553"
           transform="translate(-61.55,-10.31)"
           d="m 1459.47,807.35 a 12.46,12.46 0 1 0 12.46,12.46 12.46,12.46 0 0 0 -12.46,-12.46 z m 0,20.76 a 8.3,8.3 0 1 1 8.3,-8.3 8.3,8.3 0 0 1 -8.3,8.3 z"
           class="cls-6"
           inkscape:connector-curvature="0"
           style="fill:#115641;stroke:#115641;stroke-miterlimit:10" />
        <path
           id="path4555"
           transform="translate(-61.55,-10.31)"
           d="m 1519.31,846.22 a 12.46,12.46 0 1 0 12.46,12.46 12.46,12.46 0 0 0 -12.46,-12.46 z m 0,20.76 a 8.3,8.3 0 1 1 8.3,-8.3 8.3,8.3 0 0 1 -8.3,8.32 z"
           class="cls-6"
           inkscape:connector-curvature="0"
           style="fill:#115641;stroke:#115641;stroke-miterlimit:10" />
        <path
           id="path4557"
           transform="translate(-61.55,-10.31)"
           d="m 1424.06,937.58 a 12.46,12.46 0 1 0 12.46,12.42 12.46,12.46 0 0 0 -12.46,-12.42 z m 0,20.76 a 8.3,8.3 0 1 1 8.3,-8.3 8.3,8.3 0 0 1 -8.3,8.3 z"
           class="cls-6"
           inkscape:connector-curvature="0"
           style="fill:#115641;stroke:#115641;stroke-miterlimit:10" />
        <path
           id="path4559"
           transform="translate(-61.55,-10.31)"
           d="m 1446.89,844.62 a 12.46,12.46 0 1 0 12.46,12.46 12.46,12.46 0 0 0 -12.46,-12.46 z m 0,20.76 a 8.3,8.3 0 1 1 8.3,-8.3 8.31,8.31 0 0 1 -8.3,8.3 z"
           class="cls-6"
           inkscape:connector-curvature="0"
           style="fill:#115641;stroke:#115641;stroke-miterlimit:10" />
        <path
           id="path4561"
           transform="translate(-61.55,-10.31)"
           d="m 1074.74,828 a 12.46,12.46 0 1 0 12.46,12.46 12.46,12.46 0 0 0 -12.46,-12.46 z m 0,20.76 a 8.3,8.3 0 1 1 8.3,-8.3 8.3,8.3 0 0 1 -8.3,8.3 z"
           class="cls-6"
           inkscape:connector-curvature="0"
           style="fill:#115641;stroke:#115641;stroke-miterlimit:10" />
        <path
           id="path4563"
           transform="translate(-61.55,-10.31)"
           d="m 882.34,986.71 a 12.46,12.46 0 1 0 12.46,12.46 12.46,12.46 0 0 0 -12.46,-12.46 z m 0,20.76 a 8.3,8.3 0 1 1 8.3,-8.3 8.29,8.29 0 0 1 -8.3,8.3 z"
           class="cls-6"
           inkscape:connector-curvature="0"
           style="fill:#115641;stroke:#115641;stroke-miterlimit:10" />
        <path
           id="path4565"
           transform="translate(-61.55,-10.31)"
           d="m 746.8,947.7 a 12.46,12.46 0 1 0 12.46,12.46 12.46,12.46 0 0 0 -12.46,-12.46 z m 0,20.76 a 8.3,8.3 0 1 1 8.3,-8.3 8.3,8.3 0 0 1 -8.3,8.3 z"
           class="cls-6"
           inkscape:connector-curvature="0"
           style="fill:#115641;stroke:#115641;stroke-miterlimit:10" />
        <path
           id="path4567"
           transform="translate(-61.55,-10.31)"
           d="m 661.36,922.78 a 12.46,12.46 0 1 0 12.46,12.46 12.46,12.46 0 0 0 -12.46,-12.46 z m 0,20.76 a 8.3,8.3 0 1 1 8.3,-8.3 8.31,8.31 0 0 1 -8.3,8.3 z"
           class="cls-6"
           inkscape:connector-curvature="0"
           style="fill:#115641;stroke:#115641;stroke-miterlimit:10" />
        <path
           id="path4569"
           transform="translate(-61.55,-10.31)"
           d="M 775.62,943.54 A 12.46,12.46 0 1 0 788.08,956 12.46,12.46 0 0 0 775.62,943.54 Z m 0,20.76 a 8.3,8.3 0 1 1 8.3,-8.3 8.31,8.31 0 0 1 -8.3,8.3 z"
           class="cls-6"
           inkscape:connector-curvature="0"
           style="fill:#115641;stroke:#115641;stroke-miterlimit:10" />
        <path
           id="path4571"
           transform="translate(-61.55,-10.31)"
           d="m 781.1,695.38 a 12.46,12.46 0 1 0 12.46,12.46 12.45,12.45 0 0 0 -12.46,-12.46 z m 0,20.76 a 8.3,8.3 0 1 1 8.31,-8.3 8.3,8.3 0 0 1 -8.31,8.3 z"
           class="cls-5"
           inkscape:connector-curvature="0"
           style="fill:#115641" />
        <path
           id="path4573"
           transform="translate(-61.55,-10.31)"
           d="m 1393.1,710.93 a 12.46,12.46 0 1 0 12.46,12.46 12.46,12.46 0 0 0 -12.46,-12.46 z m 0,20.76 a 8.3,8.3 0 1 1 8.3,-8.3 8.3,8.3 0 0 1 -8.3,8.3 z"
           class="cls-5"
           inkscape:connector-curvature="0"
           style="fill:#115641" />
        <path
           id="path4575"
           transform="translate(-61.55,-10.31)"
           d="m 1444.91,689.54 a 12.46,12.46 0 1 0 12.46,12.46 12.46,12.46 0 0 0 -12.46,-12.46 z m 0,20.76 a 8.3,8.3 0 1 1 8.3,-8.3 8.3,8.3 0 0 1 -8.3,8.3 z"
           class="cls-5"
           inkscape:connector-curvature="0"
           style="fill:#115641" />
        <path
           id="path4577"
           transform="translate(-61.55,-10.31)"
           d="M 901.67,518 A 12.46,12.46 0 1 0 914.13,530.46 12.46,12.46 0 0 0 901.67,518 Z m 0,20.76 a 8.3,8.3 0 1 1 8.3,-8.3 8.31,8.31 0 0 1 -8.3,8.25 z"
           class="cls-5"
           inkscape:connector-curvature="0"
           style="fill:#115641" />
        <path
           id="path4579"
           transform="translate(-61.55,-10.31)"
           d="M 938,592.15 A 12.46,12.46 0 1 0 950.46,604.61 12.46,12.46 0 0 0 938,592.15 Z m 0,20.76 a 8.3,8.3 0 1 1 8.3,-8.3 8.3,8.3 0 0 1 -8.3,8.3 z"
           class="cls-5"
           inkscape:connector-curvature="0"
           style="fill:#115641" />
        <path
           id="path4581"
           transform="translate(-61.55,-10.31)"
           d="m 863.83,520.71 a 12.46,12.46 0 1 0 12.46,12.46 12.46,12.46 0 0 0 -12.46,-12.46 z m 0,20.76 a 8.3,8.3 0 1 1 8.3,-8.3 8.31,8.31 0 0 1 -8.3,8.3 z"
           class="cls-5"
           inkscape:connector-curvature="0"
           style="fill:#115641" />
        <polyline
           id="polyline4583"
           points="817.97 424.1 813.57 419.7 799.01 419.7 784.57 434.14 784.57 493.98 796.29 505.7 825.4 505.7 832.28 512.59"
           class="cls-4"
           style="fill:none;stroke:#115641;stroke-width:5px;stroke-miterlimit:10" />
        <polyline
           id="polyline4585"
           points="795.29 529.43 785.48 539.25 785.48 594.3 804.68 613.5 856.69 613.5 869.1 601.09"
           class="cls-4"
           style="fill:none;stroke:#115641;stroke-width:5px;stroke-miterlimit:10" />
        <polyline
           id="polyline4587"
           points="942.66 415.83 956.37 429.53 956.37 614.82 968.51 626.97 1054.41 626.97"
           class="cls-4"
           style="fill:none;stroke:#115641;stroke-width:5px;stroke-miterlimit:10" />
        <polyline
           id="polyline4589"
           points="1034.6 608.98 1028.22 615.36 986.66 616.3 966.86 596.51 966.86 453.73 979.51 441.08"
           class="cls-4"
           style="fill:none;stroke:#115641;stroke-width:5px;stroke-miterlimit:10" />
        <polyline
           id="polyline4591"
           points="1121.45 462.8 1112.04 453.39 1112.04 438.08 1129.82 420.3 1162.87 420.3 1195.89 453.32 1195.89 498.11 1179 515.01 1145.69 515.01 1135.89 505.21"
           class="cls-4"
           style="fill:none;stroke:#115641;stroke-width:5px;stroke-miterlimit:10" />
        <polyline
           id="polyline4593"
           points="1212.7 469.78 1212.7 431.53 1187.06 405.89 1114.19 405.89 1098.51 421.58 1098.51 597.27 1129.35 628.12 1204.4 628.12 1222.5 610.01 1222.5 552.68 1203.56 533.74"
           class="cls-4"
           style="fill:none;stroke:#115641;stroke-width:5px;stroke-miterlimit:10" />
        <polyline
           id="polyline4595"
           points="1123.7 557.05 1112.04 557.05 1112.04 591.84 1135.55 615.35 1194.37 615.35 1206.54 603.17 1206.54 565.35 1176.47 535.28 1160.51 535.28"
           class="cls-4"
           style="fill:none;stroke:#115641;stroke-width:5px;stroke-miterlimit:10" />
        <polyline
           id="polyline4597"
           points="660.69 731.57 651.23 741.03 610.66 741.03 610.66 673.66 642.07 673.66 665.94 697.54 709.25 697.54"
           class="cls-4"
           style="fill:none;stroke:#115641;stroke-width:5px;stroke-miterlimit:10" />
        <polyline
           id="polyline4599"
           points="1342.07 713.07 1390.06 713.07 1414.68 737.69 1442.97 737.69 1442.97 674.62 1400.56 674.62 1390.47 684.71"
           class="cls-4"
           style="fill:none;stroke:#115641;stroke-width:5px;stroke-miterlimit:10" />
        <polyline
           id="polyline4601"
           points="624.54 835.68 611.98 823.11 611.98 787.79 632.51 767.25 693.55 767.25 725.45 799.16 725.45 845.06"
           class="cls-4"
           style="fill:none;stroke:#115641;stroke-width:5px;stroke-miterlimit:10" />
        <polyline
           id="polyline4603"
           points="673.3 877.13 714.47 918.3 714.47 936.01"
           class="cls-4"
           style="fill:none;stroke:#115641;stroke-width:5px;stroke-miterlimit:10" />
        <polyline
           id="polyline4605"
           points="685.25 959.52 685.25 979.64 666.21 998.68 630.3 998.68 599.81 968.2 599.81 934.92"
           class="cls-4"
           style="fill:none;stroke:#115641;stroke-width:5px;stroke-miterlimit:10" />
        <polyline
           id="polyline4607"
           points="867.1 822.87 867.1 784.62 895.04 756.68 818.34 756.68 818.34 791.2 842.17 791.2 842.17 944.02 856.29 958.14"
           class="cls-4"
           style="fill:none;stroke:#115641;stroke-width:5px;stroke-miterlimit:10" />
        <polyline
           id="polyline4609"
           points="867.1 875.25 867.1 942.01 908.44 983.35 908.44 988.86 831.15 988.86"
           class="cls-4"
           style="fill:none;stroke:#115641;stroke-width:5px;stroke-miterlimit:10" />
        <polyline
           id="polyline4611"
           points="1005.71 822.67 994.26 811.22 994.26 760.28 1050.4 760.28 1125.72 835.59 1125.72 872.74"
           class="cls-4"
           style="fill:none;stroke:#115641;stroke-width:5px;stroke-miterlimit:10" />
        <polyline
           id="polyline4613"
           points="1107.65 862.33 1107.65 925.24 1030.49 1002.4 993.34 1002.4 993.34 959.6 1035.47 917.47"
           class="cls-4"
           style="fill:none;stroke:#115641;stroke-width:5px;stroke-miterlimit:10" />
        <polyline
           id="polyline4615"
           points="1207.87 863.88 1207.87 809.5 1250.42 766.96 1271.31 766.96 1277.17 772.82"
           class="cls-4"
           style="fill:none;stroke:#115641;stroke-width:5px;stroke-miterlimit:10" />
        <polyline
           id="polyline4617"
           points="1243.54 881.52 1197.62 927.44 1197.62 1003.66 1249.21 1003.66 1287.19 965.68"
           class="cls-4"
           style="fill:none;stroke:#115641;stroke-width:5px;stroke-miterlimit:10" />
        <polyline
           id="polyline4619"
           points="1405.23 802.07 1416.72 790.58 1433.69 790.58 1474.33 831.22 1464.78 840.77"
           class="cls-4"
           style="fill:none;stroke:#115641;stroke-width:5px;stroke-miterlimit:10" />
        <polyline
           id="polyline4621"
           points="1392.58 854 1424.07 885.5 1457.76 885.5 1473.84 901.58 1473.84 977.46 1447.28 1004.02 1410.38 1004.02 1362.51 956.15 1362.51 949.58"
           class="cls-4"
           style="fill:none;stroke:#115641;stroke-width:5px;stroke-miterlimit:10" />
      </g>
    </g>
  </g>
  <g
     inkscape:groupmode="layer"
     id="layer3"
     inkscape:label="Gold">
    <rect
       style="opacity:1;fill:#ffd700;fill-opacity:1;stroke:none;stroke-opacity:1"
       id="rect5002"
       width="3188.9763"
       height="1217.1082"
       x="177.16536"
       y="2125.9841" />
  </g>
  <g
     inkscape:groupmode="layer"
     id="layer4"
     inkscape:label="Silver"
     sodipodi:insensitive="true">
    <rect
       style="opacity:1;fill:#b3b3b3;fill-opacity:1;stroke:none;stroke-opacity:1"
       id="rect6501"
       width="3188.9763"
       height="1126.199"
       x="195.34718"
       y="3502.0757" />
  </g>
  <g
     inkscape:groupmode="layer"
     id="layer5"
     inkscape:label="Bronze"
     sodipodi:insensitive="true">
    <rect
       style="opacity:1;fill:#503214;fill-opacity:1;stroke:none;stroke-opacity:1"
       id="rect6504"
       width="3188.9763"
       height="1112.6699"
       x="186.25627"
       y="4782.8203" />
  </g>
  <g
     inkscape:groupmode="layer"
     id="layer6"
     inkscape:label="Community"
     sodipodi:insensitive="true">
    <rect
       style="opacity:1;fill:#00ffff;fill-opacity:1;stroke:none;stroke-opacity:1"
       id="rect6507"
       width="3188.9763"
       height="885.82678"
       x="177.16536"
       y="6023.6221" />
  </g>
</svg>
