<?xml version="1.0" encoding="utf-8"?>
<!-- Generator: Adobe Illustrator 22.1.0, SVG Export Plug-In . SVG Version: 6.00 Build 0)  -->
<svg version="1.1" id="Grafik" xmlns="http://www.w3.org/2000/svg" xmlns:xlink="http://www.w3.org/1999/xlink" x="0px" y="0px"
	 viewBox="0 0 262.7 150" style="enable-background:new 0 0 262.7 150;" xml:space="preserve">
<style type="text/css">
	.st0{fill:url(#SVGID_1_);}
	.st1{fill:#FFFFFF;}
	.st2{fill:#B3B3B3;}
	.st3{fill:url(#SVGID_2_);}
</style>
<g>
	<linearGradient id="SVGID_1_" gradientUnits="userSpaceOnUse" x1="135.2762" y1="124.1278" x2="135.2762" y2="37.5007">
		<stop  offset="0" style="stop-color:#B30000"/>
		<stop  offset="6.445420e-02" style="stop-color:#BC0000"/>
		<stop  offset="0.306" style="stop-color:#D90000"/>
		<stop  offset="0.5452" style="stop-color:#EE0000"/>
		<stop  offset="0.7787" style="stop-color:#FB0000"/>
		<stop  offset="1" style="stop-color:#FF0000"/>
	</linearGradient>
	<polygon class="st0" points="34.4,37.5 7.9,124.1 236.2,124.1 262.7,37.5 	"/>
	<g>
		<polygon class="st1" points="229.2,115 255.7,28.2 27.5,28.2 1,115 		"/>
		<polygon points="26.9,27.5 0,115.7 85.8,115.7 86.5,113.7 2.7,113.7 28.4,29.5 254,29.5 228.3,113.7 208.6,113.7 209.9,115.7 
			229.8,115.7 256.7,27.5 		"/>
		<path class="st2" d="M206.5,108l-35.4-30.4c0,0-19.7-15.4-22.6-18.7c-9-19.6-28.9-28.4-42.4-30.3c-2-4.6-7.3-5.7-13.9-4.8
			c-4.9-5.5-7.6-4.3-10.2-4C82,14,77.7-2.7,60.3,1.4c-18.4,4.3-15,25.7-12,33.1c0,0-3.6,2-3.8,6.4c-0.2,4.3,0,13.2,3.2,19.4
			s34.2,48,34.2,48s7.6,18.8,18.1,27c8.2,6.4,16.9,14.7,31.2,13.7c9.2-0.6,17.4-6,18.6-23.6l11.7,0c3.7,5.4,10.1,13,19.9,17
			c9.9,4.1,17.1,2.3,21.1-1c4-3.3,6-6.6,7-11C211.2,123.2,210.7,114.7,206.5,108z"/>
		<g>
			<path d="M86.4,20.8c10.8,8.5,12.4,15.4,11.2,21.3c-1.1,5.7,2.5,6,7.4,4.3c1-0.3,1.9-0.6,2.7-0.8c20.1-5.3,36.9,11.6,42.8,18.5
				l-1.1-3.8c-3-7.7-7.9-14.7-14.3-19.9c-5.5-4.5-13.2-8.9-23.3-11.1l-4.6-1l-0.5-0.8l-0.1,0c-5.3-6.7-13.7-4.3-13.7-4.3
				s-4.3-4.4-6.7-4.4c-1.7,0-3.5,0.2-3.5,0.2C81.6,1,66.4-3.8,54.3,2.8c-11.5,6.3-9,24.2-9,24.2s0.3,3,1.8,7.2
				c-3.4,2.4-3.3,5.4-3.3,5.4s-1.5,17.3,5.6,26.1l3.2,0.3c-3-1.9-6.1-8-7-21c0.7,3.9,1.7,7.9,3.4,7.9c12.7,0.3,24-6.6,30.9-12
				C83.2,38.3,85.6,24.6,86.4,20.8C86.4,20.8,86.4,20.8,86.4,20.8z M105.4,29.5c34.4,4.5,43.6,31.7,43.6,31.7
				c-22.1-24.5-40-18.2-44.2-16.7c-4.7,1.7-5.3,0.8-4.8-2.7c0.1-0.6,0.2-1.2,0.2-1.9c0.9-9-6-15-6-15
				C103.3,23.5,105.4,29.5,105.4,29.5z M56.9,3.2c6.7-2.8,16-2.5,20.7,4.9c1.8,2.8,3.5,8,3.5,11.1c-3.1,0.6-7.3,1.6-12.8,3.7
				c3-5.3,4.7-12.6-1.1-9.8c-5.8,2.9-9.5,4.8-15.2,5.1c-2,0.1-4.9-0.3-4.9-0.8C47.2,17.5,48.3,6.9,56.9,3.2z M47.1,24.9
				c-0.2-3.1,0-5.4,0-5.4s1.1,0.9,5.2,0.7c5-0.3,7.5-1.5,12.5-3.9c3.3-1.6,5.8-3.1,4.4,1.1c-0.6,1.9-1.8,4.5-3.5,6.6
				c-2,0.8-5.6,2.2-8,3.5c-4.2,2.1-6.2,3.7-8.8,5.5C48.8,32.6,47.4,29.9,47.1,24.9z M78.9,39.2c-6.3,5.6-17.5,11.6-29.1,11.7
				c-1.9-0.1-3.5-6.6-4.3-11c0.1-0.6,1.4-5,11.8-10.2c15.4-7.7,23.8-8.9,27.3-9C84,23.8,81.3,37.5,78.9,39.2z"/>
			<g>
				<path d="M209.1,111.7c-0.9-2.2-2.2-4.7-2.2-4.7l-1.9,0c1.8,3.2,3.6,7.4,4.3,12.5c1.3,9.1-1.6,23.5-16.9,23.6
					c-13.1,0.1-23.1-9.8-28.1-16.1c-1.9-2.4-3.1-4.5-4-6.2h-2.9c0.4,1,1,2.1,1.7,3.3H151c-0.2-4.8-1.4-9-2.6-11.9
					c-1-2.5-2.5-5.3-2.5-5.3l-2.1,0c2,3.6,4.1,8.4,4.9,14c1.5,10.2-1.8,26.4-19,26.6c-14.5,0.1-27-10.8-32.9-18.1
					C87.1,117.7,83.6,108.1,83,107l-2.5,0c0,0,4,12.2,14.4,24.4c10.8,12.7,22.5,16.9,28.9,18.1c9.1,1.7,19.6-0.3,24.2-10.2
					c2.1-4.5,2.9-8.8,3.1-12.8h9.6c0.4,0.6,0.9,1.2,1.4,1.8c9.3,11.9,17.6,15.1,25.2,16.7c8.1,1.7,17.4-0.5,21.5-9.4
					C213.3,125.9,211.2,116.7,209.1,111.7z"/>
				<path d="M195.7,107l-4.3,0c14.5,25.3-2.3,26.1-14.3,6.7h-1.6C191.8,140,210.3,130.3,195.7,107z"/>
				<path d="M132.4,105.5l-5,0c19,33.1-3.9,33.9-19.4,8.1h-2.1C127.2,148.5,151.6,136,132.4,105.5z"/>
			</g>
		</g>
		<path class="st1" d="M228.3,113.7l-13-7.4h0c1.2-1.7,2-3.3,2.6-4.8c1.1-2.7,2.1-6.5,1.5-9.1c-0.5-2.5-1.6-3.7-2.2-4.5l-6.9-8.4
			l0,0l0.7-2.4h13.3c0,0,1-3.2,1.2-5c0.3-2.1,0.1-3.8-0.4-5.4c-0.5-1.6-1.6-2.8-1.6-2.9l-7.2-8.6c-1-1.1-2.2-2-3-2.5
			c-2.8-1.7-6.2-2.6-10.3-2.6c-3.1,0-6.5,0.5-9.7,1.6l0.9-3.5l-10.1-12.1l-14.7,0L166,47l3.7,4.4h-5.2l-1.4,4.4l-3.6-4.4l-14.8,0
			l-3,9.4l-7.8-9.4h-14.2l-4.2,12.9c0,0-2.9-3.6-6-7.3c-0.8-1-1.8-1.9-2.5-2.4c-4.3-3.2-9.6-3.8-13.4-3.8c-2.1,0-3.9,0.1-5.5,0.4
			l-0.1,0c-1.2,0.2-3.1,0.6-4.7,1.2c-3.4,1.3-5.9,2.9-8,5.1l3.1-11L68.5,34.5L53,34.5L31.4,105l-28.7,8.7l90.4,0
			c3.4,0,6.8-0.8,9.7-2.5c0.3-0.2,0.5-0.3,0.8-0.5c1.7-1.2,3.5-3,4.9-5.5c0.5-0.8,0.8-1.4,1.1-1.9c0.9,1.2,3.5,4.2,5.5,6.8
			c1.9,2.3,4.7,3.6,7.7,3.6h48l3.4-10.8c1.6,1.9,5.8,7,5.9,7.1c0.2,0.2,0.5,0.5,0.7,0.7c2.3,2,5.3,3,8.4,3L228.3,113.7z"/>
		<linearGradient id="SVGID_2_" gradientUnits="userSpaceOnUse" x1="125.1005" y1="105.2933" x2="125.1005" y2="35.8586">
			<stop  offset="0" style="stop-color:#B30000"/>
			<stop  offset="6.445420e-02" style="stop-color:#BC0000"/>
			<stop  offset="0.306" style="stop-color:#D90000"/>
			<stop  offset="0.5452" style="stop-color:#EE0000"/>
			<stop  offset="0.7787" style="stop-color:#FB0000"/>
			<stop  offset="1" style="stop-color:#FF0000"/>
		</linearGradient>
		<path class="st3" d="M180.7,46.7l-13.1,0l2.9-9.2l13.1,0L180.7,46.7z M67.9,35.9l-13.8,0l-21.1,68.8l33.3-0.1l3.2-10.4l-19.3,0.2
			L67.9,35.9z M108.6,74.7c-0.6,1.8-1.2,3.7-1.7,5.5c-1.6,5.2-3.3,10.6-6,15.3c-1.5,2.7-3.7,4.9-6.3,6.5c-3.7,2.1-8.4,3.3-13.6,3.3
			c-2.3,0-4.6-0.2-6.8-0.7c-0.7-0.1-1.2-0.3-2.1-0.6c-1-0.3-1.7-0.7-2-0.9l3.7-11.8l-10.4,0c1-4,2.1-7.4,3.2-11
			c0.5-1.6,0.9-3.1,1.4-4.6c3.3-10.4,7.7-20.2,18.6-22.8c2.5-0.5,4.9-0.8,7.3-0.8c3.8,0,8.7,0.7,12.6,3.6c1,0.7,2,1.6,2.6,2.6
			c0.5,0.8,0.9,1.6,1.2,2.5c1.2,4.1-0.1,8.6-1.2,12.7L108.6,74.7z M97.3,61.3c-0.4-0.6-0.9-1.1-1.7-1.5c-0.7-0.4-1.6-0.7-2.5-0.7
			c-0.3,0-0.5,0-0.8,0c-0.8,0-1.5,0.1-2.2,0.4c-2,0.8-3.8,2.6-5.3,5.5c-2.4,6.4-4.4,13-6.4,19.4l-0.1,0.4c-0.4,1.4-0.9,2.9-1.3,4.3
			l-0.2,0.7c-0.5,1.8-1.1,4.4,0.1,6.4c0.5,0.7,1.1,1.2,1.9,1.6c0.9,0.4,2.1,0.7,3.3,0.7c0.3,0,0.5,0,0.8-0.1
			c1.2-0.2,2.4-0.6,2.9-0.9c1.7-0.9,3.1-2.9,4.2-5.8l7.2-22.4c0.1-0.3,0.2-0.6,0.3-1C98,66.2,98.7,63.4,97.3,61.3z M145.9,52.8
			L136,83.9c-0.2,0.6-0.4,1.2-0.7,2c-1.5,4.3-3.2,9.2-8.2,11c-0.4,0.2-0.9,0.2-1.3,0.2c-1.2,0-2.4-0.6-3.2-1.5
			c-1.2-1.2-1.3-3.4-0.9-4.8l11.9-38.1h-12.6c0,0-7.8,24.6-11.8,37.8c-0.9,3.2-1.1,6-0.5,8.3c0.7,2.4,2.6,4.4,4.6,5.2
			c1.1,0.5,2.5,0.8,4.2,0.8c4.2,0,9-1.6,11.7-2.8c1-0.5,1.8-1,2.2-1.3c0.5-0.3,1.6-1,1.6-1l-0.3,1.2l-0.8,3.6h12.1
			c0.6-3.8,1.5-7.6,2.6-11.3l12.5-40.5L145.9,52.8z M165.6,52.8l-16.3,51.8h13.3l16.2-51.8H165.6z M216.4,57.7
			c-0.8-1.6-2.3-3-3.8-3.9c-3.1-1.9-6.7-2.4-9.6-2.4c-3.3,0-7,0.7-10.5,1.9c-7.4,2.6-11.7,9.5-12.6,15.2c-1.4,6.8,3.5,9.4,9.1,12.3
			c2.4,1.3,4.9,2.6,6.7,4.3c1.2,1.3,1.7,3.2,1.3,5.3c-0.4,1.8-1.4,3.8-3,5.2c-0.8,0.7-1.6,1.3-2.7,1.5c-0.5,0.1-1,0.1-1.4,0.1
			c-0.6,0-1-0.1-1.2-0.1c-1-0.2-2-0.7-2.5-1.3c-0.5-0.6-0.7-1.3-0.8-2c-0.3-1.7,0.4-3.6,1-5.3l-13.4-0.1c-1.5,5.6-1.2,9.7,1,12.2
			c3.7,3.8,9.3,4.6,13.3,4.6c4.3,0,7.5-0.5,11.3-1.9c8-2.8,11.8-10.8,12.5-16.9c0.7-6.1-5.9-9.7-10.1-12c-2.8-1.5-5.2-2.8-6.5-4.8
			c-0.6-1.1-1.1-2.6-0.9-4c0.2-1.4,0.8-2.4,1.5-3.3c0.8-1.2,1.9-1.8,3-2.3c0.4-0.2,1.2-0.3,1.7-0.3c0.6,0,1.3,0.1,1.9,0.4
			c1,0.5,1.7,1.3,2,2.4c0.4,1.7-0.2,3.4-0.7,4.8l13.3,0c0.4-1.2,0.8-3,1-4.8C217.4,60.9,217.2,59.3,216.4,57.7z"/>
	</g>
</g>
</svg>
