<?xml version="1.0" encoding="utf-8"?>
<!-- Generator: Adobe Illustrator 22.1.0, SVG Export Plug-In . SVG Version: 6.00 Build 0)  -->
<svg version="1.1" id="Ebene_1" xmlns="http://www.w3.org/2000/svg" xmlns:xlink="http://www.w3.org/1999/xlink" x="0px" y="0px"
	 viewBox="0 0 2000 1000" style="enable-background:new 0 0 2000 1000;" xml:space="preserve">
<style type="text/css">
	.st0{clip-path:url(#SVGID_2_);fill:url(#SVGID_3_);}
	.st1{fill:#FFFFFF;}
	.st2{fill:#141412;}
	.st3{fill:#CBCCCC;}
	.st4{clip-path:url(#SVGID_5_);fill:url(#SVGID_6_);}
</style>
<g>
	<g>
		<g>
			<defs>
				<polygon id="SVGID_1_" points="409.2,271.5 247.9,799.1 1638.7,799.1 1800,271.5 				"/>
			</defs>
			<clipPath id="SVGID_2_">
				<use xlink:href="#SVGID_1_"  style="overflow:visible;"/>
			</clipPath>
			
				<linearGradient id="SVGID_3_" gradientUnits="userSpaceOnUse" x1="746.248" y1="498.399" x2="752.3391" y2="498.399" gradientTransform="matrix(0 -86.6271 -86.6271 0 44198.8125 65444.3906)">
				<stop  offset="0" style="stop-color:#991210"/>
				<stop  offset="6.445402e-02" style="stop-color:#9E1313"/>
				<stop  offset="0.306" style="stop-color:#AF151A"/>
				<stop  offset="0.5452" style="stop-color:#BA151F"/>
				<stop  offset="0.7787" style="stop-color:#C11621"/>
				<stop  offset="1" style="stop-color:#C31622"/>
			</linearGradient>
			<rect x="247.9" y="271.5" class="st0" width="1552.1" height="527.6"/>
		</g>
		<polygon class="st1" points="367.4,215 205.9,743.3 1596.1,743.3 1757.7,215 		"/>
		<polygon class="st2" points="364.1,210.7 200,747.5 722.3,747.5 727.2,735.3 216.5,735.3 373.1,222.9 1747.1,222.9 1590.5,735.3 
			1470.5,735.3 1478.2,747.5 1599.5,747.5 1763.6,210.7 		"/>
		<g>
			<path class="st3" d="M1457.8,701.1L1242.1,516c0,0-120-93.8-137.8-113.8c-55-119.4-175.8-173.2-258.2-184.6
				c-12.2-28.3-44.5-34.4-84.7-29c-29.8-33.2-46.5-26.1-62.3-24.3c0.1-36-25.8-138.1-131.8-113c-112,26.4-91.4,156.3-72.9,201.7
				c0,0-22.1,12.3-23.1,38.7c-1,26.4,0.2,80.7,19.5,118.2c19.3,37.6,208.5,292.3,208.5,292.3s46.5,114.2,110.4,164.4
				c49.9,39.1,102.7,89.2,190.3,83.5c56.1-3.7,105.9-36.3,113.5-144l71.1,0c22.3,33.2,61.8,79,121.4,103.3
				c60.6,24.7,104.3,14.1,128.7-6.2c24.4-20.3,36.5-40.5,42.4-67.3C1486.2,793.5,1483.2,741.7,1457.8,701.1"/>
			<path class="st2" d="M726.3,170c66,51.6,75.3,93.7,68.4,129.8c-6.7,34.9,15,36.8,45.3,25.9c5.8-2.1,11.4-3.8,16.2-5
				c122.6-32.1,224.5,70.7,260.7,112.7l-7-22.9c-18.5-47-47.9-89.3-87.1-121.2c-33.7-27.5-80.1-54.1-141.9-67.4l-27.8-5.8l-3-4.6
				h-0.4c-32.3-40.6-83.7-26.3-83.7-26.3s-26.3-26.7-40.9-27c-10.3-0.1-21.3,1.2-21.3,1.2c-6.9-110.6-99.5-139.3-173.2-99.1
				C460.4,98.7,476,207.7,476,207.7s2,18.4,11.2,43.6c-20.5,14.8-20.4,32.6-20.4,32.6s-9.1,105.5,34.4,159l19.3,1.5
				c-18.3-11.6-37.4-49-42.5-127.8c4.4,23.6,10.6,48,20.8,48.3c77.2,1.7,146.1-40.4,188.4-73.1c19.8-15.3,34.1-98.9,38.8-121.9
				C726.2,170,726.3,170,726.3,170 M841.8,222.8c209.5,27.5,265.4,193.1,265.4,193.1C972.9,266.7,863.8,305.1,838.2,314.2
				c-28.6,10.2-32.2,4.6-29.5-16.3c0.5-3.5,1-7.5,1.4-11.9c5.6-54.8-36.5-91.6-36.5-91.6C829,186.1,841.8,222.8,841.8,222.8
				 M546.8,62.8c41-17.4,97.6-15.5,125.8,29.7c10.7,17.2,21.6,48.7,21.1,67.8c-19.1,3.4-44.4,10-77.7,22.8
				c18.4-32.1,28.4-77-6.7-59.6c-35.1,17.4-58.1,29.5-92.4,31.2c-12.1,0.6-29.7-1.8-29.6-5C487.3,149.9,494.2,85.1,546.8,62.8
				 M486.7,194.6c-1.4-18.7,0-33.1,0-33.1s6.8,5.6,31.8,4c30.7-1.9,45.9-8.9,75.9-23.9c20-10,35.4-18.7,27.1,6.6
				c-3.9,11.9-10.9,27.5-21.2,40.1c-12.2,4.8-33.9,13.6-48.9,21.1c-25.8,12.9-37.7,22.3-53.4,33.7
				C497,241.6,488.9,225.2,486.7,194.6 M680.8,282.1c-38.2,34-106.6,70.6-177.4,71c-11.5-0.7-21.6-40.4-26.5-67
				c0.8-3.9,8.6-30.5,71.7-62c93.8-46.8,145.3-54.1,166.2-54.7C711.4,188.1,695.1,271.2,680.8,282.1"/>
			<path class="st2" d="M1473.4,723.1c-5.7-13.6-13.3-28.5-13.3-28.5l-11.5,0c11,19.4,22,45.3,26.4,76c7.9,55.2-9.7,143.2-103.1,144
				c-79.5,0.7-140.8-59.7-171-98.3c-11.3-14.4-19.1-27.5-24.3-37.6h-18c2.6,5.8,6.1,12.6,10.5,20.1h-49.3
				c-1.2-29.4-8.6-54.5-16-72.4c-6.4-15.3-15-32-15-32l-12.9,0c12.3,21.8,24.8,50.9,29.7,85.5c8.9,62-10.9,161.1-116,162
				c-88.5,0.8-164.5-65.9-200.6-110c-59-72.2-79.7-130.7-83.4-137.5l-15.4,0.1c0,0,24.2,74.3,87.6,148.8
				c65.8,77.5,137.1,103,175.9,110.1c55.5,10.2,119.1-1.7,147.4-62.3c12.8-27.3,18-53.8,18.7-78h58.4c2.5,3.7,5.3,7.4,8.3,11.3
				c56.8,72.4,107,92.2,153.4,101.9c49.1,10.3,105.9-3.1,131.1-57C1499.1,809.6,1486.3,754.1,1473.4,723.1"/>
			<path class="st2" d="M1391.8,694.5h-26.1c88.3,153.9-13.9,158.8-86.8,40.8h-9.9C1368.5,895.5,1481.2,836.7,1391.8,694.5"/>
			<path class="st2" d="M1006.4,685.9H976c115.6,201.5-23.5,206.3-118.3,49.4h-12.8C974.5,947.7,1123.1,871.6,1006.4,685.9"/>
			<path class="st1" d="M1590.5,735.3l-79-45h0c7.1-10.1,12-20.2,15.8-29.4c6.8-16.3,12.9-39.5,9.4-55.4c-3.3-15-9.7-22.7-13.5-27.3
				l-42.2-50.9l-0.2-0.2l4.3-14.5h80.9c0,0,5.9-19.4,7.3-30.6c1.6-12.8,0.9-23.3-2.4-33.1c-3.3-9.9-9.5-17.3-9.8-17.6l-43.6-52.5
				c-6.2-7-13.2-12-18.1-15.2c-16.9-10.5-38-15.8-62.7-15.8c-18.9,0-39.3,3.3-59.2,9.6l5.7-21.1l-61.2-73.4l-89.5-0.1l-21,66.3
				l22.8,26.7h-31.6l-8.3,26.5l-22-26.5l-90,0l-18.2,57l-47.5-57h-86.6l-25.8,78.4c0,0-17.8-21.9-36.3-44.5
				c-5.1-6.3-11.1-11.4-15.3-14.5c-26-19.2-58.7-23.3-81.5-23.3c-12.7,0-23.6,0.9-33.4,2.7l-0.9,0.2c-7.5,1.4-18.7,3.5-28.5,7.1
				c-20.4,7.7-36.2,17.8-48.9,31.3l19.2-66.8l-61.2-73.4l-94.5-0.3L391.1,682.6l-174.6,52.7l550.7,0c20.7,0,41.2-5,59.1-15.4
				c1.8-1,3.3-2,4.7-3c10.6-7.6,21.2-18.2,30-33.4c2.8-4.8,5-8.7,6.5-11.3c5.7,7.1,21.2,25.9,33.8,41.1
				c11.5,13.9,28.6,21.9,46.6,21.9h292.6l20.5-65.5c9.8,11.8,35.3,42.5,35.9,43.2c1.4,1.4,2.8,2.8,4.3,4.1
				c14,12.4,32.5,18.3,51.2,18.3L1590.5,735.3z"/>
		</g>
		<g>
			<defs>
				<path id="SVGID_4_" d="M1208.7,364.5L1109.6,680h81.1l98.6-315.5H1208.7z M1028.1,554.1c-1.5,3.8-2.7,7.6-4.3,12.1
					c-9,26.4-19.2,56.2-50.1,67.1c-2.7,0.9-5.3,1.4-7.9,1.4c-7.5,0-14.4-3.6-19.7-9.1c-7.2-7.4-8.2-20.5-5.6-29.3l72.2-231.9h-76.9
					c0,0-47.6,150-71.8,230.4c-5.7,19.8-6.8,36.4-3.1,50.8c4.6,14.3,15.5,26.8,27.9,31.5c6.9,3.1,15.4,4.6,25.4,4.6
					c25.4,0,54.8-9.5,71-17.2c6.3-3,10.9-6.2,13.5-7.9c3-2,9.5-6.4,9.5-6.4l-1.6,7.5l-4.8,22.1h73.9c3.9-23.2,9.3-46.5,16.1-68.9
					l76-246.6l-79.1-0.1L1028.1,554.1z M680.1,638c-5-2.1-9-5.2-11.7-9.7c-7.3-11.8-3.2-27.6-0.4-38.8l1.1-4.1
					c2.8-9,5.5-17.7,8.2-26.4l0.7-2.2c12.1-39.1,24.6-79.6,39.1-118.4c8.7-17.8,19.8-28.8,32-33.4c4.2-1.6,8.9-2.2,13.6-2.2
					c1.6,0,3.2,0.1,4.8,0.2c5.2,0.4,10.8,2.2,15.2,4.5c4.9,2.6,7.8,5.4,10.1,9.1c8.1,12.8,3.8,29.4,0.4,42c-0.6,2.2-1.1,4.2-1.5,6.1
					l-43.6,136.6c-6.8,17.7-15.4,29.5-25.7,35.3c-3.4,1.9-10.4,4.5-17.7,5.6c-1.5,0.2-3.1,0.3-4.7,0.3
					C692.8,642.5,685.9,640.4,680.1,638 M726.4,365.6c-66,16.2-93.3,75.4-113.1,138.9c-2.7,9.2-5.4,18-8.4,27.8
					c-6.7,22-13.1,42.9-19.5,67.3l63.5,0l-22.3,71.8c1.7,1,6.1,3.3,12.1,5.2c5.6,1.7,8.9,2.6,13,3.5c13.5,2.8,27.8,4.3,41.7,4.3
					c31.6,0,60.2-7.1,82.6-20.1c16.1-9.4,29.1-23.3,38.5-39.5c16.6-28.8,26.6-61.5,36.4-93.3c3.3-10.9,6.8-22.2,10.5-33.2l2-7.2
					c7.1-25,14.9-52.8,7.6-77.5c-1.5-5.2-4.1-10.5-7.3-15.2c-4.1-6.1-10.1-11.7-16.1-16.1c-23.5-17.5-53.4-21.6-76.5-21.6
					C756.5,360.7,741.4,362.3,726.4,365.6 M1372.9,368c-45.3,16-71.3,58.1-76.9,92.6c-8.4,41.7,21.2,57.1,55.5,75.1
					c14.6,7.7,29.7,15.6,40.8,25.9c7.5,7.8,10.2,19.2,7.7,32.3c-2.3,11-8.6,23.2-18.1,31.7c-4.7,4.1-9.7,7.7-16.4,9.2
					c-2.9,0.7-5.8,0.9-8.4,0.9c-3.4,0-6.2-0.4-7.4-0.6c-6.2-1.1-12.4-4.1-15.3-8c-3-3.9-4.1-7.8-4.7-12c-1.5-10.6,2.4-22.1,6-32.3
					l-81.4-0.4c-9.2,34.3-7,59.3,6.4,74c22.4,23.1,56.5,28,81.2,28c26.5,0,45.6-3.1,69-11.3c48.6-17.2,72.1-65.6,76.1-102.8
					c4-37.2-36.1-58.9-61.7-73.1c-16.9-9.4-32-16.8-39.6-29.4c-3.9-6.4-6.6-15.7-5.3-24.4c1.3-8.7,4.9-14.8,9-20.4
					c5.1-7.2,11.5-11,18-13.7c2.4-1,7-2.1,10.1-2.1c3.8,0,7.7,0.9,11.3,2.6c6.1,2.8,10.6,7.9,12.2,14.4c2.6,10.2-1.3,20.8-4.1,29.5
					h80.8c2.4-7.5,5.1-18,5.9-29.1c0.6-10-0.3-19.7-5.1-29.4c-4.7-9.8-14.2-18.2-23.3-23.9c-18.6-11.5-40.5-14.5-58.3-14.5
					C1416.3,356.4,1394.3,360.4,1372.9,368 M1220.7,327.4l80-0.1l17.2-55.9l-79.5-0.1L1220.7,327.4z M400.5,680.7l202.7-0.5
					l19.7-63.1l-117.4,1l107.8-356.4l-84.2-0.3L400.5,680.7z"/>
			</defs>
			<clipPath id="SVGID_5_">
				<use xlink:href="#SVGID_4_"  style="overflow:visible;"/>
			</clipPath>
			
				<linearGradient id="SVGID_6_" gradientUnits="userSpaceOnUse" x1="746.7" y1="498.7454" x2="752.791" y2="498.7454" gradientTransform="matrix(0 -69.4347 -69.4347 0 35592.4609 52531.293)">
				<stop  offset="0" style="stop-color:#991210"/>
				<stop  offset="6.445402e-02" style="stop-color:#9E1313"/>
				<stop  offset="0.306" style="stop-color:#AF151A"/>
				<stop  offset="0.5452" style="stop-color:#BA151F"/>
				<stop  offset="0.7787" style="stop-color:#C11621"/>
				<stop  offset="1" style="stop-color:#C31622"/>
			</linearGradient>
			<rect x="400.5" y="261.5" class="st4" width="1123.5" height="422.9"/>
		</g>
	</g>
</g>
</svg>
