<?xml version="1.0" encoding="utf-8"?>
<!-- Generator: Adobe Illustrator 22.1.0, SVG Export Plug-In . SVG Version: 6.00 Build 0)  -->
<svg version="1.1" id="Ebene_1" xmlns="http://www.w3.org/2000/svg" xmlns:xlink="http://www.w3.org/1999/xlink" x="0px" y="0px"
	 viewBox="0 0 2000 2000" style="enable-background:new 0 0 2000 2000;" xml:space="preserve">
<style type="text/css">
	.st0{clip-path:url(#SVGID_2_);fill:url(#SVGID_3_);}
	.st1{fill:#FFFFFF;}
	.st2{fill:#141412;}
	.st3{fill:#CBCCCC;}
	.st4{clip-path:url(#SVGID_5_);fill:url(#SVGID_6_);}
</style>
<g>
	<g>
		<g>
			<defs>
				<polygon id="SVGID_1_" points="298.5,728.6 106.9,1355.2 1758.4,1355.2 1950,728.6 				"/>
			</defs>
			<clipPath id="SVGID_2_">
				<use xlink:href="#SVGID_1_"  style="overflow:visible;"/>
			</clipPath>
			
				<linearGradient id="SVGID_3_" gradientUnits="userSpaceOnUse" x1="751.3725" y1="1498.3472" x2="758.6056" y2="1498.3472" gradientTransform="matrix(0 -86.6271 -86.6271 0 130825.8906 66444.3906)">
				<stop  offset="0" style="stop-color:#991210"/>
				<stop  offset="6.445402e-02" style="stop-color:#9E1313"/>
				<stop  offset="0.306" style="stop-color:#AF151A"/>
				<stop  offset="0.5452" style="stop-color:#BA151F"/>
				<stop  offset="0.7787" style="stop-color:#C11621"/>
				<stop  offset="1" style="stop-color:#C31622"/>
			</linearGradient>
			<rect x="106.9" y="728.6" class="st0" width="1843.1" height="626.6"/>
		</g>
		<polygon class="st1" points="248.8,661.5 57,1288.9 1707.9,1288.9 1899.7,661.5 		"/>
		<polygon class="st2" points="244.9,656.5 50,1293.9 670.2,1293.9 676,1279.4 69.5,1279.4 255.6,671 1887.2,671 1701.2,1279.4 
			1558.7,1279.4 1567.9,1293.9 1711.9,1293.9 1906.8,656.5 		"/>
		<g>
			<path class="st3" d="M1543.7,1238.8L1287.5,1019c0,0-142.5-111.3-163.6-135.1c-65.3-141.8-208.7-205.7-306.6-219.2
				c-14.5-33.6-52.8-40.9-100.6-34.4c-35.4-39.5-55.2-31-73.9-28.9c0.1-42.7-30.6-164-156.5-134.2c-133,31.4-108.5,185.6-86.6,239.5
				c0,0-26.3,14.6-27.5,46c-1.2,31.3,0.2,95.8,23.1,140.4c22.9,44.6,247.6,347.1,247.6,347.1s55.2,135.6,131.1,195.2
				c59.3,46.4,122,106,226,99.2c66.6-4.3,125.7-43.1,134.7-171l84.4,0c26.5,39.4,73.4,93.8,144.1,122.7
				c71.9,29.4,123.9,16.7,152.8-7.4c28.9-24.1,43.4-48,50.3-79.9C1577.4,1348.6,1573.8,1287,1543.7,1238.8"/>
			<path class="st2" d="M675,608.1c78.3,61.3,89.4,111.2,81.2,154.2c-7.9,41.4,17.8,43.7,53.8,30.8c6.9-2.5,13.6-4.5,19.2-6
				c145.6-38.1,266.6,84,309.5,133.8l-8.3-27.2c-21.9-55.8-56.9-106-103.4-144c-40-32.7-95.1-64.3-168.5-80l-33-6.9l-3.5-5.5h-0.5
				c-38.3-48.2-99.4-31.2-99.4-31.2s-31.3-31.7-48.5-32c-12.3-0.1-25.3,1.4-25.3,1.4c-8.3-131.3-118.1-165.4-205.6-117.7
				c-83.5,45.5-65,175-65,175s2.4,21.8,13.3,51.7c-24.3,17.6-24.2,38.7-24.2,38.7s-10.7,125.3,40.8,188.9l23,1.8
				c-21.8-13.8-44.4-58.2-50.4-151.7c5.2,28.1,12.6,57.1,24.7,57.3c91.7,2,173.5-47.9,223.8-86.8c23.5-18.2,40.5-117.4,46-144.7
				C674.9,608.1,675,608.1,675,608.1 M812.2,670.9c248.8,32.7,315.2,229.3,315.2,229.3C967.8,723,838.3,768.6,807.8,779.4
				c-34,12.1-38.3,5.5-35.1-19.3c0.5-4.2,1.2-8.9,1.7-14.1c6.7-65.1-43.3-108.7-43.3-108.7C797,627.2,812.2,670.9,812.2,670.9
				 M461.9,480.9c48.7-20.6,115.9-18.4,149.4,35.3c12.7,20.4,25.7,57.8,25,80.6c-22.7,4-52.7,11.9-92.3,27.1
				c21.9-38.1,33.7-91.4-8-70.8c-41.6,20.6-68.9,35.1-109.7,37.1c-14.4,0.7-35.2-2.1-35.2-5.9C391.1,584.2,399.3,507.3,461.9,480.9
				 M390.4,637.3c-1.6-22.2,0-39.3,0-39.3s8.1,6.6,37.8,4.8c36.5-2.3,54.5-10.5,90.1-28.3c23.7-11.9,42.1-22.2,32.1,7.9
				c-4.7,14.1-13,32.6-25.2,47.6c-14.5,5.7-40.3,16.2-58,25.1c-30.7,15.3-44.7,26.5-63.4,40C402.7,693.1,393.1,673.6,390.4,637.3
				 M621,741.2c-45.4,40.4-126.6,83.8-210.7,84.4c-13.6-0.9-25.7-47.9-31.4-79.5c1-4.6,10.2-36.3,85.2-73.6
				c111.4-55.5,172.5-64.3,197.4-64.9C657.3,629.6,637.9,728.3,621,741.2"/>
			<path class="st2" d="M1562.2,1265c-6.7-16.1-15.8-33.8-15.8-33.8l-13.7,0c13,23,26.2,53.8,31.4,90.3
				c9.3,65.5-11.5,170.1-122.4,171.1c-94.4,0.8-167.2-70.8-203-116.7c-13.4-17.1-22.7-32.7-28.9-44.6h-21.3
				c3.1,6.9,7.2,15,12.4,23.9h-58.6c-1.4-34.9-10.2-64.8-19-86c-7.6-18.1-17.8-38-17.8-38l-15.4,0c14.6,25.9,29.4,60.5,35.3,101.5
				c10.5,73.7-13,191.3-137.7,192.4c-105.1,0.9-195.4-78.3-238.2-130.7c-70-85.8-94.7-155.3-99-163.3l-18.3,0.1
				c0,0,28.8,88.3,104,176.7c78.2,92,162.8,122.3,208.9,130.8c65.9,12.1,141.4-2,175.1-74c15.2-32.5,21.3-63.9,22.2-92.6h69.3
				c3,4.4,6.3,8.8,9.8,13.4c67.5,86,127.1,109.5,182.2,121c58.3,12.2,125.7-3.6,155.7-67.6C1592.7,1367.6,1577.5,1301.7,1562.2,1265
				"/>
			<path class="st2" d="M1465.3,1231h-31c104.9,182.8-16.5,188.6-103.1,48.4h-11.7C1437.6,1469.7,1571.4,1399.8,1465.3,1231"/>
			<path class="st2" d="M1007.6,1220.7h-36.1c137.3,239.2-27.9,245-140.5,58.7h-15.2C969.7,1531.7,1146.2,1441.2,1007.6,1220.7"/>
			<path class="st1" d="M1701.2,1279.4l-93.8-53.5h0c8.4-12,14.2-23.9,18.8-34.9c8.1-19.4,15.3-46.9,11.2-65.8
				c-3.9-17.8-11.5-27-16-32.4l-50.1-60.4l-0.2-0.3l5.1-17.2h96c0,0,7-23.1,8.6-36.3c1.9-15.2,1-27.7-2.8-39.3
				c-3.9-11.8-11.3-20.6-11.6-20.9l-51.8-62.3c-7.3-8.3-15.6-14.3-21.5-18c-20.1-12.4-45.2-18.7-74.5-18.7
				c-22.5,0-46.7,3.9-70.3,11.4l6.8-25l-72.7-87.2l-106.3-0.1l-25,78.7l27.1,31.8h-37.5l-9.9,31.5l-26.1-31.5l-106.8,0l-21.6,67.7
				l-56.4-67.7H916.8l-30.6,93.1c0,0-21.2-26-43.1-52.8c-6-7.5-13.2-13.5-18.2-17.2c-30.8-22.9-69.7-27.7-96.8-27.7
				c-15,0-28,1-39.6,3.2l-1,0.2c-8.9,1.6-22.2,4.1-33.8,8.5c-24.3,9.2-43,21.1-58.1,37.1l22.7-79.3l-72.7-87.2l-112.2-0.4
				l-156.4,510l-207.4,62.6l654,0c24.6,0,48.9-6,70.1-18.3c2.1-1.2,4-2.4,5.5-3.5c12.5-9,25.2-21.6,35.7-39.7
				c3.3-5.6,6-10.4,7.7-13.4c6.8,8.4,25.2,30.7,40.1,48.8c13.6,16.5,33.9,26.1,55.3,26.1h347.4l24.3-77.8
				c11.6,14,41.9,50.5,42.6,51.2c1.6,1.7,3.3,3.3,5,4.8c16.6,14.7,38.6,21.7,60.8,21.7L1701.2,1279.4z"/>
		</g>
		<g>
			<defs>
				<path id="SVGID_4_" d="M1247.9,839.1l-117.7,374.6h96.3l117.1-374.6H1247.9z M1033.3,1064.2c-1.7,4.5-3.2,9-5.1,14.4
					c-10.7,31.4-22.8,66.7-59.5,79.7c-3.2,1.1-6.4,1.6-9.4,1.6c-8.9,0-17.1-4.3-23.4-10.8c-8.5-8.7-9.8-24.3-6.7-34.8l85.8-275.3
					h-91.4c0,0-56.5,178.1-85.2,273.6c-6.8,23.5-8.1,43.3-3.7,60.3c5.4,17,18.5,31.8,33.1,37.4c8.2,3.7,18.3,5.5,30.1,5.5
					c30.2,0,65.1-11.3,84.3-20.5c7.4-3.6,13-7.3,16-9.3c3.5-2.3,11.3-7.6,11.3-7.6l-2,9l-5.7,26.2h87.7c4.6-27.6,11-55.2,19.1-81.8
					l90.2-292.8L1105,839L1033.3,1064.2z M620.2,1163.9c-5.9-2.5-10.6-6.2-13.9-11.5c-8.7-14.1-3.8-32.8-0.4-46l1.3-4.9
					c3.3-10.7,6.5-21,9.7-31.4l0.8-2.6c14.4-46.5,29.2-94.6,46.5-140.5c10.4-21.1,23.5-34.2,38-39.6c5-1.9,10.5-2.6,16.1-2.6
					c1.9,0,3.8,0.1,5.7,0.2c6.2,0.5,12.8,2.6,18.1,5.3c5.8,3,9.2,6.4,12,10.8c9.6,15.2,4.5,34.9,0.5,49.9c-0.7,2.6-1.3,5-1.8,7.3
					L701,1120.3c-8.1,21-18.3,35-30.5,41.9c-4,2.3-12.4,5.4-21,6.6c-1.8,0.3-3.7,0.4-5.6,0.4
					C635.2,1169.2,626.9,1166.8,620.2,1163.9 M675.1,840.4c-78.4,19.2-110.8,89.5-134.3,165c-3.2,10.9-6.4,21.4-10,33
					c-8,26.1-15.6,50.9-23.1,79.9l75.4,0.1l-26.5,85.3c2,1.2,7.2,3.9,14.3,6.1c6.6,2.1,10.5,3.1,15.5,4.1c16.1,3.4,33,5,49.5,5
					c37.5,0,71.5-8.5,98.1-23.9c19.2-11.2,34.6-27.7,45.7-46.9c19.7-34.2,31.6-73,43.2-110.7c3.9-13,8.1-26.4,12.5-39.4l2.4-8.5
					c8.4-29.7,17.7-62.7,9-92c-1.8-6.2-4.8-12.4-8.7-18.1c-4.9-7.3-12-13.9-19.1-19.1c-27.9-20.7-63.4-25.7-90.9-25.7
					C710.8,834.5,692.9,836.5,675.1,840.4 M1442.8,843.2c-53.8,19-84.7,69-91.3,110c-10,49.5,25.2,67.8,65.8,89.1
					c17.4,9.1,35.3,18.5,48.4,30.8c8.9,9.3,12.1,22.8,9.1,38.3c-2.8,13.1-10.2,27.5-21.5,37.6c-5.6,4.9-11.5,9.1-19.5,10.9
					c-3.4,0.8-6.9,1-9.9,1c-4,0-7.3-0.4-8.8-0.7c-7.3-1.3-14.7-4.9-18.2-9.5c-3.5-4.6-4.9-9.3-5.6-14.3c-1.8-12.6,2.9-26.2,7.1-38.3
					l-96.6-0.5c-10.9,40.8-8.4,70.4,7.6,87.9c26.6,27.4,67.1,33.2,96.4,33.2c31.4,0,54.2-3.6,81.9-13.5
					c57.7-20.5,85.7-77.9,90.4-122.1c4.8-44.2-42.9-69.9-73.3-86.8c-20.1-11.1-38-19.9-47.1-35c-4.7-7.6-7.9-18.6-6.4-28.9
					c1.6-10.3,5.9-17.6,10.7-24.2c6.1-8.5,13.7-13.1,21.3-16.3c2.8-1.2,8.3-2.5,12-2.5c4.5,0,9.1,1.1,13.4,3
					c7.2,3.3,12.6,9.4,14.5,17.1c3.1,12.1-1.6,24.7-4.9,35.1h96c2.9-8.9,6.1-21.4,7-34.6c0.8-11.8-0.4-23.4-6-35
					c-5.6-11.6-16.9-21.6-27.7-28.4c-22.1-13.7-48.2-17.2-69.2-17.2C1494.4,829.5,1468.2,834.2,1442.8,843.2 M1262.1,795.1l95-0.1
					l20.5-66.3l-94.4-0.1L1262.1,795.1z M288.1,1214.6l240.7-0.6l23.4-74.9l-139.4,1.2l128-423.2l-100-0.3L288.1,1214.6z"/>
			</defs>
			<clipPath id="SVGID_5_">
				<use xlink:href="#SVGID_4_"  style="overflow:visible;"/>
			</clipPath>
			
				<linearGradient id="SVGID_6_" gradientUnits="userSpaceOnUse" x1="753.4031" y1="1498.8474" x2="760.6362" y2="1498.8474" gradientTransform="matrix(0 -69.4347 -69.4347 0 105027.1875 53531.293)">
				<stop  offset="0" style="stop-color:#991210"/>
				<stop  offset="6.445402e-02" style="stop-color:#9E1313"/>
				<stop  offset="0.306" style="stop-color:#AF151A"/>
				<stop  offset="0.5452" style="stop-color:#BA151F"/>
				<stop  offset="0.7787" style="stop-color:#C11621"/>
				<stop  offset="1" style="stop-color:#C31622"/>
			</linearGradient>
			<rect x="288.1" y="716.7" class="st4" width="1334.1" height="502.2"/>
		</g>
	</g>
</g>
</svg>
