<svg xmlns="http://www.w3.org/2000/svg" viewBox="0 0 376.52 109.91"><defs><style>.cls-1{fill:#929396;}.cls-2{fill:#ff3633;}</style></defs><title>Graylog_Logo_FINAL_color</title><g id="Layer_2" data-name="Layer 2"><g id="color"><path class="cls-1" d="M50.6,30a29.9,29.9,0,0,0-19.08-6.6A31.4,31.4,0,0,0,0,54.64C0,69.8,11.93,86.16,31.2,86.16c8.39,0,14.24-1.78,19.35-6.12-.61,10.63-6.92,15.8-19.24,15.8-4.43,0-10.93-1.52-16.7-8.76l-1.5-1.88L1.48,94.41,3.2,96.32c7.74,8.63,16.87,12.83,27.89,12.83,22.56,0,34-11.36,34-33.78V24.72H50.6ZM32.92,72.85c-8.62,0-17.79-6.38-17.79-18.21,0-8.54,6.78-17.36,18.11-17.36,9.41,0,17.36,8.19,17.36,17.89A17.7,17.7,0,0,1,32.92,72.85Z"/><path class="cls-1" d="M105.6,39.08V23.43h-2.41c-6.42,0-11.18.39-15.43,4.58V24.72H73.27v60.8H87.76V51.31c0-8.51,4-13.39,11-13.39a17,17,0,0,1,3.86.48Z"/><path class="cls-1" d="M129.86,23.43a54,54,0,0,0-21.12,4.49l-2.42,1L112.8,41.4l2.12-1a31.9,31.9,0,0,1,14.41-3.62c6.54,0,14.34,1.54,14.34,8.87v1a28.54,28.54,0,0,0-14.88-4c-18.34,0-26.69,11.21-26.69,21.64,0,13.24,11,22.5,26.8,22.5,6.15,0,11.09-1.4,15.42-4.45v3.16h13.84V44.86C158.16,31.84,147.06,23.43,129.86,23.43Zm.76,50.07c-8.51,0-13.39-3.2-13.39-8.76S122.11,56,130.62,56,144,59.17,144,64.74,139.12,73.5,130.62,73.5Z"/><polygon class="cls-1" points="203.68 24.73 187.14 64.07 170.79 24.73 154.59 24.73 178.92 82.24 167.47 109.15 182.8 109.15 219.26 24.73 203.68 24.73"/><path class="cls-2" d="M232.05,0V67c0,6.61,3.25,8.86,6.5,8.86h3v9.42h-4.15C228.12,85.24,222,80,222,67.74V0Z"/><path class="cls-2" d="M275.08,25.46c18.4,0,31.63,14.13,31.63,30.62,0,16.71-12.56,30.51-31.63,30.51s-31.62-13.8-31.62-30.51C243.46,39.59,256.69,25.46,275.08,25.46ZM254.22,56.08c0,11.21,9.65,21.08,20.86,21.08s20.86-9.87,20.86-21.08a20.86,20.86,0,1,0-41.72,0Z"/><path class="cls-2" d="M366.43,26.81h10.09V77.16c0,21.54-10.31,32.75-33,32.75-10.32,0-19.4-3.81-27.26-12.56L324.37,91c6.17,7.74,13.35,10.09,19.4,10.09,15.71,0,22.66-7.85,22.66-20.86V76h-.22c-5.5,6.62-11.22,9.87-22.55,9.87-19.63,0-30.06-16.82-30.06-30.39A30.2,30.2,0,0,1,344,25.46c8.63,0,17.38,3.59,22.21,10.54h.22Zm-20.64,8.07a21.09,21.09,0,1,0,20.64,21.2C366.43,44.3,356.78,34.88,345.79,34.88Z"/><path class="cls-1" d="M261.77,54.39a2.26,2.26,0,0,1,2,1.16h1.87l2.9-7a1.16,1.16,0,0,1,.82-.71,1.14,1.14,0,0,1,1.36.87l3.09,13.62,3.14-18.37h0a1.14,1.14,0,0,1,2.24-.08l3.4,13.8,1.72-5.14a1.1,1.1,0,0,1,.44-.63,1.14,1.14,0,0,1,1.59.28l1.48,2.1a15.11,15.11,0,0,1,.08,1.51,14.42,14.42,0,0,1-.14,2,1.16,1.16,0,0,1-.54-.38h0l-1.45-2.05-2.27,6.79A1.14,1.14,0,0,1,281.3,62h0l-3-12.31-3.19,18.64a1.14,1.14,0,0,1-1.32.93,1.12,1.12,0,0,1-.93-.94l-3.55-15.65-1.83,4.45a1.15,1.15,0,0,1-1.05.71h-2.65a2.29,2.29,0,1,1-2-3.44Z"/></g></g></svg>