<svg xmlns="http://www.w3.org/2000/svg" viewBox="0 0 765.35 765.35"><defs><style>.cls-1{fill:#5bbe82;}.cls-2,.cls-3,.cls-6{fill:none;stroke-width:5px;}.cls-2,.cls-8{stroke:#000;}.cls-2,.cls-3,.cls-5,.cls-6,.cls-8{stroke-miterlimit:10;}.cls-3{stroke:#231f20;}.cls-4{fill:#231f20;}.cls-5,.cls-7{fill:#fff;}.cls-5,.cls-6{stroke:#fff;}</style></defs><title>Elbsides_lines_200sq_cymk_round</title><g id="Background"><circle class="cls-1" cx="382.68" cy="382.68" r="382.68"/></g><g id="Text"><polyline class="cls-2" points="190.92 484.75 185.96 489.71 164.66 489.71 164.66 454.41 181.15 454.41 193.68 466.92 216.41 466.92"/><path d="M194.91,474.24a6.53,6.53,0,1,0,6.54,6.53A6.53,6.53,0,0,0,194.91,474.24Zm0,10.88a4.35,4.35,0,1,1,4.35-4.35A4.36,4.36,0,0,1,194.91,485.12Z"/><path d="M221.82,460.38a6.53,6.53,0,1,0,6.54,6.53A6.54,6.54,0,0,0,221.82,460.38Zm0,10.88a4.35,4.35,0,1,1,4.36-4.35A4.36,4.36,0,0,1,221.82,471.26Z"/><polyline class="cls-3" points="548.6 473.8 573.79 473.8 586.71 483.29 601.56 483.29 601.56 458.98 579.3 458.98 574.71 461.12"/><path class="cls-4" d="M543.08,466.94a6.53,6.53,0,1,0,6.54,6.53A6.53,6.53,0,0,0,543.08,466.94Zm0,10.88a4.35,4.35,0,1,1,4.35-4.35A4.36,4.36,0,0,1,543.08,477.82Z"/><path class="cls-4" d="M571.12,456.91a6.55,6.55,0,0,0-7.89,7.85,6.47,6.47,0,0,0,4.87,4.87,6.55,6.55,0,0,0,7.87-7.87A6.47,6.47,0,0,0,571.12,456.91Zm-.33,10.55a4.35,4.35,0,1,1,3-3A4.28,4.28,0,0,1,570.79,467.46Z"/><path id="circle" class="cls-5" d="M619.63,499.41a7.69,7.69,0,1,0,7.7,7.68A7.69,7.69,0,0,0,619.63,499.41Zm0,13.12a5.44,5.44,0,1,1,5.45-5.44A5.44,5.44,0,0,1,619.63,512.53Z"/><path id="circle-2" data-name="circle" class="cls-5" d="M559.83,493.92a7.69,7.69,0,1,0,7.7,7.69A7.69,7.69,0,0,0,559.83,493.92Zm0,13.12a5.44,5.44,0,1,1,5.44-5.43A5.44,5.44,0,0,1,559.83,507Z"/><polyline class="cls-6" points="566.42 501.32 583.21 501.32 594.31 491.02 619.78 491.02 619.78 499.58"/><path id="circle-3" data-name="circle" class="cls-7" d="M492.85,426.61a7.69,7.69,0,1,0,7.7,7.69A7.7,7.7,0,0,0,492.85,426.61Zm0,13.13a5.44,5.44,0,1,1,5.45-5.44A5.45,5.45,0,0,1,492.85,439.74Z"/><path id="circle-4" data-name="circle" class="cls-7" d="M612.54,404.34a7.69,7.69,0,1,0,7.7,7.69A7.69,7.69,0,0,0,612.54,404.34Zm0,13.12A5.44,5.44,0,1,1,618,412,5.43,5.43,0,0,1,612.54,417.46Z"/><polyline class="cls-6" points="607.92 416.64 580.83 443.68 502.28 443.71 497.53 438.97"/><path id="circle-5" data-name="circle" class="cls-7" d="M524.54,416.93a7.69,7.69,0,1,0,7.7,7.68A7.69,7.69,0,0,0,524.54,416.93Zm0,13.12a5.44,5.44,0,1,1,5.44-5.44A5.44,5.44,0,0,1,524.54,430.05Z"/><path id="circle-6" data-name="circle" class="cls-7" d="M621.06,346.2a7.69,7.69,0,1,0,7.7,7.68A7.69,7.69,0,0,0,621.06,346.2Zm0,13.12a5.44,5.44,0,1,1,5.44-5.44A5.45,5.45,0,0,1,621.06,359.32Z"/><polyline class="cls-6" points="524.54 432.3 524.54 436.19 577.28 436.19 600.88 412.63 600.88 402.82 621.06 382.68 621.06 360.1"/><path id="circle-7" data-name="circle" class="cls-5" d="M161,163.52a7.69,7.69,0,1,0,7.7,7.68A7.69,7.69,0,0,0,161,163.52Zm0,13.12a5.44,5.44,0,1,1,5.44-5.44A5.45,5.45,0,0,1,161,176.64Z"/><path id="circle-8" data-name="circle" class="cls-5" d="M620,285.13a7.69,7.69,0,1,0,7.7,7.69A7.7,7.7,0,0,0,620,285.13Zm0,13.13a5.44,5.44,0,1,1,5.44-5.44A5.45,5.45,0,0,1,620,298.26Z"/><polyline class="cls-6" points="613.52 292.82 577.91 292.82 551.27 266.23 522.29 295.15 490.69 295.15 437.26 241.82 399.22 279.79 334.08 279.79 251.8 197.66 240.89 208.56 197.65 208.56 165.41 176.38"/><path id="circle-9" data-name="circle" class="cls-7" d="M305.31,268.54a7.69,7.69,0,1,0,7.7,7.68A7.69,7.69,0,0,0,305.31,268.54Zm0,13.12a5.44,5.44,0,1,1,5.44-5.44A5.45,5.45,0,0,1,305.31,281.66Z"/><path id="circle-10" data-name="circle" class="cls-7" d="M160.44,186.15a7.69,7.69,0,1,0,7.7,7.68A7.69,7.69,0,0,0,160.44,186.15Zm0,13.12a5.44,5.44,0,1,1,5.45-5.44A5.43,5.43,0,0,1,160.44,199.27Z"/><polyline class="cls-6" points="165.02 198.41 183.13 216.48 245.4 216.48 251.84 210.06 305.31 263.43 305.31 270.36"/><path id="circle-11" data-name="circle" class="cls-7" d="M385.38,322.42a7.69,7.69,0,1,0,7.7,7.69A7.7,7.7,0,0,0,385.38,322.42Zm0,13.13a5.44,5.44,0,1,1,5.45-5.44A5.45,5.45,0,0,1,385.38,335.55Z"/><path id="circle-12" data-name="circle" class="cls-7" d="M620,302.74a7.69,7.69,0,1,0,7.7,7.69A7.69,7.69,0,0,0,620,302.74Zm0,13.12a5.44,5.44,0,1,1,5.44-5.43A5.44,5.44,0,0,1,620,315.86Z"/><path class="cls-6" d="M385.38,323.87V304.51l51.08-51,51.15,51.06,37.9-.1,25.34-25.3,24.21,24.17,37.73-.07,2.67,2.65"/><path id="circle-13" data-name="circle" class="cls-7" d="M520.63,313.08a7.69,7.69,0,1,0,7.7,7.68A7.69,7.69,0,0,0,520.63,313.08Zm0,13.12a5.44,5.44,0,1,1,5.44-5.44A5.44,5.44,0,0,1,520.63,326.2Z"/><path id="circle-14" data-name="circle" class="cls-7" d="M619.19,326.76a7.69,7.69,0,1,0,7.7,7.68A7.69,7.69,0,0,0,619.19,326.76Zm0,13.12a5.44,5.44,0,1,1,5.45-5.44A5.44,5.44,0,0,1,619.19,339.88Z"/><polyline class="cls-6" points="614.51 329.77 596.85 312.14 571.68 312.14 550.45 290.95 525.19 316.16"/><path id="circle-15" data-name="circle" class="cls-7" d="M138.63,129a7.69,7.69,0,1,0,7.7,7.69A7.69,7.69,0,0,0,138.63,129Zm0,13.13a5.44,5.44,0,1,1,5.44-5.44A5.45,5.45,0,0,1,138.63,142.15Z"/><path id="circle-16" data-name="circle" class="cls-7" d="M138.63,442.29a7.69,7.69,0,1,0,7.7,7.69A7.69,7.69,0,0,0,138.63,442.29Zm0,13.12a5.44,5.44,0,1,1,5.44-5.43A5.44,5.44,0,0,1,138.63,455.41Z"/><line class="cls-6" x1="138.63" y1="442.29" x2="138.63" y2="143.08"/><path id="circle-17" data-name="circle" class="cls-7" d="M149.44,148.14a7.69,7.69,0,1,0,7.7,7.69A7.69,7.69,0,0,0,149.44,148.14Zm0,13.12a5.44,5.44,0,1,1,5.44-5.43A5.44,5.44,0,0,1,149.44,161.26Z"/><path id="circle-18" data-name="circle" class="cls-7" d="M196.07,442.29a7.69,7.69,0,1,0,7.7,7.69A7.69,7.69,0,0,0,196.07,442.29Zm0,13.12a5.44,5.44,0,1,1,5.44-5.43A5.44,5.44,0,0,1,196.07,455.41Z"/><polyline class="cls-6" points="149.44 162.33 149.44 403.81 191.14 445.44"/><path id="circle-19" data-name="circle" class="cls-7" d="M633.32,400.18a7.69,7.69,0,1,0,7.7,7.69A7.7,7.7,0,0,0,633.32,400.18Zm0,13.13a5.44,5.44,0,1,1,5.44-5.44A5.45,5.45,0,0,1,633.32,413.31Z"/><path id="circle-20" data-name="circle" class="cls-7" d="M193.81,395.13a7.69,7.69,0,1,0,7.7,7.69A7.69,7.69,0,0,0,193.81,395.13Zm0,13.13a5.44,5.44,0,1,1,5.45-5.44A5.44,5.44,0,0,1,193.81,408.26Z"/><polyline class="cls-6" points="193.81 410.51 193.81 426.26 218.71 451.11 590.02 451.09 628.81 412.37"/><path id="circle-21" data-name="circle" class="cls-7" d="M434.57,593.82a7.69,7.69,0,1,0,7.7,7.69A7.69,7.69,0,0,0,434.57,593.82Zm0,13.12a5.44,5.44,0,1,1,5.44-5.43A5.44,5.44,0,0,1,434.57,606.94Z"/><path id="circle-22" data-name="circle" class="cls-7" d="M440.81,610.72a7.69,7.69,0,1,0,7.7,7.68A7.69,7.69,0,0,0,440.81,610.72Zm0,13.12a5.44,5.44,0,1,1,5.45-5.44A5.44,5.44,0,0,1,440.81,623.84Z"/><polyline class="cls-6" points="429.88 606.19 410.34 625.69 410.34 630.91 440.81 630.91 440.81 624.6"/><path class="cls-5" d="M316.4,309.11a6.74,6.74,0,1,0,6.54,6.74A6.64,6.64,0,0,0,316.4,309.11Zm0,11.23a4.49,4.49,0,1,1,4.35-4.49A4.42,4.42,0,0,1,316.4,320.34Z"/><polyline class="cls-6" points="310.73 315.25 261.78 315.25 251.25 326.1 251.25 415.93 264.64 429.72 306.05 429.72"/><path class="cls-5" d="M310.73,423a6.75,6.75,0,1,0,6.54,6.74A6.65,6.65,0,0,0,310.73,423Zm0,11.24a4.5,4.5,0,1,1,4.36-4.5A4.43,4.43,0,0,1,310.73,434.22Z"/><polyline class="cls-2" points="276.48 324.98 274.17 322.81 266.53 322.81 258.95 329.92 258.95 359.41 265.1 365.18 280.38 365.18 283.99 368.58"/><polyline class="cls-2" points="264.58 378.83 259.43 383.98 259.43 412.82 269.51 422.88 296.81 422.88 303.32 416.38"/><path d="M288.52,366a6.53,6.53,0,1,0,6.54,6.53A6.53,6.53,0,0,0,288.52,366Zm0,10.88a4.35,4.35,0,1,1,4.35-4.35A4.36,4.36,0,0,1,288.52,376.84Z"/><path d="M307.19,406.29a6.53,6.53,0,1,0,6.54,6.53A6.53,6.53,0,0,0,307.19,406.29Zm0,10.88a4.35,4.35,0,1,1,4.36-4.35A4.35,4.35,0,0,1,307.19,417.17Z"/><path d="M268.25,368.86a6.53,6.53,0,1,0,6.54,6.52A6.53,6.53,0,0,0,268.25,368.86Zm0,10.87a4.35,4.35,0,1,1,4.35-4.35A4.35,4.35,0,0,1,268.25,379.73Z"/><path d="M280.79,322.51a6.53,6.53,0,1,0,6.54,6.53A6.53,6.53,0,0,0,280.79,322.51Zm0,10.88a4.35,4.35,0,1,1,4.35-4.35A4.36,4.36,0,0,1,280.79,333.39Z"/><polyline class="cls-6" points="480.69 347.65 480.69 327.56 467.23 314.1 428.98 314.1 420.75 322.34 420.75 414.61 436.94 430.81 476.33 430.81 485.83 421.3 485.83 391.19 475.89 381.25"/><path class="cls-5" d="M480.69,347.65a6.55,6.55,0,1,0,6.54,6.55A6.54,6.54,0,0,0,480.69,347.65Zm0,10.91a4.36,4.36,0,1,1,4.36-4.36A4.36,4.36,0,0,1,480.69,358.56Z"/><path class="cls-5" d="M472.24,370.74a6.55,6.55,0,1,0,6.55,6.54A6.54,6.54,0,0,0,472.24,370.74Zm0,10.9a4.36,4.36,0,1,1,4.36-4.36A4.36,4.36,0,0,1,472.24,381.64Z"/><polyline class="cls-2" points="432.79 343.92 427.85 338.99 427.85 330.96 437.18 321.65 454.53 321.65 471.87 338.95 471.87 362.42 463 371.27 445.51 371.27 440.37 366.14"/><polyline class="cls-2" points="433.97 393.3 427.85 393.3 427.85 411.53 440.19 423.85 471.07 423.85 477.46 417.47 477.46 397.65 461.67 381.9 453.29 381.9"/><path d="M439.61,386.77a6.53,6.53,0,1,0,6.54,6.53A6.54,6.54,0,0,0,439.61,386.77Zm0,10.88A4.35,4.35,0,1,1,444,393.3,4.36,4.36,0,0,1,439.61,397.65Z"/><path d="M436.46,341.05a6.53,6.53,0,1,0,6.54,6.53A6.53,6.53,0,0,0,436.46,341.05Zm0,10.88a4.35,4.35,0,1,1,4.35-4.35A4.36,4.36,0,0,1,436.46,351.93Z"/><path d="M436.46,355.89a6.53,6.53,0,1,0,6.54,6.53A6.53,6.53,0,0,0,436.46,355.89Zm0,10.88a4.35,4.35,0,1,1,4.35-4.35A4.36,4.36,0,0,1,436.46,366.77Z"/><path d="M448.05,375.37a6.53,6.53,0,1,0,6.54,6.53A6.53,6.53,0,0,0,448.05,375.37Zm0,10.88a4.35,4.35,0,1,1,4.36-4.35A4.36,4.36,0,0,1,448.05,386.25Z"/><polyline class="cls-6" points="338.94 319.4 346.13 326.64 346.13 424.6 352.5 431.02 397.6 431.02"/><path class="cls-5" d="M335.26,309.11a6.59,6.59,0,1,0,6.54,6.59A6.57,6.57,0,0,0,335.26,309.11Zm0,11a4.39,4.39,0,1,1,4.36-4.39A4.37,4.37,0,0,1,335.26,320.09Z"/><path class="cls-5" d="M402.76,424.43A6.59,6.59,0,1,0,409.3,431,6.57,6.57,0,0,0,402.76,424.43Zm0,11a4.39,4.39,0,1,1,4.35-4.39A4.38,4.38,0,0,1,402.76,435.41Z"/><polyline class="cls-2" points="389.2 420.51 385.85 423.85 364.03 424.35 353.64 413.98 353.64 339.17 360.28 332.54"/><path d="M392.67,410.52a6.53,6.53,0,1,0,6.54,6.53A6.53,6.53,0,0,0,392.67,410.52Zm0,10.88a4.35,4.35,0,1,1,4.36-4.35A4.36,4.36,0,0,1,392.67,421.4Z"/><path d="M364,322.34a6.53,6.53,0,1,0,6.54,6.53A6.53,6.53,0,0,0,364,322.34Zm0,10.88a4.35,4.35,0,1,1,4.36-4.35A4.36,4.36,0,0,1,364,333.22Z"/><path id="circle-23" data-name="circle" class="cls-7" d="M562.27,611.9a7.69,7.69,0,1,0,7.94,7.69A7.82,7.82,0,0,0,562.27,611.9Zm0,13.12a5.44,5.44,0,1,1,5.62-5.43A5.53,5.53,0,0,1,562.27,625Z"/><path id="circle-24" data-name="circle" class="cls-7" d="M577.47,574.62a7.69,7.69,0,1,0,7.95,7.68A7.81,7.81,0,0,0,577.47,574.62Zm0,13.12a5.44,5.44,0,1,1,5.62-5.44A5.53,5.53,0,0,1,577.47,587.74Z"/><polyline class="cls-6" points="566.95 624.11 575.68 632.56 625.29 632.56 625.29 530.92 602.44 508.82 574.48 508.82 560.9 521.96 560.9 566.7 572.51 577.92"/><path id="circle-25" data-name="circle" class="cls-7" d="M530,488.12a7.71,7.71,0,1,0,7.7,7.71A7.71,7.71,0,0,0,530,488.12Zm0,13.16a5.46,5.46,0,1,1,5.45-5.45A5.44,5.44,0,0,1,530,501.28Z"/><path id="circle-26" data-name="circle" class="cls-7" d="M535.43,561.43a7.71,7.71,0,1,0,7.7,7.71A7.7,7.7,0,0,0,535.43,561.43Zm0,13.16a5.45,5.45,0,1,1,5.44-5.45A5.45,5.45,0,0,1,535.43,574.59Z"/><polyline class="cls-6" points="523.69 495.83 497.28 495.83 468.59 524.54 468.59 632.56 513.92 632.56 535.78 610.67 535.78 576.85"/><path id="circle-27" data-name="circle" class="cls-7" d="M437.28,576.73a7.78,7.78,0,1,0,7.71,7.78A7.75,7.75,0,0,0,437.28,576.73Zm0,13.28a5.5,5.5,0,1,1,5.45-5.5A5.47,5.47,0,0,1,437.28,590Z"/><path id="circle-28" data-name="circle" class="cls-7" d="M414.09,497.21a7.78,7.78,0,1,0,7.7,7.78A7.74,7.74,0,0,0,414.09,497.21Zm0,13.28a5.5,5.5,0,1,1,5.45-5.5A5.47,5.47,0,0,1,414.09,510.49Z"/><polyline class="cls-6" points="414.09 497.21 414.09 493.85 360.06 493.85 360.06 632.53 389.72 632.56 432.64 589.21"/><path id="circle-29" data-name="circle" class="cls-7" d="M252.94,560.85a7.78,7.78,0,1,0,7.7,7.78A7.74,7.74,0,0,0,252.94,560.85Zm0,13.28a5.5,5.5,0,1,1,5.45-5.5A5.47,5.47,0,0,1,252.94,574.13Z"/><path id="circle-30" data-name="circle" class="cls-7" d="M262.54,546.82a7.78,7.78,0,1,0,7.7,7.78A7.75,7.75,0,0,0,262.54,546.82Zm0,13.28a5.5,5.5,0,1,1,5.44-5.5A5.47,5.47,0,0,1,262.54,560.1Z"/><polyline class="cls-6" points="257.83 549.85 251.28 543.23 251.28 492.85 341.24 492.85 341.24 632.56 252.94 632.56 252.94 576.41"/><path id="circle-31" data-name="circle" class="cls-7" d="M142.71,487.3a7.91,7.91,0,1,0,7.7,7.91A7.8,7.8,0,0,0,142.71,487.3Zm0,13.5a5.59,5.59,0,1,1,5.44-5.59A5.52,5.52,0,0,1,142.71,500.8Z"/><path id="circle-32" data-name="circle" class="cls-7" d="M154,516.86a7.91,7.91,0,1,0,7.7,7.91A7.8,7.8,0,0,0,154,516.86Zm0,13.5a5.6,5.6,0,1,1,5.44-5.59A5.52,5.52,0,0,1,154,530.36Z"/><path id="circle-33" data-name="circle" class="cls-7" d="M235,500.16a7.91,7.91,0,1,0,7.7,7.91A7.8,7.8,0,0,0,235,500.16Zm0,13.5a5.6,5.6,0,1,1,5.44-5.59A5.53,5.53,0,0,1,235,513.66Z"/><path id="circle-34" data-name="circle" class="cls-7" d="M224.39,607.59a7.91,7.91,0,1,0,7.7,7.91A7.8,7.8,0,0,0,224.39,607.59Zm0,13.5a5.59,5.59,0,1,1,5.44-5.59A5.52,5.52,0,0,1,224.39,621.09Z"/><polyline class="cls-6" points="142.71 503.12 142.71 632.56 207.73 632.56 219.59 620.38"/><polyline class="cls-6" points="154.03 517.97 154.03 510.14 167.18 496.63 223.65 496.63 230.26 503.41"/><polyline class="cls-2" points="203.81 604.19 203.81 614.74 193.81 624.71 174.97 624.71 158.96 608.74 158.96 591.3"/><polyline class="cls-2" points="171.94 540.3 165.35 533.72 165.35 515.21 176.13 504.45 208.17 504.45 224.92 521.16 224.92 545.22"/><polyline class="cls-2" points="197.54 561.02 219.15 582.59 219.15 591.87"/><path class="cls-8" d="M175.58,537.4a6.53,6.53,0,1,0,6.54,6.53A6.54,6.54,0,0,0,175.58,537.4Zm0,10.88a4.35,4.35,0,1,1,4.36-4.35A4.36,4.36,0,0,1,175.58,548.28Z"/><path class="cls-8" d="M194.13,551.08a6.53,6.53,0,1,0,6.54,6.53A6.53,6.53,0,0,0,194.13,551.08Zm0,10.88a4.35,4.35,0,1,1,4.35-4.35A4.36,4.36,0,0,1,194.13,562Z"/><path class="cls-8" d="M224.76,542.93a6.53,6.53,0,1,0,6.54,6.53A6.53,6.53,0,0,0,224.76,542.93Zm0,10.88a4.35,4.35,0,1,1,4.36-4.35A4.36,4.36,0,0,1,224.76,553.81Z"/><path class="cls-8" d="M203.81,592.59a6.53,6.53,0,1,0,6.54,6.53A6.53,6.53,0,0,0,203.81,592.59Zm0,10.88a4.35,4.35,0,1,1,4.36-4.35A4.36,4.36,0,0,1,203.81,603.47Z"/><path class="cls-8" d="M159,579.53a6.53,6.53,0,1,0,6.54,6.53A6.54,6.54,0,0,0,159,579.53Zm0,10.88a4.35,4.35,0,1,1,4.36-4.35A4.35,4.35,0,0,1,159,590.41Z"/><path class="cls-8" d="M218.94,590.41a6.53,6.53,0,1,0,6.54,6.53A6.54,6.54,0,0,0,218.94,590.41Zm0,10.88a4.35,4.35,0,1,1,4.36-4.35A4.36,4.36,0,0,1,218.94,601.29Z"/><path class="cls-8" d="M435,557.61a6.53,6.53,0,1,0,6.54,6.53A6.54,6.54,0,0,0,435,557.61Zm0,10.88a4.35,4.35,0,1,1,4.36-4.35A4.36,4.36,0,0,1,435,568.49Z"/><polyline class="cls-2" points="373.48 534.01 367.61 528.23 367.61 502.52 396.4 502.52 435.03 540.53 435.03 559.28"/><polyline class="cls-2" points="425.76 554.02 425.76 585.77 386.19 624.71 367.14 624.71 367.14 603.11 388.75 581.85"/><path class="cls-8" d="M392.53,571.73a6.29,6.29,0,1,0,6.39,6.29A6.34,6.34,0,0,0,392.53,571.73Zm0,10.48a4.19,4.19,0,1,1,4.26-4.19A4.23,4.23,0,0,1,392.53,582.21Z"/><path class="cls-8" d="M425.76,543.07a6.29,6.29,0,1,0,6.39,6.29A6.35,6.35,0,0,0,425.76,543.07Zm0,10.48a4.19,4.19,0,1,1,4.26-4.19A4.21,4.21,0,0,1,425.76,553.55Z"/><path class="cls-8" d="M377.32,531.49a6.29,6.29,0,1,0,6.39,6.29A6.34,6.34,0,0,0,377.32,531.49Zm0,10.48a4.19,4.19,0,1,1,4.26-4.19A4.22,4.22,0,0,1,377.32,542Z"/><polyline class="cls-2" points="582.64 523.08 588.52 517.64 597.22 517.64 618.03 536.86 613.14 541.38"/><polyline class="cls-2" points="576.16 548.16 592.29 564.3 609.54 564.3 617.78 572.54 617.78 611.41 604.18 625.02 585.28 625.02 560.76 600.49 560.76 597.12"/><path class="cls-8" d="M579.84,519.77a6.38,6.38,0,1,0,6.38,6.38A6.37,6.37,0,0,0,579.84,519.77Zm0,10.63a4.25,4.25,0,1,1,4.25-4.25A4.25,4.25,0,0,1,579.84,530.4Z"/><path class="cls-8" d="M609.54,538.89a6.39,6.39,0,1,0,6.38,6.38A6.38,6.38,0,0,0,609.54,538.89Zm0,10.64a4.26,4.26,0,1,1,4.25-4.26A4.25,4.25,0,0,1,609.54,549.53Z"/><path class="cls-8" d="M560.76,585.69a6.39,6.39,0,1,0,6.38,6.39A6.39,6.39,0,0,0,560.76,585.69Zm0,10.64a4.26,4.26,0,1,1,4.25-4.25A4.25,4.25,0,0,1,560.76,596.33Z"/><path class="cls-8" d="M572.46,538.07a6.39,6.39,0,1,0,6.38,6.38A6.38,6.38,0,0,0,572.46,538.07Zm0,10.64a4.26,4.26,0,1,1,4.25-4.26A4.25,4.25,0,0,1,572.46,548.71Z"/><polyline class="cls-2" points="481.1 553.01 481.1 525.11 502.17 503.29 512.51 503.29 515.41 506.3"/><polyline class="cls-2" points="498.76 562.06 476.02 585.61 476.02 624.71 501.57 624.71 520.38 605.23"/><path class="cls-8" d="M481.1,552.21a6.39,6.39,0,1,0,6.17,6.39A6.28,6.28,0,0,0,481.1,552.21Zm0,10.65a4.26,4.26,0,1,1,4.11-4.26A4.19,4.19,0,0,1,481.1,562.86Z"/><path class="cls-8" d="M518.68,503.75a6.4,6.4,0,1,0,6.17,6.4A6.3,6.3,0,0,0,518.68,503.75Zm0,10.65a4.26,4.26,0,1,1,4.11-4.25A4.18,4.18,0,0,1,518.68,514.4Z"/><path class="cls-8" d="M502.56,552.21a6.39,6.39,0,1,0,6.17,6.39A6.28,6.28,0,0,0,502.56,552.21Zm0,10.65a4.26,4.26,0,1,1,4.11-4.26A4.19,4.19,0,0,1,502.56,562.86Z"/><path class="cls-8" d="M524,595a6.39,6.39,0,1,0,6.17,6.39A6.28,6.28,0,0,0,524,595Zm0,10.65a4.26,4.26,0,1,1,4.11-4.26A4.2,4.2,0,0,1,524,605.68Z"/><polyline class="cls-2" points="299.27 535.75 299.27 516.52 313.94 502.47 273.67 502.47 273.67 519.83 286.18 519.83 286.18 596.65 293.6 603.75"/><polyline class="cls-2" points="299.27 560.85 299.27 595.4 320.97 616.79 320.97 619.65 280.4 619.65"/><path class="cls-8" d="M299.27,549.39a6.45,6.45,0,1,0,6.54,6.44A6.49,6.49,0,0,0,299.27,549.39Zm0,10.74a4.3,4.3,0,1,1,4.36-4.3A4.32,4.32,0,0,1,299.27,560.13Z"/><path class="cls-8" d="M299.27,533.57a6.45,6.45,0,1,0,6.54,6.44A6.49,6.49,0,0,0,299.27,533.57Zm0,10.74a4.3,4.3,0,1,1,4.36-4.3A4.32,4.32,0,0,1,299.27,544.31Z"/><path class="cls-8" d="M297.32,600.88a6.45,6.45,0,1,0,6.54,6.45A6.5,6.5,0,0,0,297.32,600.88Zm0,10.75a4.3,4.3,0,1,1,4.36-4.3A4.33,4.33,0,0,1,297.32,611.63Z"/><path class="cls-8" d="M275,613.2a6.45,6.45,0,1,0,6.54,6.45A6.49,6.49,0,0,0,275,613.2Zm0,10.74a4.3,4.3,0,1,1,4.36-4.29A4.32,4.32,0,0,1,275,623.94Z"/></g></svg>