<svg xmlns="http://www.w3.org/2000/svg" viewBox="0 0 510.09 506.04"><defs><style>.cls-1,.cls-2,.cls-5{fill:none;stroke-width:5px;}.cls-1,.cls-7{stroke:#000;}.cls-1,.cls-2,.cls-4,.cls-5,.cls-7{stroke-miterlimit:10;}.cls-2{stroke:#231f20;}.cls-3{fill:#231f20;}.cls-4,.cls-6{fill:#fff;}.cls-4,.cls-5{stroke:#fff;}</style></defs><title>Elbsides_lines_200sq_cymk_no_background</title><g id="Dark_Circuit" data-name="Dark Circuit"><polyline class="cls-1" points="60 355.73 55.03 360.68 33.73 360.68 33.73 325.38 50.22 325.38 62.75 337.89 85.48 337.89"/><path d="M96.44,375a6.53,6.53,0,1,0,6.54,6.53A6.53,6.53,0,0,0,96.44,375Zm0,10.88a4.35,4.35,0,1,1,4.36-4.35A4.36,4.36,0,0,1,96.44,385.91Z" transform="translate(-32.46 -29.81)"/><path d="M123.35,361.17a6.53,6.53,0,1,0,6.54,6.53A6.53,6.53,0,0,0,123.35,361.17Zm0,10.88a4.35,4.35,0,1,1,4.36-4.35A4.35,4.35,0,0,1,123.35,372.05Z" transform="translate(-32.46 -29.81)"/><polyline class="cls-2" points="417.67 344.78 442.87 344.78 455.79 354.27 470.64 354.27 470.64 329.96 448.38 329.96 443.78 332.09"/><path class="cls-3" d="M444.61,367.73a6.53,6.53,0,1,0,6.54,6.53A6.53,6.53,0,0,0,444.61,367.73Zm0,10.88a4.35,4.35,0,1,1,4.36-4.35A4.36,4.36,0,0,1,444.61,378.61Z" transform="translate(-32.46 -29.81)"/><path class="cls-3" d="M472.65,357.7a6.54,6.54,0,1,0,4.85,4.85A6.45,6.45,0,0,0,472.65,357.7Zm-.33,10.55a4.35,4.35,0,1,1,3-3A4.28,4.28,0,0,1,472.32,368.25Z" transform="translate(-32.46 -29.81)"/><polyline class="cls-1" points="60 355.73 55.03 360.68 33.73 360.68 33.73 325.38 50.22 325.38 62.75 337.89 85.48 337.89"/><path class="cls-1" d="M96.44,375a6.53,6.53,0,1,0,6.54,6.53A6.53,6.53,0,0,0,96.44,375Zm0,10.88a4.35,4.35,0,1,1,4.36-4.35A4.36,4.36,0,0,1,96.44,385.91Z" transform="translate(-32.46 -29.81)"/><path class="cls-1" d="M123.35,361.17a6.53,6.53,0,1,0,6.54,6.53A6.53,6.53,0,0,0,123.35,361.17Zm0,10.88a4.35,4.35,0,1,1,4.36-4.35A4.35,4.35,0,0,1,123.35,372.05Z" transform="translate(-32.46 -29.81)"/><polyline class="cls-1" points="417.67 344.78 442.87 344.78 455.79 354.27 470.64 354.27 470.64 329.96 448.38 329.96 443.78 332.09"/><path class="cls-1" d="M444.61,367.73a6.53,6.53,0,1,0,6.54,6.53A6.53,6.53,0,0,0,444.61,367.73Zm0,10.88a4.35,4.35,0,1,1,4.36-4.35A4.36,4.36,0,0,1,444.61,378.61Z" transform="translate(-32.46 -29.81)"/><path class="cls-1" d="M472.65,357.7a6.54,6.54,0,1,0,4.85,4.85A6.45,6.45,0,0,0,472.65,357.7Zm-.33,10.55a4.35,4.35,0,1,1,3-3A4.28,4.28,0,0,1,472.32,368.25Z" transform="translate(-32.46 -29.81)"/></g><g id="White_circuit" data-name="White circuit"><path id="circle" class="cls-4" d="M521.17,400.19a7.69,7.69,0,1,0,7.7,7.69A7.69,7.69,0,0,0,521.17,400.19Zm0,13.13a5.44,5.44,0,1,1,5.44-5.44A5.45,5.45,0,0,1,521.17,413.32Z" transform="translate(-32.46 -29.81)"/><path id="circle-2" data-name="circle" class="cls-4" d="M461.36,394.71a7.69,7.69,0,1,0,7.7,7.68A7.69,7.69,0,0,0,461.36,394.71Zm0,13.12a5.44,5.44,0,1,1,5.45-5.44A5.43,5.43,0,0,1,461.36,407.83Z" transform="translate(-32.46 -29.81)"/><polyline class="cls-5" points="435.49 372.3 452.28 372.3 463.38 362 488.85 362 488.85 370.56"/><path id="circle-3" data-name="circle" class="cls-6" d="M394.39,327.4a7.69,7.69,0,1,0,7.7,7.69A7.69,7.69,0,0,0,394.39,327.4Zm0,13.12a5.44,5.44,0,1,1,5.44-5.43A5.44,5.44,0,0,1,394.39,340.52Z" transform="translate(-32.46 -29.81)"/><path id="circle-4" data-name="circle" class="cls-6" d="M514.07,305.13a7.69,7.69,0,1,0,7.7,7.68A7.69,7.69,0,0,0,514.07,305.13Zm0,13.12a5.44,5.44,0,1,1,5.45-5.44A5.45,5.45,0,0,1,514.07,318.25Z" transform="translate(-32.46 -29.81)"/><polyline class="cls-5" points="476.99 287.62 449.91 314.65 371.36 314.69 366.61 309.95"/><path id="circle-5" data-name="circle" class="cls-6" d="M426.07,317.72a7.69,7.69,0,1,0,7.7,7.68A7.69,7.69,0,0,0,426.07,317.72Zm0,13.12a5.44,5.44,0,1,1,5.44-5.44A5.45,5.45,0,0,1,426.07,330.84Z" transform="translate(-32.46 -29.81)"/><path id="circle-6" data-name="circle" class="cls-6" d="M522.59,247a7.69,7.69,0,1,0,7.7,7.69A7.69,7.69,0,0,0,522.59,247Zm0,13.12a5.44,5.44,0,1,1,5.44-5.43A5.44,5.44,0,0,1,522.59,260.1Z" transform="translate(-32.46 -29.81)"/><polyline class="cls-5" points="393.61 303.28 393.61 307.17 446.35 307.17 469.96 283.6 469.96 273.8 490.13 253.66 490.13 231.07"/><path id="circle-7" data-name="circle" class="cls-4" d="M62.57,64.3A7.69,7.69,0,1,0,70.27,72,7.69,7.69,0,0,0,62.57,64.3Zm0,13.13A5.44,5.44,0,1,1,68,72,5.45,5.45,0,0,1,62.57,77.43Z" transform="translate(-32.46 -29.81)"/><path id="circle-8" data-name="circle" class="cls-4" d="M521.49,185.92a7.69,7.69,0,1,0,7.7,7.69A7.69,7.69,0,0,0,521.49,185.92Zm0,13.12a5.44,5.44,0,1,1,5.45-5.43A5.43,5.43,0,0,1,521.49,199Z" transform="translate(-32.46 -29.81)"/><polyline class="cls-5" points="482.59 163.8 446.98 163.8 420.34 137.21 391.37 166.13 359.77 166.13 306.33 112.79 268.29 150.77 203.16 150.77 120.88 68.64 109.96 79.53 66.72 79.53 34.48 47.35"/><path id="circle-9" data-name="circle" class="cls-6" d="M206.84,169.32a7.69,7.69,0,1,0,7.7,7.69A7.69,7.69,0,0,0,206.84,169.32Zm0,13.12a5.44,5.44,0,1,1,5.45-5.43A5.43,5.43,0,0,1,206.84,182.44Z" transform="translate(-32.46 -29.81)"/><path id="circle-10" data-name="circle" class="cls-6" d="M62,86.93a7.69,7.69,0,1,0,7.71,7.69A7.7,7.7,0,0,0,62,86.93Zm0,13.13a5.44,5.44,0,1,1,5.45-5.44A5.45,5.45,0,0,1,62,100.06Z" transform="translate(-32.46 -29.81)"/><polyline class="cls-5" points="34.1 69.38 52.21 87.46 114.47 87.46 120.91 81.03 174.38 134.41 174.38 141.33"/><path id="circle-11" data-name="circle" class="cls-6" d="M286.91,223.21a7.69,7.69,0,1,0,7.7,7.69A7.69,7.69,0,0,0,286.91,223.21Zm0,13.12a5.44,5.44,0,1,1,5.45-5.43A5.44,5.44,0,0,1,286.91,236.33Z" transform="translate(-32.46 -29.81)"/><path id="circle-12" data-name="circle" class="cls-6" d="M521.49,203.53a7.69,7.69,0,1,0,7.7,7.69A7.69,7.69,0,0,0,521.49,203.53Zm0,13.12a5.44,5.44,0,1,1,5.45-5.43A5.43,5.43,0,0,1,521.49,216.65Z" transform="translate(-32.46 -29.81)"/><path class="cls-5" d="M286.91,224.66V205.3l51.08-51,51.16,51.06,37.9-.11L452.38,180l24.22,24.17,37.73-.08,2.66,2.66" transform="translate(-32.46 -29.81)"/><path id="circle-13" data-name="circle" class="cls-6" d="M422.16,213.87a7.69,7.69,0,1,0,7.7,7.68A7.69,7.69,0,0,0,422.16,213.87Zm0,13.12a5.44,5.44,0,1,1,5.45-5.44A5.44,5.44,0,0,1,422.16,227Z" transform="translate(-32.46 -29.81)"/><path id="circle-14" data-name="circle" class="cls-6" d="M520.73,227.54a7.69,7.69,0,1,0,7.7,7.69A7.69,7.69,0,0,0,520.73,227.54Zm0,13.13a5.44,5.44,0,1,1,5.44-5.44A5.45,5.45,0,0,1,520.73,240.67Z" transform="translate(-32.46 -29.81)"/><polyline class="cls-5" points="483.59 200.75 465.93 183.12 440.75 183.12 419.52 161.92 394.27 187.13"/><path id="circle-15" data-name="circle" class="cls-6" d="M40.16,29.81a7.69,7.69,0,1,0,7.7,7.69A7.69,7.69,0,0,0,40.16,29.81Zm0,13.12A5.44,5.44,0,1,1,45.6,37.5,5.44,5.44,0,0,1,40.16,42.93Z" transform="translate(-32.46 -29.81)"/><path id="circle-16" data-name="circle" class="cls-6" d="M40.16,343.08a7.69,7.69,0,1,0,7.7,7.68A7.69,7.69,0,0,0,40.16,343.08Zm0,13.12a5.44,5.44,0,1,1,5.44-5.44A5.45,5.45,0,0,1,40.16,356.2Z" transform="translate(-32.46 -29.81)"/><line class="cls-5" x1="7.7" y1="313.26" x2="7.7" y2="14.05"/><path id="circle-17" data-name="circle" class="cls-6" d="M51,48.93a7.69,7.69,0,1,0,7.7,7.69A7.69,7.69,0,0,0,51,48.93Zm0,13.12a5.44,5.44,0,1,1,5.45-5.43A5.44,5.44,0,0,1,51,62.05Z" transform="translate(-32.46 -29.81)"/><path id="circle-18" data-name="circle" class="cls-6" d="M97.6,343.08a7.69,7.69,0,1,0,7.7,7.68A7.69,7.69,0,0,0,97.6,343.08Zm0,13.12a5.44,5.44,0,1,1,5.44-5.44A5.45,5.45,0,0,1,97.6,356.2Z" transform="translate(-32.46 -29.81)"/><polyline class="cls-5" points="18.51 33.31 18.51 274.79 60.22 316.42"/><path id="circle-19" data-name="circle" class="cls-6" d="M534.85,301a7.69,7.69,0,1,0,7.7,7.69A7.69,7.69,0,0,0,534.85,301Zm0,13.12a5.44,5.44,0,1,1,5.45-5.43A5.43,5.43,0,0,1,534.85,314.09Z" transform="translate(-32.46 -29.81)"/><path id="circle-20" data-name="circle" class="cls-6" d="M95.34,295.92a7.69,7.69,0,1,0,7.7,7.69A7.69,7.69,0,0,0,95.34,295.92Zm0,13.12a5.44,5.44,0,1,1,5.45-5.43A5.44,5.44,0,0,1,95.34,309Z" transform="translate(-32.46 -29.81)"/><polyline class="cls-5" points="62.88 281.48 62.88 297.23 87.78 322.09 459.1 322.07 497.88 283.35"/><path id="circle-21" data-name="circle" class="cls-6" d="M336.1,494.61a7.69,7.69,0,1,0,7.7,7.68A7.69,7.69,0,0,0,336.1,494.61Zm0,13.12a5.44,5.44,0,1,1,5.45-5.44A5.44,5.44,0,0,1,336.1,507.73Z" transform="translate(-32.46 -29.81)"/><path id="circle-22" data-name="circle" class="cls-6" d="M342.35,511.5a7.69,7.69,0,1,0,7.7,7.69A7.7,7.7,0,0,0,342.35,511.5Zm0,13.12a5.44,5.44,0,1,1,5.44-5.43A5.44,5.44,0,0,1,342.35,524.62Z" transform="translate(-32.46 -29.81)"/><polyline class="cls-5" points="298.95 477.16 279.41 496.67 279.41 501.89 309.89 501.89 309.89 495.57"/></g><g id="Text"><path class="cls-4" d="M217.93,209.9a6.74,6.74,0,1,0,6.54,6.74A6.65,6.65,0,0,0,217.93,209.9Zm0,11.23a4.49,4.49,0,1,1,4.36-4.49A4.42,4.42,0,0,1,217.93,221.13Z" transform="translate(-32.46 -29.81)"/><polyline class="cls-5" points="179.81 186.23 130.85 186.23 120.33 197.07 120.33 286.9 133.71 300.7 175.12 300.7"/><path class="cls-4" d="M212.27,323.77a6.74,6.74,0,1,0,6.54,6.74A6.65,6.65,0,0,0,212.27,323.77Zm0,11.23a4.49,4.49,0,1,1,4.35-4.49A4.42,4.42,0,0,1,212.27,335Z" transform="translate(-32.46 -29.81)"/><polyline class="cls-1" points="145.55 195.95 143.25 193.78 135.6 193.78 128.03 200.9 128.03 230.38 134.18 236.16 149.45 236.16 153.07 239.55"/><polyline class="cls-1" points="133.65 249.81 128.5 254.95 128.5 283.8 138.58 293.86 165.88 293.86 172.4 287.36"/><path d="M190.05,266.75a6.53,6.53,0,1,0,6.54,6.53A6.53,6.53,0,0,0,190.05,266.75Zm0,10.88a4.35,4.35,0,1,1,4.36-4.35A4.36,4.36,0,0,1,190.05,277.63Z" transform="translate(-32.46 -29.81)"/><path d="M208.73,307.08a6.53,6.53,0,1,0,6.54,6.53A6.53,6.53,0,0,0,208.73,307.08Zm0,10.88a4.35,4.35,0,1,1,4.35-4.35A4.36,4.36,0,0,1,208.73,318Z" transform="translate(-32.46 -29.81)"/><path d="M169.78,269.64a6.53,6.53,0,1,0,6.54,6.53A6.54,6.54,0,0,0,169.78,269.64Zm0,10.88a4.35,4.35,0,1,1,4.36-4.35A4.36,4.36,0,0,1,169.78,280.52Z" transform="translate(-32.46 -29.81)"/><path d="M182.32,223.29a6.53,6.53,0,1,0,6.54,6.53A6.54,6.54,0,0,0,182.32,223.29Zm0,10.88a4.35,4.35,0,1,1,4.36-4.35A4.35,4.35,0,0,1,182.32,234.17Z" transform="translate(-32.46 -29.81)"/><polyline class="cls-5" points="349.76 218.63 349.76 198.54 336.3 185.07 298.05 185.07 289.82 193.31 289.82 285.59 306.01 301.79 345.41 301.79 354.91 292.28 354.91 262.17 344.97 252.22"/><path class="cls-4" d="M382.22,248.44a6.55,6.55,0,1,0,6.54,6.54A6.54,6.54,0,0,0,382.22,248.44Zm0,10.9a4.36,4.36,0,1,1,4.36-4.36A4.36,4.36,0,0,1,382.22,259.34Z" transform="translate(-32.46 -29.81)"/><path class="cls-4" d="M373.78,271.53a6.54,6.54,0,1,0,6.54,6.54A6.54,6.54,0,0,0,373.78,271.53Zm0,10.9a4.36,4.36,0,1,1,4.35-4.36A4.36,4.36,0,0,1,373.78,282.43Z" transform="translate(-32.46 -29.81)"/><polyline class="cls-1" points="301.86 214.89 296.93 209.96 296.93 201.94 306.26 192.62 323.61 192.62 340.94 209.93 340.94 233.4 332.07 242.25 314.59 242.25 309.45 237.12"/><polyline class="cls-1" points="303.05 264.28 296.93 264.28 296.93 282.51 309.26 294.82 340.14 294.82 346.53 288.45 346.53 268.63 330.75 252.87 322.36 252.87"/><path d="M341.14,287.56a6.53,6.53,0,1,0,6.54,6.53A6.53,6.53,0,0,0,341.14,287.56Zm0,10.88a4.35,4.35,0,1,1,4.36-4.35A4.35,4.35,0,0,1,341.14,298.44Z" transform="translate(-32.46 -29.81)"/><path d="M338,241.84a6.53,6.53,0,1,0,6.54,6.52A6.53,6.53,0,0,0,338,241.84Zm0,10.87a4.35,4.35,0,1,1,4.36-4.35A4.35,4.35,0,0,1,338,252.71Z" transform="translate(-32.46 -29.81)"/><path d="M338,256.68a6.53,6.53,0,1,0,6.54,6.53A6.53,6.53,0,0,0,338,256.68Zm0,10.88a4.35,4.35,0,1,1,4.36-4.35A4.36,4.36,0,0,1,338,267.56Z" transform="translate(-32.46 -29.81)"/><path d="M349.58,276.16a6.53,6.53,0,1,0,6.55,6.52A6.53,6.53,0,0,0,349.58,276.16Zm0,10.87a4.35,4.35,0,1,1,4.36-4.35A4.35,4.35,0,0,1,349.58,287Z" transform="translate(-32.46 -29.81)"/><polyline class="cls-5" points="208.01 190.37 215.2 197.62 215.2 295.57 221.58 301.99 266.67 301.99"/><path class="cls-4" d="M236.8,209.9a6.59,6.59,0,1,0,6.54,6.58A6.56,6.56,0,0,0,236.8,209.9Zm0,11a4.39,4.39,0,1,1,4.35-4.39A4.37,4.37,0,0,1,236.8,220.87Z" transform="translate(-32.46 -29.81)"/><path class="cls-4" d="M304.29,325.22a6.59,6.59,0,1,0,6.54,6.58A6.56,6.56,0,0,0,304.29,325.22Zm0,11a4.39,4.39,0,1,1,4.36-4.39A4.37,4.37,0,0,1,304.29,336.19Z" transform="translate(-32.46 -29.81)"/><polyline class="cls-1" points="258.27 291.49 254.92 294.83 233.11 295.33 222.72 284.95 222.72 210.14 229.36 203.51"/><path d="M294.2,311.3a6.53,6.53,0,1,0,6.54,6.53A6.54,6.54,0,0,0,294.2,311.3Zm0,10.88a4.35,4.35,0,1,1,4.36-4.35A4.35,4.35,0,0,1,294.2,322.18Z" transform="translate(-32.46 -29.81)"/><path d="M265.56,223.12a6.53,6.53,0,1,0,6.54,6.53A6.54,6.54,0,0,0,265.56,223.12Zm0,10.88a4.35,4.35,0,1,1,4.36-4.35A4.35,4.35,0,0,1,265.56,234Z" transform="translate(-32.46 -29.81)"/><path id="circle-23" data-name="circle" class="cls-6" d="M463.8,512.69a7.69,7.69,0,1,0,7.95,7.68A7.81,7.81,0,0,0,463.8,512.69Zm0,13.12a5.44,5.44,0,1,1,5.62-5.44A5.54,5.54,0,0,1,463.8,525.81Z" transform="translate(-32.46 -29.81)"/><path id="circle-24" data-name="circle" class="cls-6" d="M479,475.41a7.69,7.69,0,1,0,7.95,7.68A7.82,7.82,0,0,0,479,475.41Zm0,13.12a5.44,5.44,0,1,1,5.62-5.44A5.53,5.53,0,0,1,479,488.53Z" transform="translate(-32.46 -29.81)"/><polyline class="cls-5" points="436.03 495.09 444.76 503.54 494.37 503.54 494.37 401.89 471.52 379.8 443.56 379.8 429.98 392.93 429.98 437.67 441.59 448.9"/><path id="circle-25" data-name="circle" class="cls-6" d="M431.51,388.9a7.71,7.71,0,1,0,7.7,7.71A7.71,7.71,0,0,0,431.51,388.9Zm0,13.17a5.46,5.46,0,1,1,5.45-5.46A5.46,5.46,0,0,1,431.51,402.07Z" transform="translate(-32.46 -29.81)"/><path id="circle-26" data-name="circle" class="cls-6" d="M437,462.22a7.71,7.71,0,1,0,7.7,7.71A7.71,7.71,0,0,0,437,462.22Zm0,13.16a5.46,5.46,0,1,1,5.44-5.45A5.45,5.45,0,0,1,437,475.38Z" transform="translate(-32.46 -29.81)"/><polyline class="cls-5" points="392.76 366.8 366.35 366.8 337.67 395.52 337.67 503.54 382.99 503.54 404.86 481.64 404.86 447.82"/><path id="circle-27" data-name="circle" class="cls-6" d="M338.82,477.52a7.78,7.78,0,1,0,7.7,7.78A7.73,7.73,0,0,0,338.82,477.52Zm0,13.28a5.5,5.5,0,1,1,5.44-5.5A5.47,5.47,0,0,1,338.82,490.8Z" transform="translate(-32.46 -29.81)"/><path id="circle-28" data-name="circle" class="cls-6" d="M315.63,398a7.78,7.78,0,1,0,7.7,7.78A7.73,7.73,0,0,0,315.63,398Zm0,13.28a5.5,5.5,0,1,1,5.44-5.5A5.48,5.48,0,0,1,315.63,411.28Z" transform="translate(-32.46 -29.81)"/><polyline class="cls-5" points="283.17 368.19 283.17 364.82 229.14 364.82 229.14 503.51 258.8 503.54 301.71 460.18"/><path id="circle-29" data-name="circle" class="cls-6" d="M154.48,461.64a7.78,7.78,0,1,0,7.7,7.78A7.73,7.73,0,0,0,154.48,461.64Zm0,13.28a5.5,5.5,0,1,1,5.44-5.5A5.47,5.47,0,0,1,154.48,474.92Z" transform="translate(-32.46 -29.81)"/><path id="circle-30" data-name="circle" class="cls-6" d="M164.07,447.61a7.78,7.78,0,1,0,7.7,7.78A7.74,7.74,0,0,0,164.07,447.61Zm0,13.28a5.5,5.5,0,1,1,5.44-5.5A5.47,5.47,0,0,1,164.07,460.89Z" transform="translate(-32.46 -29.81)"/><polyline class="cls-5" points="126.91 420.83 120.36 414.21 120.36 363.82 210.31 363.82 210.31 503.54 122.02 503.54 122.02 447.39"/><path id="circle-31" data-name="circle" class="cls-6" d="M44.24,388.09a7.91,7.91,0,1,0,7.7,7.91A7.81,7.81,0,0,0,44.24,388.09Zm0,13.5A5.6,5.6,0,1,1,49.68,396,5.52,5.52,0,0,1,44.24,401.59Z" transform="translate(-32.46 -29.81)"/><path id="circle-32" data-name="circle" class="cls-6" d="M55.56,417.64a7.92,7.92,0,1,0,7.7,7.91A7.81,7.81,0,0,0,55.56,417.64Zm0,13.51a5.6,5.6,0,1,1,5.45-5.6A5.52,5.52,0,0,1,55.56,431.15Z" transform="translate(-32.46 -29.81)"/><path id="circle-33" data-name="circle" class="cls-6" d="M136.55,400.94a7.91,7.91,0,1,0,7.7,7.91A7.81,7.81,0,0,0,136.55,400.94Zm0,13.51a5.6,5.6,0,1,1,5.44-5.6A5.53,5.53,0,0,1,136.55,414.45Z" transform="translate(-32.46 -29.81)"/><path id="circle-34" data-name="circle" class="cls-6" d="M125.92,508.38a7.91,7.91,0,1,0,7.7,7.91A7.81,7.81,0,0,0,125.92,508.38Zm0,13.5a5.59,5.59,0,1,1,5.44-5.59A5.52,5.52,0,0,1,125.92,521.88Z" transform="translate(-32.46 -29.81)"/><polyline class="cls-5" points="11.78 374.1 11.78 503.54 76.8 503.54 88.66 491.36"/><polyline class="cls-5" points="23.1 388.95 23.1 381.12 36.26 367.6 92.73 367.6 99.33 374.39"/><polyline class="cls-1" points="72.89 475.17 72.89 485.71 62.89 495.69 44.04 495.69 28.04 479.71 28.04 462.28"/><polyline class="cls-1" points="41.02 411.28 34.42 404.69 34.42 386.19 45.2 375.42 77.24 375.42 93.99 392.14 93.99 416.19"/><polyline class="cls-1" points="66.61 431.99 88.22 453.57 88.22 462.85"/><path class="cls-7" d="M77.11,438.19a6.53,6.53,0,1,0,6.54,6.53A6.53,6.53,0,0,0,77.11,438.19Zm0,10.88a4.35,4.35,0,1,1,4.36-4.35A4.35,4.35,0,0,1,77.11,449.07Z" transform="translate(-32.46 -29.81)"/><path class="cls-7" d="M95.66,451.87a6.53,6.53,0,1,0,6.54,6.53A6.53,6.53,0,0,0,95.66,451.87Zm0,10.88A4.35,4.35,0,1,1,100,458.4,4.36,4.36,0,0,1,95.66,462.75Z" transform="translate(-32.46 -29.81)"/><path class="cls-7" d="M126.29,443.72a6.53,6.53,0,1,0,6.54,6.53A6.53,6.53,0,0,0,126.29,443.72Zm0,10.88a4.35,4.35,0,1,1,4.36-4.35A4.35,4.35,0,0,1,126.29,454.6Z" transform="translate(-32.46 -29.81)"/><path class="cls-7" d="M105.34,493.38a6.53,6.53,0,1,0,6.54,6.53A6.53,6.53,0,0,0,105.34,493.38Zm0,10.88a4.35,4.35,0,1,1,4.36-4.35A4.35,4.35,0,0,1,105.34,504.26Z" transform="translate(-32.46 -29.81)"/><path class="cls-7" d="M60.5,480.32A6.53,6.53,0,1,0,67,486.85,6.53,6.53,0,0,0,60.5,480.32Zm0,10.88a4.35,4.35,0,1,1,4.35-4.35A4.36,4.36,0,0,1,60.5,491.2Z" transform="translate(-32.46 -29.81)"/><path class="cls-7" d="M120.47,491.2a6.53,6.53,0,1,0,6.54,6.53A6.53,6.53,0,0,0,120.47,491.2Zm0,10.88a4.35,4.35,0,1,1,4.36-4.35A4.35,4.35,0,0,1,120.47,502.08Z" transform="translate(-32.46 -29.81)"/><path class="cls-7" d="M336.56,458.4a6.53,6.53,0,1,0,6.54,6.53A6.53,6.53,0,0,0,336.56,458.4Zm0,10.88a4.35,4.35,0,1,1,4.36-4.35A4.35,4.35,0,0,1,336.56,469.28Z" transform="translate(-32.46 -29.81)"/><polyline class="cls-1" points="242.56 404.98 236.68 399.2 236.68 373.5 265.48 373.5 304.1 411.5 304.1 430.25"/><polyline class="cls-1" points="294.84 425 294.84 456.75 255.26 495.69 236.21 495.69 236.21 474.09 257.82 452.82"/><path class="cls-7" d="M294.06,472.52a6.29,6.29,0,1,0,6.39,6.29A6.34,6.34,0,0,0,294.06,472.52Zm0,10.48a4.19,4.19,0,1,1,4.26-4.19A4.22,4.22,0,0,1,294.06,483Z" transform="translate(-32.46 -29.81)"/><path class="cls-7" d="M327.3,443.86a6.29,6.29,0,1,0,6.39,6.29A6.34,6.34,0,0,0,327.3,443.86Zm0,10.48a4.19,4.19,0,1,1,4.25-4.19A4.23,4.23,0,0,1,327.3,454.34Z" transform="translate(-32.46 -29.81)"/><path class="cls-7" d="M278.85,432.28a6.29,6.29,0,1,0,6.39,6.29A6.34,6.34,0,0,0,278.85,432.28Zm0,10.48a4.19,4.19,0,1,1,4.26-4.19A4.23,4.23,0,0,1,278.85,442.76Z" transform="translate(-32.46 -29.81)"/><polyline class="cls-1" points="451.71 394.05 457.6 388.62 466.29 388.62 487.1 407.84 482.21 412.36"/><polyline class="cls-1" points="445.24 419.14 461.37 435.27 478.62 435.27 486.85 443.51 486.85 482.38 473.25 495.99 454.36 495.99 429.84 471.47 429.84 468.1"/><path class="cls-7" d="M481.37,420.55a6.39,6.39,0,1,0,6.38,6.39A6.39,6.39,0,0,0,481.37,420.55Zm0,10.64a4.26,4.26,0,1,1,4.25-4.25A4.25,4.25,0,0,1,481.37,431.19Z" transform="translate(-32.46 -29.81)"/><path class="cls-7" d="M511.08,439.68a6.39,6.39,0,1,0,6.38,6.38A6.39,6.39,0,0,0,511.08,439.68Zm0,10.63a4.25,4.25,0,1,1,4.25-4.25A4.25,4.25,0,0,1,511.08,450.31Z" transform="translate(-32.46 -29.81)"/><path class="cls-7" d="M462.3,486.48a6.39,6.39,0,1,0,6.38,6.38A6.38,6.38,0,0,0,462.3,486.48Zm0,10.64a4.26,4.26,0,1,1,4.25-4.26A4.25,4.25,0,0,1,462.3,497.12Z" transform="translate(-32.46 -29.81)"/><path class="cls-7" d="M474,438.86a6.38,6.38,0,1,0,6.38,6.38A6.38,6.38,0,0,0,474,438.86Zm0,10.63a4.25,4.25,0,1,1,4.25-4.25A4.25,4.25,0,0,1,474,449.49Z" transform="translate(-32.46 -29.81)"/><polyline class="cls-1" points="350.17 423.98 350.17 396.09 371.24 374.27 381.59 374.27 384.49 377.27"/><polyline class="cls-1" points="367.83 433.04 345.1 456.59 345.1 495.69 370.64 495.69 389.45 476.2"/><path class="cls-7" d="M382.63,453a6.39,6.39,0,1,0,6.17,6.39A6.28,6.28,0,0,0,382.63,453Zm0,10.65a4.26,4.26,0,1,1,4.11-4.26A4.19,4.19,0,0,1,382.63,463.65Z" transform="translate(-32.46 -29.81)"/><path class="cls-7" d="M420.22,404.54a6.39,6.39,0,1,0,6.17,6.39A6.28,6.28,0,0,0,420.22,404.54Zm0,10.65a4.26,4.26,0,1,1,4.11-4.26A4.19,4.19,0,0,1,420.22,415.19Z" transform="translate(-32.46 -29.81)"/><path class="cls-7" d="M404.09,453a6.39,6.39,0,1,0,6.17,6.39A6.28,6.28,0,0,0,404.09,453Zm0,10.65a4.26,4.26,0,1,1,4.11-4.26A4.19,4.19,0,0,1,404.09,463.65Z" transform="translate(-32.46 -29.81)"/><path class="cls-7" d="M425.5,495.82a6.39,6.39,0,1,0,6.17,6.39A6.28,6.28,0,0,0,425.5,495.82Zm0,10.65a4.26,4.26,0,1,1,4.11-4.26A4.19,4.19,0,0,1,425.5,506.47Z" transform="translate(-32.46 -29.81)"/><polyline class="cls-1" points="168.35 406.72 168.35 387.49 183.01 373.45 142.75 373.45 142.75 390.8 155.26 390.8 155.26 467.63 162.67 474.73"/><polyline class="cls-1" points="168.35 431.83 168.35 466.38 190.05 487.77 190.05 490.62 149.47 490.62"/><path class="cls-7" d="M200.81,450.17a6.45,6.45,0,1,0,6.54,6.45A6.49,6.49,0,0,0,200.81,450.17Zm0,10.75a4.3,4.3,0,1,1,4.35-4.3A4.33,4.33,0,0,1,200.81,460.92Z" transform="translate(-32.46 -29.81)"/><path class="cls-7" d="M200.81,434.35a6.45,6.45,0,1,0,6.54,6.45A6.49,6.49,0,0,0,200.81,434.35Zm0,10.75a4.3,4.3,0,1,1,4.35-4.3A4.33,4.33,0,0,1,200.81,445.1Z" transform="translate(-32.46 -29.81)"/><path class="cls-7" d="M198.85,501.67a6.45,6.45,0,1,0,6.54,6.45A6.5,6.5,0,0,0,198.85,501.67Zm0,10.74a4.3,4.3,0,1,1,4.36-4.29A4.32,4.32,0,0,1,198.85,512.41Z" transform="translate(-32.46 -29.81)"/><path class="cls-7" d="M176.49,514a6.45,6.45,0,1,0,6.54,6.44A6.49,6.49,0,0,0,176.49,514Zm0,10.74a4.3,4.3,0,1,1,4.36-4.3A4.32,4.32,0,0,1,176.49,524.73Z" transform="translate(-32.46 -29.81)"/></g></svg>