<?xml version="1.0" encoding="UTF-8" standalone="no"?>
<svg
   id="Ebene_1"
   data-name="Ebene 1"
   viewBox="0 0 283.46036 83.999745"
   version="1.1"
   sodipodi:docname="DCSO_Logo_RZ_Marine_RGB.svg"
   width="216.72897mm"
   height="64.224777mm"
   inkscape:version="1.3.2 (091e20e, 2023-11-25)"
   xmlns:inkscape="http://www.inkscape.org/namespaces/inkscape"
   xmlns:sodipodi="http://sodipodi.sourceforge.net/DTD/sodipodi-0.dtd"
   xmlns:xlink="http://www.w3.org/1999/xlink"
   xmlns="http://www.w3.org/2000/svg"
   xmlns:svg="http://www.w3.org/2000/svg">
  <sodipodi:namedview
     id="namedview6"
     pagecolor="#ffffff"
     bordercolor="#999999"
     borderopacity="1"
     inkscape:showpageshadow="2"
     inkscape:pageopacity="0"
     inkscape:pagecheckerboard="0"
     inkscape:deskcolor="#d1d1d1"
     inkscape:zoom="0.29880894"
     inkscape:cx="363.10827"
     inkscape:cy="30.11958"
     inkscape:window-width="1312"
     inkscape:window-height="449"
     inkscape:window-x="0"
     inkscape:window-y="38"
     inkscape:window-maximized="0"
     inkscape:current-layer="g6"
     inkscape:document-units="mm" />
  <defs
     id="defs1">
    <color-profile
       name="Adobe-RGB-1998"
       xlink:href="file:///System/Library/ColorSync/Profiles/AdobeRGB1998.icc"
       id="color-profile1" />
    <style
       id="style1">.cls-1{fill:#003b61;}</style>
  </defs>
  <g
     id="g6"
     inkscape:label="logo dcso">
    <path
       class="cls-1"
       d="m 8.93,37.649872 a 33.07,33.07 0 0 1 65.58,0 h 8.93 a 41.94,41.94 0 0 0 -83.44,0 z"
       id="path1" />
    <path
       class="cls-1"
       d="m 74.51,46.349872 a 33.07,33.07 0 0 1 -65.58,0 H 0 a 41.94,41.94 0 0 0 83.44,0 z"
       id="path2" />
    <polygon
       class="cls-1"
       points="36.22,59.94 18.23,41.95 36.22,23.95 41.72,29.45 29.23,41.95 41.72,54.44 "
       id="polygon2"
       transform="translate(0,0.0698716)" />
    <polygon
       class="cls-1"
       points="47.23,59.94 41.72,54.44 54.22,41.95 41.72,29.45 47.23,23.95 65.22,41.95 "
       id="polygon3"
       transform="translate(0,0.0698716)" />
    <path
       class="cls-1"
       d="m 148.29,41.819872 c 0,12.5 -10,21.88 -23.21,21.88 h -16.65 v -43.37 h 16.65 c 13.26,0 23.21,9.25 23.21,21.49 z m -8.8,0 c 0,-7.46 -6.44,-13.45 -14.41,-13.45 h -8 v 27.28 h 8 c 7.97,0 14.41,-6.11 14.41,-13.83 z"
       id="path3" />
    <path
       class="cls-1"
       d="m 186.42,46.349872 h 8.93 c -2,11 -10.2,18.11 -21.24,18.11 -12.53,0 -22.53,-9.31 -22.53,-22.44 0,-13.13 10,-22.45 22.53,-22.45 11,0 19.26,7.07 21.24,18.11 h -8.93 c -1.59,-6.38 -5.93,-10 -12.31,-10 -7.9,0 -13.77,5.8 -13.77,14.35 0,8.55 5.87,14.34 13.77,14.34 6.38,-0.01 10.72,-3.64 12.31,-10.02 z"
       id="path4" />
    <path
       class="cls-1"
       d="m 283.46,42.019872 a 22.58,22.58 0 1 1 -22.57,-22.45 22.42,22.42 0 0 1 22.57,22.45 z m -8.8,0 c 0,-7.91 -5.86,-14.35 -13.77,-14.35 -7.91,0 -13.78,6.44 -13.78,14.35 0,7.91 5.87,14.35 13.78,14.35 7.91,0 13.77,-6.45 13.77,-14.35 z"
       id="path5" />
    <path
       class="cls-1"
       d="m 234.07,33.519872 h -8.49 c 0,-3.48 -3.07,-6.71 -8.14,-6.71 -4.88,0 -8.21,2 -8.21,5.6 0,3.15 3.34,3.71 6.73,4.39 l 5.25,1.05 c 8.71,1.72 13.71,5.86 13.71,13 0,8.27 -6.91,13.64 -17.48,13.64 -11,0 -18.77,-5.74 -19.39,-15.07 h 8.9 c 0.74,4.57 4.81,7.35 11.05,7.35 4.94,0 7.78,-1.73 7.78,-4.75 0,-2.6 -1.17,-4.82 -5.93,-5.68 l -7.28,-1.36 c -7.48,-1.42 -12.73,-5.07 -12.73,-11.8 0,-8.27 6.8,-13.58 16.93,-13.58 7.54,-0.03 16.88,3.71 17.3,13.92 z"
       id="path6" />
  </g>
</svg>
