<?xml version="1.0" encoding="UTF-8" standalone="no"?>
<svg
   id="Ebene_1"
   data-name="Ebene 1"
   viewBox="0 0 127.82001 28.910002"
   version="1.1"
   sodipodi:docname="dpunkt.logo rot_schwarz.svg"
   width="199.98502mm"
   height="45.232098mm"
   inkscape:version="1.3.2 (091e20e, 2023-11-25)"
   xmlns:inkscape="http://www.inkscape.org/namespaces/inkscape"
   xmlns:sodipodi="http://sodipodi.sourceforge.net/DTD/sodipodi-0.dtd"
   xmlns:xlink="http://www.w3.org/1999/xlink"
   xmlns="http://www.w3.org/2000/svg"
   xmlns:svg="http://www.w3.org/2000/svg">
  <sodipodi:namedview
     id="namedview15"
     pagecolor="#ffffff"
     bordercolor="#999999"
     borderopacity="1"
     inkscape:showpageshadow="2"
     inkscape:pageopacity="0"
     inkscape:pagecheckerboard="0"
     inkscape:deskcolor="#d1d1d1"
     inkscape:zoom="0.3661333"
     inkscape:cx="383.74002"
     inkscape:cy="35.506194"
     inkscape:window-width="1312"
     inkscape:window-height="449"
     inkscape:window-x="0"
     inkscape:window-y="38"
     inkscape:window-maximized="0"
     inkscape:current-layer="g16"
     inkscape:document-units="mm" />
  <defs
     id="defs1">
    <color-profile
       name="Adobe-RGB-1998"
       xlink:href="file:///System/Library/ColorSync/Profiles/AdobeRGB1998.icc"
       id="color-profile1" />
    <style
       id="style1">
      .cls-1 {
        fill: #d20a11;
      }

      .cls-1, .cls-2 {
        stroke-width: 0px;
      }

      .cls-2 {
        fill: #1d1d1b;
      }
    </style>
  </defs>
  <g
     id="g16"
     inkscape:label="logo dpunkt">
    <g
       id="Wortmarke">
      <path
         class="cls-2"
         d="m 88.91,18.13 c 0,0.64 -0.51,1.17 -1.16,1.17 -0.65,0 -1.17,-0.53 -1.17,-1.17 0,-0.64 0.53,-1.17 1.17,-1.17 0.64,0 1.16,0.53 1.16,1.17 z"
         id="path1" />
      <path
         class="cls-2"
         d="m 93.14,19.13 h -0.99 l -2.67,-7.1 h 1.03 l 1.77,4.99 c 0.16,0.46 0.27,0.8 0.39,1.21 h 0.01 c 0.11,-0.39 0.24,-0.77 0.39,-1.17 l 1.81,-5.03 h 0.99 z"
         id="path2" />
      <path
         class="cls-2"
         d="m 102.38,18.82 c -0.73,0.26 -1.52,0.43 -2.34,0.43 -2.1,0 -3.23,-1.14 -3.23,-3.64 0,-2.11 1.14,-3.69 3.07,-3.69 1.93,0 2.73,1.33 2.73,2.86 0,0.37 -0.03,0.69 -0.03,0.69 h -4.83 c -0.04,2.1 0.79,3.03 2.42,3.03 0.69,0 1.37,-0.13 2.07,-0.39 z m -0.73,-4.03 c 0.03,-1.37 -0.67,-2.16 -1.83,-2.16 -1.06,0 -1.86,0.74 -2.03,2.16 z"
         id="path3" />
      <path
         class="cls-2"
         d="m 108.04,12.8 c -1.61,-0.26 -2.39,1.03 -2.39,3.5 v 2.83 h -0.9 v -7.1 h 0.91 c 0,0.5 -0.06,1.23 -0.19,1.86 h 0.03 c 0.27,-1.04 1.02,-2.16 2.57,-1.96 l -0.04,0.87 z"
         id="path4" />
      <path
         class="cls-2"
         d="m 112.63,19.13 c 0,0 -0.43,0.1 -0.93,0.1 -1.26,0 -1.76,-0.57 -1.76,-1.87 V 8.7 h 0.9 v 8.53 c 0,0.87 0.27,1.23 1.01,1.23 0.39,0 0.77,-0.09 0.77,-0.09 v 0.76 z"
         id="path5" />
      <path
         class="cls-2"
         d="m 118.48,19.13 c 0,-0.57 0.01,-1.14 0.09,-1.56 h -0.03 c -0.34,0.91 -1.27,1.67 -2.51,1.67 -1.1,0 -1.93,-0.7 -1.93,-1.84 0,-1.41 1.5,-2.4 4.37,-2.4 v -0.47 c 0,-1.24 -0.4,-1.89 -1.67,-1.89 -0.69,0 -1.5,0.21 -2.16,0.5 l -0.17,-0.73 c 0.73,-0.29 1.57,-0.5 2.43,-0.5 1.84,0 2.47,0.97 2.47,2.47 v 2.54 c 0,0.73 0.01,1.56 0.03,2.2 h -0.91 z m -0.02,-3.44 c -2.69,0 -3.46,0.77 -3.46,1.57 0,0.71 0.49,1.24 1.24,1.24 1.33,0 2.21,-1.34 2.21,-2.6 v -0.21 z"
         id="path6" />
      <path
         class="cls-2"
         d="m 126.46,12.75 c 0.39,0.43 0.59,0.99 0.59,1.59 0,1.46 -0.97,2.61 -2.8,2.61 -0.33,0 -0.61,-0.04 -0.89,-0.11 -0.36,0.21 -0.53,0.47 -0.53,0.7 0,0.36 0.31,0.59 1.17,0.61 l 1.23,0.04 c 1.79,0.06 2.59,0.86 2.59,2.07 0,1.53 -1.4,2.57 -3.57,2.57 -1.83,0 -2.96,-0.77 -2.96,-2.11 0,-0.87 0.59,-1.59 1.26,-2.03 -0.41,-0.21 -0.63,-0.56 -0.63,-1 0,-0.44 0.26,-0.84 0.74,-1.16 -0.71,-0.46 -1.04,-1.21 -1.04,-2 0,-1.44 0.99,-2.61 2.8,-2.61 0.31,0 0.63,0.04 0.91,0.11 h 2.39 v 0.71 h -1.26 z m -3.13,6.18 c -0.73,0.44 -1.1,1.03 -1.1,1.64 0,1 0.86,1.53 2.16,1.53 1.66,0 2.5,-0.73 2.5,-1.73 0,-0.81 -0.51,-1.33 -1.9,-1.37 l -1.24,-0.04 c -0.16,0 -0.29,-0.01 -0.41,-0.03 z m 1,-6.31 c -1.14,0 -1.81,0.77 -1.81,1.81 0,1.04 0.67,1.81 1.81,1.81 1.14,0 1.81,-0.77 1.81,-1.81 0,-1.04 -0.67,-1.81 -1.81,-1.81 z"
         id="path7" />
      <path
         class="cls-2"
         d="m 41.11,19.15 c 0,-0.36 0.03,-0.81 0.09,-1.2 h -0.03 c -0.37,0.79 -1.16,1.34 -2.24,1.34 -1.73,0 -2.59,-1.3 -2.59,-3.33 0,-2.4 1.4,-4.06 3.76,-4.06 0.3,0 0.59,0.01 0.9,0.06 V 10.1 C 40.66,10.04 40.17,9.99 39.76,9.96 V 8.82 c 0.9,-0.11 2.01,-0.16 3.06,-0.13 v 9.04 c 0.34,0.06 0.81,0.11 1.17,0.14 v 1.14 c -0.83,0.11 -1.93,0.16 -2.87,0.13 z M 41,13.46 c -0.33,-0.07 -0.64,-0.11 -0.96,-0.11 -1.04,0 -1.79,0.66 -1.79,2.41 0,1.33 0.39,2.01 1.21,2.01 0.96,0 1.53,-1.11 1.53,-2.33 v -1.99 z"
         id="path8" />
      <path
         class="cls-2"
         d="m 48.74,19.23 c -0.34,0 -0.61,-0.01 -0.91,-0.06 v 2.34 c 0.43,0.03 0.87,0.1 1.24,0.17 v 1.16 h -4.21 v -1.16 c 0.37,-0.07 0.73,-0.14 1.16,-0.17 v -8.08 c -0.34,-0.06 -0.76,-0.11 -1.16,-0.14 v -1.14 c 0.87,-0.11 1.93,-0.16 2.86,-0.13 0,0.34 -0.03,0.83 -0.09,1.2 h 0.03 c 0.4,-0.83 1.16,-1.33 2.24,-1.33 1.67,0 2.59,1.21 2.59,3.31 0,2.47 -1.29,4.03 -3.74,4.03 z m 0.61,-5.84 c -0.96,0 -1.53,1.11 -1.53,2.33 v 1.97 c 0.29,0.09 0.59,0.13 0.96,0.13 1.04,0 1.79,-0.66 1.79,-2.41 0,-1.33 -0.39,-2.01 -1.21,-2.01 z"
         id="path9" />
      <path
         class="cls-2"
         d="m 59.29,19.15 c 0,-0.33 0.01,-0.87 0.09,-1.27 h -0.03 c -0.41,0.83 -1.24,1.41 -2.4,1.41 -1.61,0 -2.13,-1.03 -2.13,-2.27 v -3.59 c -0.34,-0.06 -0.81,-0.11 -1.23,-0.14 v -1.14 c 0.94,-0.11 2.07,-0.16 3.06,-0.13 v 4.56 c 0,0.74 0.2,1.19 0.87,1.19 0.93,0 1.66,-1.06 1.66,-2.3 v -3.43 h 1.81 v 5.7 c 0.34,0.06 0.83,0.11 1.24,0.14 v 1.14 c -0.9,0.11 -2,0.16 -2.94,0.13 z"
         id="path10" />
      <path
         class="cls-2"
         d="m 83.27,19.28 c -1.57,0 -2.06,-0.57 -2.06,-2.23 v -3.6 h -1.23 v -1.41 h 1.23 V 9.85 l 1.81,-0.49 v 2.67 h 1.73 v 1.41 h -1.73 v 3.11 c 0,0.91 0.21,1.17 0.84,1.17 0.3,0 0.57,-0.03 0.81,-0.1 l 0.13,1.44 c -0.46,0.11 -1.04,0.2 -1.54,0.2 z"
         id="path11" />
      <path
         class="cls-2"
         d="M 78.51,17.79 76.6,15.27 79.1,12.03 H 76.87 L 74.8,14.99 V 8.69 C 73.74,8.66 72.64,8.7 71.73,8.82 v 1.14 c 0.41,0.03 0.9,0.09 1.24,0.14 v 9.03 h 1.83 v -3.25 l 2.36,3.25 h 2.37 v -1.19 c -0.34,-0.07 -0.7,-0.13 -1.01,-0.16 z"
         id="path12" />
      <path
         class="cls-2"
         d="m 70.4,17.79 v -3.64 c 0,-1.24 -0.51,-2.27 -2.11,-2.27 -1.16,0 -1.99,0.59 -2.42,1.43 h -0.01 c 0.07,-0.39 0.1,-0.94 0.1,-1.29 C 65,11.99 63.9,12.03 63,12.15 v 1.14 c 0.41,0.03 0.9,0.09 1.24,0.14 v 5.7 h 1.81 V 15.7 c 0,-1.24 0.73,-2.3 1.66,-2.3 0.67,0 0.87,0.44 0.87,1.19 v 4.54 c 0,0 0,0 0,0 h 2.97 V 17.97 C 71.22,17.88 70.81,17.81 70.4,17.78 Z"
         id="path13" />
    </g>
    <polygon
       id="farbig"
       class="cls-1"
       points="0,0 28.91,0 28.91,28.91 0,28.91 " />
    <g
       id="schwarz">
      <polygon
         class="cls-2"
         points="15.08,28.91 28.91,28.91 28.91,0 22.41,0 22.41,3.32 25.66,3.32 25.65,25.69 15.08,25.69 "
         id="polygon13" />
      <polygon
         class="cls-2"
         points="7.48,9.39 7.48,21.84 10.77,21.84 10.77,12.73 21.38,12.73 21.38,9.39 "
         id="polygon14" />
      <polygon
         class="cls-2"
         points="15.08,15.46 21.38,15.46 21.38,21.84 15.08,21.84 "
         id="polygon15" />
    </g>
  </g>
</svg>
