<?xml version="1.0" encoding="UTF-8" standalone="no"?>
<!-- Generator: Adobe Illustrator 19.0.0, SVG Export Plug-In . SVG Version: 6.00 Build 0)  -->

<svg
   version="1.1"
   id="GoogleLogo_x5F_FullColor_x5F_rgb_21_"
   x="0px"
   y="0px"
   width="219.60417mm"
   height="71.598892mm"
   viewBox="0 0 830.00002 270.61"
   enable-background="new 0 0 830 270.61"
   xml:space="preserve"
   sodipodi:docname="logo_Google_FullColor_830x271px.svg"
   inkscape:version="1.3.2 (091e20e, 2023-11-25)"
   xmlns:inkscape="http://www.inkscape.org/namespaces/inkscape"
   xmlns:sodipodi="http://sodipodi.sourceforge.net/DTD/sodipodi-0.dtd"
   xmlns:xlink="http://www.w3.org/1999/xlink"
   xmlns="http://www.w3.org/2000/svg"
   xmlns:svg="http://www.w3.org/2000/svg"><defs
   id="defs6"><color-profile
     name="Adobe-RGB-1998"
     xlink:href="file:///System/Library/ColorSync/Profiles/AdobeRGB1998.icc"
     id="color-profile1" /></defs><sodipodi:namedview
   id="namedview6"
   pagecolor="#ffffff"
   bordercolor="#999999"
   borderopacity="1"
   inkscape:showpageshadow="2"
   inkscape:pageopacity="0"
   inkscape:pagecheckerboard="0"
   inkscape:deskcolor="#d1d1d1"
   inkscape:zoom="0.52289157"
   inkscape:cx="415.95622"
   inkscape:cy="135.78341"
   inkscape:window-width="1312"
   inkscape:window-height="449"
   inkscape:window-x="0"
   inkscape:window-y="38"
   inkscape:window-maximized="0"
   inkscape:current-layer="GoogleLogo_x5F_FullColor_x5F_rgb_21_"
   inkscape:document-units="mm" />
<g
   id="_x38_30x271px"
   inkscape:label="logo google">
	<path
   fill="#4285f4"
   d="M 107,124.51 V 95.83 h 96 c 0.98,5.05 1.55,11.07 1.55,17.58 0,21.5 -5.89,48.13 -24.83,67.07 -18.43,19.2 -41.99,29.44 -73.22,29.44 C 48.64,209.93 0,162.82 0,104.96 0,47.11 48.64,0 106.5,0 c 32,0 54.79,12.54 71.94,28.93 L 158.22,49.15 C 145.93,37.63 129.29,28.67 106.51,28.67 c -42.24,0 -75.27,34.05 -75.27,76.29 0,42.24 33.03,76.29 75.27,76.29 27.39,0 43.01,-11.01 52.99,-20.99 8.14,-8.13 13.49,-19.8 15.57,-35.76 z"
   id="path1" />
	<path
   fill="#e94235"
   d="m 350.84,142.34 c 0,38.91 -30.46,67.59 -67.84,67.59 -37.38,0 -67.84,-28.67 -67.84,-67.59 0,-39.17 30.46,-67.59 67.84,-67.59 37.38,0.01 67.84,28.42 67.84,67.59 z m -29.69,0 c 0,-24.32 -17.66,-40.96 -38.14,-40.96 -20.48,0 -38.15,16.64 -38.15,40.96 0,24.06 17.66,40.96 38.15,40.96 20.47,0 38.14,-16.89 38.14,-40.96 z"
   id="path2" />
	<path
   fill="#fabb05"
   d="m 498.84,142.34 c 0,38.91 -30.46,67.59 -67.84,67.59 -37.38,0 -67.84,-28.67 -67.84,-67.59 0,-39.17 30.46,-67.59 67.84,-67.59 37.38,0.01 67.84,28.42 67.84,67.59 z m -29.69,0 c 0,-24.32 -17.66,-40.96 -38.14,-40.96 -20.48,0 -38.15,16.64 -38.15,40.96 0,24.06 17.66,40.96 38.15,40.96 20.47,0 38.14,-16.89 38.14,-40.96 z"
   id="path3" />
	<path
   fill="#4285f4"
   d="M 640.7,78.85 V 200.2 c 0,49.92 -29.44,70.4 -64.26,70.4 -32.77,0 -52.48,-22.02 -59.91,-39.94 l 25.86,-10.75 c 4.61,11.01 15.87,24.07 34.05,24.07 22.27,0 36.1,-13.83 36.1,-39.68 v -9.73 h -1.02 c -6.66,8.19 -19.46,15.36 -35.59,15.36 -33.79,0 -64.77,-29.44 -64.77,-67.33 0,-38.15 30.98,-67.84 64.77,-67.84 16.13,0 28.93,7.17 35.59,15.11 h 1.02 V 78.85 Z m -26.11,63.75 c 0,-23.81 -15.87,-41.22 -36.1,-41.22 -20.48,0 -37.63,17.41 -37.63,41.22 0,23.55 17.15,40.71 37.63,40.71 20.22,-0.01 36.1,-17.16 36.1,-40.71 z"
   id="path4" />
	<path
   fill="#34a853"
   d="m 691,7.83 v 198 h -29.7 v -198 z"
   id="path5" />
	<path
   fill="#e94235"
   d="m 805.68,164.62 23.04,15.36 c -7.43,11.01 -25.35,29.95 -56.32,29.95 -38.4,0 -67.07,-29.7 -67.07,-67.59 0,-40.2 28.93,-67.59 63.75,-67.59 35.07,0 52.23,27.91 57.86,43.01 l 3.07,7.68 -90.37,37.38 c 6.91,13.57 17.67,20.48 32.77,20.48 15.09,0 25.59,-7.42 33.27,-18.68 z m -70.92,-24.33 60.42,-25.09 c -3.33,-8.45 -13.31,-14.34 -25.09,-14.34 -15.1,0.01 -36.09,13.32 -35.33,39.43 z"
   id="path6" />
</g>
</svg>
