<?xml version="1.0" encoding="UTF-8" standalone="no"?>
<svg
   version="1.1"
   id="logo"
   x="0px"
   y="0px"
   viewBox="0 0 845.03995 431.99998"
   xml:space="preserve"
   width="223.58321mm"
   height="114.29985mm"
   xmlns:xlink="http://www.w3.org/1999/xlink"
   xmlns="http://www.w3.org/2000/svg"
   xmlns:svg="http://www.w3.org/2000/svg">
  <defs
   id="defs4"><color-profile
     name="Adobe-RGB-1998"
     xlink:href="file:///System/Library/ColorSync/Profiles/AdobeRGB1998.icc"
     id="color-profile2" /></defs>
  <style
   type="text/css"
   id="style1">
    .st0{fill:#CE1E1E;}
    .st1{fill:#FFFFFF;}
  </style>

  <g
   id="louis">
    <rect
   class="st0"
   width="845.03998"
   height="432"
   id="rect1"
   x="0"
   y="0" />
    <path
   class="st1"
   d="m 366.51,225.64 c 7.41668,-23.02844 15.56475,-54.97949 -8.48166,-71.34603 -31.08115,-20.12526 -76.15912,-17.52129 -105.16788,5.28457 -34.52209,31.8987 -40.57876,81.33407 -54.68781,123.78454 -1.74415,9.29883 17.4113,2.50204 25.03397,4.5871 31.81341,-6.23157 -14.39738,40.36843 5.53093,46.8562 39.42317,12.50492 93.44071,4.23004 112.09045,-37.3028 11.76516,-22.70171 17.5117,-47.79322 25.682,-71.86358 z m -41.74,-24.4 c -10.8205,32.81903 -19.18759,66.72166 -32.85372,98.43541 -19.20957,33.97074 -64.35149,1.97233 -40.96128,-28.68416 12.07065,-31.88374 16.17,-68.39687 36.69392,-96.13492 19.70403,-20.67769 50.59497,0.99594 37.12108,26.38367 z"
   id="o" /><g
   id="g4">
  </g>
  <path
   class="st1"
   d="m 743.06,145.24 c -31.77162,-16.74994 -74.57705,-9.22096 -100.83763,14.44662 -21.47906,19.32857 -35.03981,62.95838 -2.40446,78.65068 25.9208,9.21754 64.59478,35.89754 33.54304,63.5263 -18.80714,18.55451 -41.94409,-6.02709 -29.42345,-26.42928 -16.63047,4.37159 -49.29364,-11.03659 -51.46919,11.2849 -6.88464,23.02191 10.21072,45.3347 33.30404,48.58919 37.73596,8.18162 86.35516,-1.23249 103.92536,-39.66776 9.52289,-17.47534 13.69526,-42.83236 -4.5043,-56.45204 -16.62404,-17.51442 -54.26204,-20.63694 -52.57599,-50.34605 0.0606,-22.8937 41.80517,-30.49364 37.34572,-2.45894 -7.99466,15.77241 15.61327,7.50291 24.4545,9.54638 13.07973,0.14436 30.21214,3.93157 26.03016,-16.86547 1.94067,-13.98387 -5.37354,-27.01764 -17.3878,-33.82453 z"
   id="s" />
    <path
   id="idot"
   class="st1"
   style="fill:#ffffff"
   d="m 635.65,90.96 -48.9,-0.04 -10.93,34.44 49.22,-0.03 z" />
    <path
   id="L"
   class="st1"
   style="fill:#ffffff"
   d="m 211.47,78.09 -51.79,-0.16 -79.14,257.89 124.69,-0.3 12.15,-38.2 h -72.19 z" />
    <path
   id="i"
   class="st1"
   style="fill:#ffffff"
   d="m 570.94,141.29 -60.95,194.06 h 49.88 l 60.65,-194.06 z" />
    <path
   class="st1"
   d="m 551.57,141.25 c -16.52667,0 -33.05333,0 -49.58,0 -15.54905,48.18521 -29.5955,96.91579 -46.11481,144.74981 -8.96494,28.52295 -62.34819,21.76823 -42.34769,-11.00356 13.8875,-44.56875 27.775,-89.1375 41.6625,-133.70625 -15.77667,0 -31.55333,0 -47.33,0 -15.60453,52.35803 -34.7581,103.89155 -47.24254,157.03987 -5.67364,41.04659 46.739,46.26572 73.01243,29.32994 13.26482,-10.07019 11.72006,-3.02531 7.42011,7.65019 16.59495,-4.29775 46.77055,9.76295 52.7225,-9.09656 C 513.03833,264.55896 532.30417,202.90448 551.57,141.25 Z"
   id="u" />
  </g>
</svg>
