<?xml version="1.0" encoding="UTF-8" standalone="no"?>
<!-- Creator: CorelDRAW 2017 -->

<svg
   xml:space="preserve"
   width="341.48318mm"
   height="63.780453mm"
   version="1.1"
   style="clip-rule:evenodd;fill-rule:evenodd;image-rendering:optimizeQuality;shape-rendering:geometricPrecision;text-rendering:geometricPrecision"
   viewBox="0 0 2075.2801 387.61002"
   id="svg8"
   sodipodi:docname="Logo_iteratec.svg"
   inkscape:version="1.3.2 (091e20e, 2023-11-25)"
   xmlns:inkscape="http://www.inkscape.org/namespaces/inkscape"
   xmlns:sodipodi="http://sodipodi.sourceforge.net/DTD/sodipodi-0.dtd"
   xmlns:xlink="http://www.w3.org/1999/xlink"
   xmlns="http://www.w3.org/2000/svg"
   xmlns:svg="http://www.w3.org/2000/svg"><sodipodi:namedview
   id="namedview8"
   pagecolor="#ffffff"
   bordercolor="#999999"
   borderopacity="1"
   inkscape:showpageshadow="2"
   inkscape:pageopacity="0"
   inkscape:pagecheckerboard="0"
   inkscape:deskcolor="#d1d1d1"
   inkscape:zoom="0.20915663"
   inkscape:cx="1035.1094"
   inkscape:cy="191.24424"
   inkscape:window-width="1312"
   inkscape:window-height="449"
   inkscape:window-x="0"
   inkscape:window-y="38"
   inkscape:window-maximized="0"
   inkscape:current-layer="Ebene_x0020_1"
   inkscape:document-units="mm" />
 <defs
   id="defs1"><color-profile
   name="Adobe-RGB-1998"
   xlink:href="file:///System/Library/ColorSync/Profiles/AdobeRGB1998.icc"
   id="color-profile1" />
  <style
   type="text/css"
   id="style1">
   <![CDATA[
    .fil0 {fill:black;fill-rule:nonzero}
   ]]>
  </style>
 </defs>
 <g
   id="Ebene_x0020_1"
   inkscape:label="logo iteratec"
   inkscape:groupmode="layer">
  <metadata
   id="CorelCorpID_0Corel-Layer" />
  <polygon
   class="fil0"
   points="6.21,381.35 55.85,381.35 62.05,375.14 62.05,124.74 55.85,118.54 6.21,118.54 0,124.74 0,375.14 "
   id="polygon1" />
  <path
   class="fil0"
   d="M 549.59,201.8 H 413.27 l -6.19,-6.2 c 0,-18.61 6.19,-74.43 74.35,-74.43 68.16,0 74.36,55.82 74.36,74.43 z m -61.96,185.81 c 74.36,0 117.73,-43.34 123.93,-92.87 l -6.2,-6.19 h -49.57 l -6.2,6.19 c -12.39,30.96 -37.18,37.15 -61.96,37.15 -74.36,0 -80.55,-61.97 -80.55,-74.39 l 6.19,-6.21 h 204.49 l 6.19,-6.18 v -18.56 c 0,-86.77 -43.37,-161.07 -142.52,-161.07 -99.11,0 -142.43,74.3 -142.43,161.07 0,92.96 49.51,161.06 148.63,161.06 z"
   id="path1" />
  <path
   class="fil0"
   d="m 1660.69,201.8 h -136.32 l -6.2,-6.2 c 0,-18.61 6.2,-74.43 74.36,-74.43 68.16,0 74.36,55.82 74.36,74.43 z m -61.97,185.81 c 74.36,0 117.74,-43.34 123.93,-92.87 l -6.19,-6.19 h -49.57 l -6.2,6.19 c -12.39,30.96 -37.18,37.15 -61.97,37.15 -74.35,0 -80.55,-61.97 -80.55,-74.39 l 6.2,-6.21 h 204.48 l 6.2,-6.18 v -18.56 c 0,-86.77 -43.38,-161.07 -142.52,-161.07 -99.12,0 -142.44,74.3 -142.44,161.07 0,92.96 49.52,161.06 148.63,161.06 z"
   id="path2" />
  <path
   class="fil0"
   d="m 1856.34,224.93 c 0,-67.82 30.83,-104.82 86.32,-104.82 49.32,0 67.82,24.67 73.99,49.33 l 6.16,6.17 h 46.31 l 6.16,-6.17 c -6.16,-55.49 -46.31,-104.81 -132.62,-104.81 -92.48,0 -147.98,61.65 -147.98,160.3 0,98.65 55.5,160.3 147.98,160.3 86.31,0 126.46,-49.32 132.62,-104.81 l -6.16,-6.17 h -46.31 l -6.16,6.17 c -6.17,24.66 -24.67,49.32 -73.99,49.32 -55.49,0 -86.32,-36.99 -86.32,-104.81 z"
   id="path3" />
  <polygon
   class="fil0"
   points="5.73,62.06 55.85,62.06 62.06,56.57 62.06,5.64 55.85,0 6.21,0 0,5.64 0,56.84 "
   id="polygon3" />
  <path
   class="fil0"
   d="m 284.69,62.52 h -68.25 l -6.21,-6.2 V 6.2 L 204.02,0 h -49.64 l -6.21,6.2 c 0,0 0.1,311.24 0.16,313.2 l 6.04,6.05 h 49.67 l 6.29,-6.33 -0.1,-194.54 6.21,-6.22 h 68.25 l 6.21,-6.2 V 68.72 Z"
   id="path4" />
  <polygon
   class="fil0"
   points="922.55,118.37 916.27,124.64 916.27,172.3 922.55,178.56 972.84,178.56 979.13,172.3 979.13,124.64 972.84,118.37 "
   id="polygon4" />
  <path
   class="fil0"
   d="m 1047.84,61.58 -0.06,-0.04 h -60.43 l -6.28,6.26 v 43.95 l 6.28,6.26 h 59.48 c 42.26,0.47 60.49,13.32 60.49,56.39 v 12.54 l -6.29,6.27 c 0,0 -25.15,-6.27 -56.58,-6.27 -81.73,0 -138.3,31.36 -138.3,100.34 0,62.71 37.72,100.33 106.87,100.33 62.86,0 88.01,-37.62 88.01,-37.62 h 6.29 l 6.28,25.08 6.29,6.28 h 44 l 6.29,-6.28 V 199.49 c 0,-92.92 -30.71,-136.85 -122.34,-137.91 z m 59.48,206.89 c 0,37.62 -31.44,62.71 -81.74,62.71 -37.71,0 -56.57,-12.54 -56.57,-43.9 0,-31.36 25.15,-50.17 81.73,-50.17 31.43,0 50.29,6.27 50.29,6.27 l 6.29,6.28 z"
   id="path5" />
  <polygon
   class="fil0"
   points="689.63,375.07 695.92,381.35 746.2,381.35 752.49,375.07 752.48,124.64 745.49,118.38 695.91,118.38 689.63,124.64 "
   id="polygon5" />
  <polygon
   class="fil0"
   points="865.69,62.52 871.98,68.78 871.98,112.15 865.69,118.41 761.71,118.13 754.79,111.93 754.79,68.72 761.01,62.52 "
   id="polygon6" />
  <path
   class="fil0"
   d="m 1392.77,62.52 h -68.25 l -6.21,-6.2 V 6.2 L 1312.1,0 h -49.65 l -6.2,6.2 c 0,0 0.09,311.24 0.15,313.2 l 6.05,6.05 h 49.66 l 6.3,-6.33 -0.1,-194.54 6.21,-6.22 h 68.25 l 6.2,-6.2 V 68.72 Z"
   id="path6" />
  <path
   class="fil0"
   d="M 549.6,201.8 H 413.28 l -6.2,-6.2 c 0,-18.61 6.2,-74.43 74.36,-74.43 68.16,0 74.36,55.82 74.36,74.43 z m -61.96,185.81 c 74.35,0 117.72,-43.34 123.92,-92.87 l -6.2,-6.19 H 555.8 l -6.2,6.19 c -12.39,30.96 -37.18,37.15 -61.96,37.15 -74.36,0 -80.56,-61.97 -80.56,-74.39 l 6.2,-6.21 h 204.48 l 6.19,-6.18 v -18.57 c 0,-86.76 -43.37,-161.06 -142.51,-161.06 -99.11,0 -142.44,74.3 -142.44,161.06 0,92.97 49.52,161.07 148.64,161.07 z"
   id="path7" />
  <polygon
   class="fil0"
   points="216.26,375.17 222.46,381.37 284.52,381.37 290.72,375.17 290.9,331.9 284.7,325.7 222.39,325.7 216.44,331.65 "
   id="polygon7" />
  <path
   class="fil0"
   d="m 284.7,62.52 h -68.26 l -6.21,-6.2 V 6.2 L 204.03,0 h -49.65 l -6.2,6.2 c 0,0 0.09,311.24 0.15,313.2 l 6.05,6.05 h 49.66 l 6.3,-6.33 -0.11,-194.54 6.21,-6.22 h 68.26 l 6.2,-6.2 V 68.72 Z"
   id="path8" />
  <polygon
   class="fil0"
   points="1324.51,375.15 1330.71,381.35 1392.77,381.35 1398.97,375.15 1398.97,331.71 1392.77,325.51 1330.46,325.51 1324.51,331.45 "
   id="polygon8" />
 </g>
</svg>
