<?xml version="1.0" encoding="UTF-8" standalone="no"?>
<!-- Generator: Adobe Illustrator 25.0.0, SVG Export Plug-In . SVG Version: 6.00 Build 0)  -->

<svg
   version="1.1"
   id="Ebene_1"
   x="0px"
   y="0px"
   viewBox="0 0 399.89999 195.8"
   xml:space="preserve"
   sodipodi:docname="Logo_HPA_Logo_RGB.svg"
   width="225.77673mm"
   height="110.54535mm"
   inkscape:version="1.3.2 (091e20e, 2023-11-25)"
   xmlns:inkscape="http://www.inkscape.org/namespaces/inkscape"
   xmlns:sodipodi="http://sodipodi.sourceforge.net/DTD/sodipodi-0.dtd"
   xmlns:xlink="http://www.w3.org/1999/xlink"
   xmlns="http://www.w3.org/2000/svg"
   xmlns:svg="http://www.w3.org/2000/svg"><defs
   id="defs3"><color-profile
     name="Adobe-RGB-1998"
     xlink:href="file:///System/Library/ColorSync/Profiles/AdobeRGB1998.icc"
     id="color-profile1" /></defs><sodipodi:namedview
   id="namedview3"
   pagecolor="#ffffff"
   bordercolor="#999999"
   borderopacity="1"
   inkscape:showpageshadow="2"
   inkscape:pageopacity="0"
   inkscape:pagecheckerboard="0"
   inkscape:deskcolor="#d1d1d1"
   inkscape:zoom="0.26412056"
   inkscape:cx="357.79115"
   inkscape:cy="-3.7861498"
   inkscape:window-width="1312"
   inkscape:window-height="449"
   inkscape:window-x="0"
   inkscape:window-y="38"
   inkscape:window-maximized="0"
   inkscape:current-layer="Ebene_1"
   inkscape:document-units="mm" />
<style
   type="text/css"
   id="style1">
	.st0{fill:#FFFFFF;}
	.st1{clip-path:url(#SVGID_2_);fill:#002C57;}
	.st2{clip-path:url(#SVGID_2_);fill:#21085E;}
	.st3{clip-path:url(#SVGID_2_);fill:#E2001A;}
</style>

<g
   id="g3"
   transform="translate(-0.1,-0.30000001)"
   inkscape:label="logo hpa">
	<defs
   id="defs1">
		<rect
   id="SVGID_1_"
   width="400"
   height="196.3"
   x="0"
   y="0" />
	</defs>
	<clipPath
   id="SVGID_2_">
		<use
   xlink:href="#SVGID_1_"
   style="overflow:visible"
   id="use1" />
	</clipPath>
	<path
   class="st1"
   d="M 52.8,138.4 H 42.5 v -8.1 h -2 v 19.3 h 2 v -9.4 h 10.3 v 9.4 h 2 v -19.3 h -2 v 8.1 m 16.4,9.8 c -0.1,-0.5 -0.1,-1.1 -0.1,-1.9 v -5 c 0,-1.7 -0.4,-2.9 -1.1,-3.7 -0.8,-0.8 -2,-1.1 -3.7,-1.1 -1.6,0 -2.9,0.3 -3.8,0.9 -0.9,0.6 -1.5,1.6 -1.8,2.9 h 1.9 c 0.2,-0.8 0.6,-1.4 1.1,-1.8 0.5,-0.4 1.3,-0.6 2.2,-0.6 1,0 1.8,0.2 2.4,0.6 0.6,0.4 0.9,0.9 0.9,1.5 0,0.5 -0.2,1 -0.7,1.2 -0.5,0.3 -1.5,0.5 -3,0.7 -2,0.3 -3.4,0.7 -4.2,1.3 -0.8,0.6 -1.2,1.5 -1.2,2.6 0,1.2 0.4,2.2 1.2,3 0.8,0.8 1.9,1.1 3.3,1.1 0.9,0 1.8,-0.2 2.6,-0.6 0.8,-0.4 1.5,-1 2.1,-1.8 0,0.3 0,0.6 0.1,0.9 0,0.3 0.1,0.6 0.1,1 h 2 c -0.1,-0.3 -0.2,-0.7 -0.3,-1.2 m -2.8,-0.9 c -0.7,0.8 -1.7,1.2 -3.2,1.2 -0.9,0 -1.7,-0.2 -2.3,-0.7 -0.6,-0.5 -0.9,-1.1 -0.9,-1.8 0,-0.6 0.2,-1.1 0.5,-1.5 0.3,-0.4 0.8,-0.7 1.5,-0.8 0.3,-0.1 0.8,-0.2 1.5,-0.3 1.7,-0.3 3,-0.7 3.8,-1.2 0,0.1 0,0.3 0,0.4 0,0.2 0,0.4 0,0.6 0.1,1.9 -0.3,3.3 -0.9,4.1 m 20.4,-10.8 c -0.9,0 -1.8,0.2 -2.5,0.7 -0.7,0.5 -1.3,1.1 -1.7,1.9 -0.3,-0.8 -0.8,-1.5 -1.4,-1.9 -0.6,-0.4 -1.4,-0.7 -2.2,-0.7 -0.9,0 -1.7,0.2 -2.4,0.7 -0.7,0.5 -1.3,1.1 -1.7,1.9 L 75,137 h -1.8 v 12.6 H 75 V 143 c 0,-1.6 0.3,-2.8 0.9,-3.7 0.6,-0.9 1.5,-1.3 2.7,-1.3 0.9,0 1.5,0.3 1.9,0.9 0.4,0.6 0.6,1.8 0.6,3.4 v 7.2 H 83 V 143 c 0,-1.6 0.3,-2.8 0.9,-3.7 0.6,-0.9 1.5,-1.3 2.7,-1.3 0.8,0 1.4,0.3 1.8,0.9 0.3,0.6 0.5,1.8 0.5,3.5 v 7.2 h 1.8 v -8.4 c 0,-1.5 -0.3,-2.7 -1,-3.5 -0.7,-0.8 -1.6,-1.2 -2.9,-1.2 m 18,1.8 c -1,-1.3 -2.3,-1.9 -4,-1.9 -0.9,0 -1.8,0.2 -2.5,0.7 -0.7,0.4 -1.3,1.1 -1.7,1.9 v -8.7 h -1.8 v 19.3 h 1.8 l -0.1,-2.4 c 0.4,1 1,1.7 1.7,2.2 0.7,0.5 1.6,0.7 2.6,0.7 1.6,0 2.9,-0.7 3.9,-2 1,-1.3 1.6,-3 1.6,-5 0,-1.9 -0.5,-3.5 -1.5,-4.8 m -1.6,8.7 c -0.8,1 -1.7,1.5 -2.8,1.5 -1.2,0 -2.1,-0.5 -2.8,-1.4 -0.7,-1 -1.1,-2.2 -1.1,-3.8 0,-1.6 0.4,-2.8 1.1,-3.8 0.7,-1 1.6,-1.4 2.8,-1.4 1.2,0 2.1,0.5 2.8,1.4 0.7,1 1.1,2.2 1.1,3.8 0.1,1.5 -0.3,2.7 -1.1,3.7 m 14.4,-3.4 c 0,1.6 -0.3,2.9 -1,3.7 -0.6,0.8 -1.6,1.3 -2.8,1.3 -0.9,0 -1.6,-0.3 -2,-0.8 -0.4,-0.5 -0.6,-1.3 -0.6,-2.5 V 137 h -1.8 v 8.3 c 0,1.6 0.4,2.8 1.1,3.6 0.7,0.8 1.8,1.2 3.2,1.2 1,0 1.8,-0.2 2.5,-0.7 0.7,-0.5 1.3,-1.1 1.7,-2 l -0.1,2.2 h 1.8 V 137 h -1.8 v 6.6 z m 10.2,-6.3 c -0.8,0.5 -1.6,1.4 -2.3,2.5 l 0.1,-2.8 h -1.9 v 12.6 h 1.9 v -5.7 c 0,-2 0.4,-3.4 1.2,-4.3 0.8,-0.9 2.1,-1.4 4,-1.4 h 0.4 v -1.7 h -0.4 c -1.2,0 -2.2,0.2 -3,0.8 m 13.7,-0.3 0.1,2.4 c -0.4,-1 -1,-1.7 -1.7,-2.2 -0.7,-0.5 -1.6,-0.7 -2.6,-0.7 -1.6,0 -2.9,0.6 -3.9,1.9 -1,1.3 -1.6,2.9 -1.6,4.9 0,2 0.5,3.6 1.5,4.9 1,1.3 2.4,1.9 4,1.9 0.9,0 1.8,-0.2 2.5,-0.7 0.7,-0.4 1.3,-1.1 1.7,-1.9 v 2.4 c 0,1.4 -0.3,2.4 -1,3.1 -0.6,0.7 -1.6,1 -2.9,1 -1,0 -1.8,-0.2 -2.4,-0.6 -0.6,-0.4 -0.9,-1 -1.1,-1.8 h -1.9 c 0.1,1.2 0.7,2.2 1.6,2.9 0.9,0.7 2.1,1.1 3.6,1.1 1.9,0 3.3,-0.5 4.3,-1.5 1,-1 1.5,-2.4 1.5,-4.2 V 137 Z m -1.2,10.1 c -0.7,1 -1.6,1.4 -2.8,1.4 -1.2,0 -2.1,-0.5 -2.8,-1.4 -0.7,-1 -1.1,-2.2 -1.1,-3.8 0,-1.5 0.4,-2.8 1.1,-3.8 0.7,-1 1.7,-1.5 2.8,-1.5 1.2,0 2.1,0.5 2.8,1.4 0.7,1 1.1,2.2 1.1,3.8 0,1.7 -0.3,2.9 -1.1,3.9 m 26.3,-15.3 c -1.2,-1 -3,-1.5 -5.2,-1.5 h -6.3 v 19.3 h 2 v -7.4 h 4.3 c 2.3,0 4,-0.5 5.2,-1.6 1.2,-1 1.8,-2.5 1.8,-4.5 0.1,-1.8 -0.5,-3.3 -1.8,-4.3 m -1.4,7.5 c -0.8,0.7 -2,1 -3.7,1 H 157 v -8.2 h 4.5 c 1.7,0 2.9,0.3 3.7,1 0.8,0.7 1.2,1.7 1.2,3 0,1.5 -0.4,2.5 -1.2,3.2 m 15.4,-1 c -1.1,-1.2 -2.6,-1.8 -4.5,-1.8 -1.9,0 -3.4,0.6 -4.5,1.8 -1.1,1.2 -1.7,2.9 -1.7,5 0,2.1 0.6,3.7 1.7,5 1.1,1.2 2.6,1.8 4.5,1.8 1.9,0 3.4,-0.6 4.5,-1.8 1.1,-1.2 1.7,-2.9 1.7,-5 0,-2.1 -0.6,-3.7 -1.7,-5 m -1.4,8.8 c -0.8,0.9 -1.8,1.4 -3.1,1.4 -1.3,0 -2.3,-0.5 -3.1,-1.4 -0.8,-0.9 -1.2,-2.2 -1.2,-3.8 0,-1.6 0.4,-2.9 1.2,-3.8 0.8,-0.9 1.8,-1.4 3.1,-1.4 1.3,0 2.3,0.5 3.1,1.4 0.8,0.9 1.2,2.2 1.2,3.8 -0.1,1.6 -0.5,2.9 -1.2,3.8 m 10.3,-9.8 c -0.8,0.5 -1.6,1.4 -2.3,2.5 l 0.1,-2.8 h -1.9 v 12.6 h 1.9 v -5.7 c 0,-2 0.4,-3.4 1.2,-4.3 0.8,-0.9 2.1,-1.4 4,-1.4 h 0.4 v -1.7 h -0.4 c -1.2,0 -2.2,0.2 -3,0.8 m 8.2,-4.4 h -1.8 v 4.1 h -1.8 v 1.6 h 1.8 v 7.3 c 0,1.8 0.2,2.9 0.6,3.4 0.4,0.5 1.1,0.8 2.1,0.8 0.3,0 0.6,0 1,-0.1 0.4,-0.1 0.8,-0.2 1.3,-0.4 v -1.8 c -0.4,0.2 -0.8,0.3 -1,0.4 -0.3,0.1 -0.5,0.1 -0.7,0.1 -0.5,0 -0.9,-0.1 -1.1,-0.4 -0.2,-0.3 -0.3,-1 -0.3,-2.2 v -7.2 H 201 V 137 h -3.2 v -4.1 z m 22.2,-2.6 h -2.2 l -7.9,19.3 h 2.2 l 1.8,-4.4 h 10.1 l 1.8,4.4 h 2.2 z m -5.5,13.1 4.3,-10.9 h 0.1 l 4.3,10.9 z m 23.7,0.2 c 0,1.6 -0.3,2.9 -1,3.7 -0.6,0.8 -1.6,1.3 -2.8,1.3 -0.9,0 -1.6,-0.3 -2,-0.8 -0.4,-0.5 -0.6,-1.3 -0.6,-2.5 V 137 h -1.8 v 8.3 c 0,1.6 0.3,2.8 1.1,3.6 0.7,0.8 1.8,1.2 3.2,1.2 1,0 1.8,-0.2 2.5,-0.7 0.7,-0.5 1.3,-1.1 1.7,-2 l -0.1,2.2 h 1.8 V 137 h -1.8 v 6.6 z m 8.8,-10.7 H 245 v 4.1 h -1.8 v 1.6 h 1.8 v 7.3 c 0,1.8 0.2,2.9 0.6,3.4 0.4,0.5 1.1,0.8 2.1,0.8 0.3,0 0.6,0 1,-0.1 0.4,-0.1 0.8,-0.2 1.3,-0.4 v -1.8 c -0.4,0.2 -0.8,0.3 -1,0.4 -0.3,0.1 -0.5,0.1 -0.7,0.1 -0.5,0 -0.9,-0.1 -1.1,-0.4 -0.2,-0.3 -0.3,-1 -0.3,-2.2 v -7.2 h 3.2 V 137 h -3.2 z m 12.6,3.6 c -1,0 -1.8,0.2 -2.5,0.7 -0.7,0.5 -1.2,1.1 -1.6,2 v -8.8 h -1.8 v 19.3 h 1.8 V 143 c 0,-1.6 0.3,-2.9 1,-3.7 0.6,-0.8 1.6,-1.3 2.8,-1.3 0.9,0 1.6,0.3 2,0.8 0.4,0.5 0.6,1.3 0.6,2.4 v 8.3 h 1.8 v -8.4 c 0,-1.6 -0.3,-2.8 -1,-3.6 -0.6,-0.6 -1.7,-1 -3.1,-1 m 17.9,1.8 c -1.1,-1.2 -2.6,-1.8 -4.5,-1.8 -1.9,0 -3.4,0.6 -4.5,1.8 -1.1,1.2 -1.7,2.9 -1.7,5 0,2.1 0.6,3.7 1.7,5 1.1,1.2 2.6,1.8 4.5,1.8 1.9,0 3.4,-0.6 4.5,-1.8 1.1,-1.2 1.7,-2.9 1.7,-5 0,-2.1 -0.6,-3.7 -1.7,-5 m -1.4,8.8 c -0.8,0.9 -1.8,1.4 -3.1,1.4 -1.3,0 -2.3,-0.5 -3.1,-1.4 -0.8,-0.9 -1.2,-2.2 -1.2,-3.8 0,-1.6 0.4,-2.9 1.2,-3.8 0.8,-0.9 1.8,-1.4 3.1,-1.4 1.3,0 2.3,0.5 3.1,1.4 0.8,0.9 1.2,2.2 1.2,3.8 0,1.6 -0.4,2.9 -1.2,3.8 m 10.3,-9.8 c -0.8,0.5 -1.6,1.4 -2.3,2.5 l 0.1,-2.8 h -1.9 v 12.6 h 1.9 v -5.7 c 0,-2 0.4,-3.4 1.2,-4.3 0.8,-0.9 2.1,-1.4 4,-1.4 h 0.4 v -1.7 h -0.4 c -1.2,0 -2.2,0.2 -3,0.8 m 5.5,-2.9 h 1.8 v -2.1 h -1.8 z m 0,15.2 h 1.8 V 137 h -1.8 z m 8.9,-16.7 h -1.8 V 137 H 297 v 1.6 h 1.8 v 7.3 c 0,1.8 0.2,2.9 0.6,3.4 0.4,0.5 1.1,0.8 2.1,0.8 0.3,0 0.6,0 1,-0.1 0.4,-0.1 0.8,-0.2 1.3,-0.4 v -1.8 c -0.4,0.2 -0.7,0.3 -1,0.4 -0.3,0.1 -0.5,0.1 -0.7,0.1 -0.5,0 -0.9,-0.1 -1.1,-0.4 -0.2,-0.3 -0.3,-1 -0.3,-2.2 v -7.2 h 3.2 V 137 h -3.2 z m 15.8,4.1 -4.5,10.2 h -0.1 L 307.4,137 h -2.1 l 5.7,12.4 -1.1,2.3 c -0.3,0.6 -0.6,1.1 -1,1.4 -0.4,0.3 -0.8,0.4 -1.2,0.4 -0.3,0 -0.6,-0.1 -0.9,-0.2 -0.3,-0.1 -0.6,-0.3 -1,-0.5 v 2.2 c 0.4,0.1 0.7,0.2 1,0.3 0.4,0.1 0.7,0.1 1,0.1 0.9,0 1.6,-0.3 2.2,-0.8 0.6,-0.5 1.2,-1.5 1.8,-2.9 l 6.7,-14.8 h -2 z M 202,40.7 h -22.1 l 20.2,55.2 h -50.8 l -11.8,26.3 h 26.1 l 5.6,-14.4 h 35.2 l 5.2,14.3 h 26.2 z m -56.6,0 h -42.1 v 39 H 66.2 v -39 H 40.4 V 122 H 66.2 V 91.6 h 37.1 V 122 h 25.9 V 91.6 h 14.6 c 31.1,0 33.5,-19.9 33.5,-26 0,-15.6 -11.9,-24.9 -31.9,-24.9 m -6.7,39.1 h -9.5 V 52.5 h 9.3 c 10.3,0 15.3,4.4 15.4,13.5 v 0 c 0,6.3 -2.6,13.8 -15.2,13.8 M 284.7,50 c 1.8,-1.5 2.9,-3.7 2.9,-5.9 0,-4.3 -3.5,-7.8 -7.9,-7.8 -4.3,0 -7.9,3.5 -7.9,7.8 0,2.3 1.1,4.4 2.9,5.9 H 261 v 3.7 l 12.3,3.8 V 53.6 H 286 v 4.1 l 12.4,-3.9 V 50 Z m -5,-2.2 c -2.1,0 -3.8,-1.7 -3.8,-3.7 0,-2.1 1.7,-3.7 3.8,-3.7 2.1,0 3.8,1.7 3.8,3.7 0,2 -1.7,3.7 -3.8,3.7 m 22.1,52.9 4.7,3.3 c -5.3,6.6 -10.6,10.1 -17.8,11.8 l -2,0.4 v -6.5 h -13.5 v 6.5 l -2,-0.3 C 263.8,114.3 258.3,110.7 253,104 l 4.6,-3.2 -16.7,-6.4 0.2,0.5 0.3,0.8 c 6,15.4 19,26.1 34,27.9 0,0 0.6,0.1 1.3,0.1 0,0 1.9,0.1 2.1,0.1 0,0 0.9,0 0.9,0 0,0 1.5,0 1.5,0 l 2.9,-0.2 c 15,-1.8 28,-12.5 34,-27.9 l 0.3,-0.8 0.2,-0.5 z"
   clip-path="url(#SVGID_2_)"
   id="path1" />
	<path
   class="st2"
   d="m 278.2,123.8 v 0 c 0,-0.1 0,-0.1 0,0 v 0"
   clip-path="url(#SVGID_2_)"
   id="path2" />
	<polyline
   class="st2"
   points="277.9,123.7 277.9,123.7 277.9,123.7 277.9,123.7  "
   clip-path="url(#SVGID_2_)"
   id="polyline2" />
	<path
   class="st3"
   d="m 291.6,67.1 0.8,1.5 0.9,-1.5 h 1.6 l -0.8,-1.5 0.8,-1.5 h -1.6 l -0.9,-1.5 -0.8,1.5 h -1.7 l 0.8,1.5 -0.8,1.5 h 1.7 m -13.1,-6 h 2.5 v -1.4 h 1.4 V 57.3 H 281 v -1.4 h -2.5 v 1.4 h -1.4 v 2.4 h 1.4 z m -12.2,6 0.9,1.5 0.8,-1.5 h 1.7 l -0.9,-1.5 0.9,-1.5 H 268 l -0.8,-1.5 -0.9,1.5 h -1.7 l 0.9,1.5 -0.9,1.5 z m 30.2,19.6 H 263 l -2.9,17.9 -0.5,2.7 h 15.8 v -9.1 c 0,-2.7 1.5,-4.9 4.4,-5 2.9,0.1 4.4,2.3 4.4,5 v 9.1 h 15.6 z m 1.4,-4.8 h -1.7 V 69.3 h -7.9 v 12.5 h -4.2 l 0.2,-15 c -0.1,-2.1 -1.1,-4 -2.8,-4.7 h -3.3 c -1.7,0.7 -2.9,2.5 -2.9,4.5 l 0.2,15.2 h -4.3 V 69.3 h -7.8 v 12.5 h -1.7 V 84 H 298 v -2.1 z"
   clip-path="url(#SVGID_2_)"
   id="path3" />
</g>
</svg>
