<?xml version="1.0" encoding="UTF-8" standalone="no"?>
<!-- Generator: Adobe Illustrator 28.1.0, SVG Export Plug-In . SVG Version: 6.00 Build 0)  -->

<svg
   version="1.1"
   id="Logo"
   x="0px"
   y="0px"
   viewBox="0 0 197.3 20.000001"
   xml:space="preserve"
   sodipodi:docname="mogwai-labs-logo-blaugrau.svg"
   width="210.04222mm"
   height="21.29166mm"
   inkscape:version="1.3.2 (091e20e, 2023-11-25)"
   xmlns:inkscape="http://www.inkscape.org/namespaces/inkscape"
   xmlns:sodipodi="http://sodipodi.sourceforge.net/DTD/sodipodi-0.dtd"
   xmlns:xlink="http://www.w3.org/1999/xlink"
   xmlns="http://www.w3.org/2000/svg"
   xmlns:svg="http://www.w3.org/2000/svg"><defs
   id="defs11"><color-profile
     name="Adobe-RGB-1998"
     xlink:href="file:///System/Library/ColorSync/Profiles/AdobeRGB1998.icc"
     id="color-profile1" /></defs><sodipodi:namedview
   id="namedview11"
   pagecolor="#ffffff"
   bordercolor="#999999"
   borderopacity="1"
   inkscape:showpageshadow="2"
   inkscape:pageopacity="0"
   inkscape:pagecheckerboard="0"
   inkscape:deskcolor="#d1d1d1"
   inkscape:zoom="0.31512927"
   inkscape:cx="414.11577"
   inkscape:cy="-19.039806"
   inkscape:window-width="1312"
   inkscape:window-height="449"
   inkscape:window-x="0"
   inkscape:window-y="38"
   inkscape:window-maximized="0"
   inkscape:current-layer="Logo"
   inkscape:document-units="mm" />
<style
   type="text/css"
   id="style1">
	.st0{fill:#19374B;}
	.st1{fill:#4B7D9B;}
</style>
<g
   id="g11"
   inkscape:label="logo mogwai">
	<g
   id="g6">
		<path
   class="st0"
   d="M 0,19.5 3.2,0.6 h 4.9 l 3.8,10.1 3.8,-10.1 h 4.9 l 3.2,18.9 H 18.9 L 17.2,8.6 12.7,19.5 H 10.8 L 6.5,8.6 4.9,19.5 Z"
   id="path1" />
		<path
   class="st0"
   d="m 24.9,10 c 0,-1.4 0.3,-2.7 0.8,-3.9 0.5,-1.2 1.2,-2.3 2.2,-3.2 1,-0.9 2,-1.6 3.3,-2.1 1.2,-0.5 2.6,-0.8 4.2,-0.8 1.5,0 2.9,0.3 4.2,0.8 1.3,0.5 2.4,1.2 3.3,2.1 0.9,0.9 1.7,2 2.2,3.2 0.5,1.2 0.8,2.5 0.8,3.9 0,1.4 -0.3,2.7 -0.8,3.9 -0.5,1.2 -1.2,2.3 -2.2,3.2 -0.9,0.9 -2,1.6 -3.3,2.1 -1.3,0.5 -2.7,0.8 -4.2,0.8 -1.5,0 -3,-0.3 -4.2,-0.8 C 29.9,18.7 28.8,18 27.9,17.1 27,16.2 26.3,15.1 25.7,13.9 25.2,12.8 24.9,11.4 24.9,10 Z m 5.1,0 c 0,0.8 0.1,1.4 0.4,2.1 0.3,0.6 0.7,1.2 1.2,1.7 0.5,0.5 1,0.8 1.7,1.1 0.6,0.3 1.3,0.4 2.1,0.4 0.7,0 1.4,-0.1 2.1,-0.4 0.6,-0.3 1.2,-0.6 1.7,-1.1 0.5,-0.5 0.9,-1 1.2,-1.7 0.3,-0.6 0.4,-1.3 0.4,-2.1 C 40.8,9.2 40.7,8.6 40.4,7.9 40.1,7.3 39.7,6.7 39.2,6.2 38.7,5.7 38.1,5.4 37.5,5.1 36.9,4.8 36.2,4.7 35.4,4.7 34.6,4.7 34,4.8 33.3,5.1 32.6,5.4 32.1,5.7 31.6,6.2 31.1,6.7 30.7,7.2 30.4,7.9 30.2,8.6 30,9.3 30,10 Z"
   id="path2" />
		<path
   class="st0"
   d="m 57.9,8.9 h 9.7 c 0,1 0,1.9 -0.1,2.7 -0.1,0.8 -0.3,1.6 -0.5,2.3 -0.3,1 -0.8,1.9 -1.4,2.6 -0.6,0.8 -1.3,1.4 -2.1,1.9 -0.8,0.5 -1.7,0.9 -2.7,1.2 -1,0.3 -2,0.4 -3.1,0.4 -1.5,0 -2.8,-0.3 -4,-0.7 -1.2,-0.5 -2.3,-1.2 -3.1,-2.1 -0.9,-0.9 -1.5,-1.9 -2,-3.2 -0.5,-1.2 -0.7,-2.6 -0.7,-4.1 0,-1.5 0.2,-2.8 0.7,-4.1 0.5,-1.2 1.2,-2.3 2,-3.2 0.9,-0.9 1.9,-1.5 3.2,-2 1.3,-0.5 2.5,-0.6 4.1,-0.6 2,0 3.7,0.4 5.2,1.3 1.5,0.8 2.7,2.2 3.5,4 L 61.9,7.2 C 61.5,6.2 60.9,5.4 60.2,5 59.5,4.5 58.7,4.3 57.8,4.3 c -0.7,0 -1.4,0.1 -2,0.4 -0.6,0.3 -1.1,0.7 -1.5,1.2 -0.4,0.5 -0.8,1.1 -1,1.8 -0.3,0.7 -0.4,1.5 -0.4,2.4 0,0.8 0.1,1.5 0.3,2.2 0.2,0.7 0.5,1.3 0.9,1.8 0.4,0.5 0.9,0.9 1.5,1.2 0.6,0.3 1.3,0.4 2.2,0.4 0.5,0 1,-0.1 1.4,-0.2 0.5,-0.1 0.8,-0.3 1.2,-0.5 0.4,-0.3 0.6,-0.6 0.9,-0.9 0.2,-0.4 0.4,-0.8 0.5,-1.4 h -4 z"
   id="path3" />
		<path
   class="st0"
   d="m 73.2,0.6 3.3,12.2 4,-12.2 h 3.9 l 4,12.2 3.3,-12.2 h 5.2 l -5.6,18.9 h -5 l -3.7,-11 -3.7,11 h -5 L 68.1,0.6 Z"
   id="path4" />
		<path
   class="st0"
   d="m 108.2,16.2 h -7 l -1.1,3.3 H 94.9 L 102,0.6 h 5.4 l 7.2,18.9 h -5.2 z m -1.3,-3.7 -2.2,-6.3 -2.2,6.3 z"
   id="path5" />
		<path
   class="st0"
   d="m 121.5,0.6 v 18.9 h -4.9 V 0.6 Z"
   id="path6" />
	</g>
	<g
   id="g10">
		<path
   class="st1"
   d="m 138.4,0.6 v 14.7 h 5.9 v 4.2 H 133.5 V 0.6 Z"
   id="path7" />
		<path
   class="st1"
   d="m 158.8,16.2 h -7 l -1.1,3.3 h -5.2 l 7.2,-18.9 h 5.4 l 7.2,18.9 H 160 Z m -1.3,-3.7 -2.2,-6.3 -2.2,6.3 z"
   id="path8" />
		<path
   class="st1"
   d="m 167.2,0.6 h 7.3 c 1.7,0 3.1,0.4 4,1.3 0.9,0.8 1.4,2 1.4,3.6 0,1 -0.2,1.7 -0.5,2.4 -0.3,0.6 -0.9,1.2 -1.6,1.6 0.7,0.1 1.3,0.3 1.8,0.6 0.5,0.3 0.9,0.6 1.2,1 0.3,0.4 0.5,0.8 0.7,1.4 0.1,0.5 0.2,1 0.2,1.6 0,0.9 -0.1,1.7 -0.5,2.4 -0.3,0.7 -0.7,1.3 -1.3,1.7 -0.6,0.5 -1.2,0.8 -2.1,1 -0.8,0.2 -1.7,0.3 -2.7,0.3 h -7.9 z m 4.9,7.4 h 0.9 c 1.5,0 2.3,-0.6 2.3,-1.8 0,-1.2 -0.8,-1.8 -2.3,-1.8 h -0.9 z m 0,7.7 h 1.1 c 1.2,0 2.1,-0.2 2.6,-0.5 0.5,-0.3 0.8,-0.8 0.8,-1.5 0,-0.7 -0.3,-1.2 -0.8,-1.5 -0.5,-0.3 -1.4,-0.5 -2.6,-0.5 h -1.1 z"
   id="path9" />
		<path
   class="st1"
   d="m 194.5,5.4 c -0.5,-0.4 -1.1,-0.8 -1.6,-1 -0.5,-0.2 -1,-0.3 -1.5,-0.3 -0.6,0 -1.2,0.1 -1.5,0.5 -0.4,0.3 -0.6,0.7 -0.6,1.2 0,0.3 0.1,0.6 0.3,0.8 0.2,0.2 0.5,0.4 0.8,0.6 0.3,0.2 0.7,0.3 1.1,0.4 0.4,0.1 0.8,0.3 1.2,0.4 1.6,0.5 2.8,1.2 3.5,2.1 0.7,0.9 1.1,2.1 1.1,3.5 0,1 -0.2,1.9 -0.5,2.6 -0.3,0.8 -0.8,1.5 -1.4,2 -0.6,0.6 -1.4,1 -2.3,1.3 -0.9,0.3 -1.9,0.5 -3.1,0.5 -2.4,0 -4.6,-0.7 -6.6,-2.1 l 2.1,-4 c 0.7,0.6 1.5,1.1 2.2,1.5 0.7,0.3 1.4,0.5 2.1,0.5 0.8,0 1.4,-0.2 1.8,-0.6 0.4,-0.4 0.6,-0.8 0.6,-1.3 0,-0.3 -0.1,-0.5 -0.1,-0.7 -0.1,-0.2 -0.3,-0.4 -0.5,-0.6 -0.2,-0.2 -0.5,-0.3 -0.9,-0.5 -0.4,-0.1 -0.8,-0.3 -1.4,-0.5 -0.6,-0.2 -1.3,-0.4 -1.9,-0.7 -0.6,-0.3 -1.2,-0.6 -1.6,-1 -0.5,-0.4 -0.9,-0.9 -1.2,-1.5 -0.3,-0.6 -0.5,-1.4 -0.5,-2.3 0,-0.9 0.1,-1.8 0.5,-2.5 0.4,-0.7 0.7,-1.4 1.3,-1.9 0.6,-0.5 1.2,-1 2.1,-1.3 0.8,-0.3 1.7,-0.5 2.7,-0.5 0.9,0 1.9,0.1 2.9,0.4 1,0.3 2,0.6 2.9,1.2 z"
   id="path10" />
	</g>
</g>
</svg>
