<?xml version="1.0" encoding="UTF-8" standalone="no"?>
<!-- Generator: Adobe Illustrator 15.1.0, SVG Export Plug-In . SVG Version: 6.00 Build 0)  -->

<svg
   version="1.1"
   id="Ebene_1"
   x="0px"
   y="0px"
   width="200.91348mm"
   height="131.04315mm"
   viewBox="0 0 551.07748 359.43297"
   enable-background="new 0 0 595.28 419.53"
   xml:space="preserve"
   sodipodi:docname="pureISM_Logo_slogan.svg"
   inkscape:version="1.3.2 (091e20e, 2023-11-25)"
   xmlns:inkscape="http://www.inkscape.org/namespaces/inkscape"
   xmlns:sodipodi="http://sodipodi.sourceforge.net/DTD/sodipodi-0.dtd"
   xmlns:xlink="http://www.w3.org/1999/xlink"
   xmlns="http://www.w3.org/2000/svg"
   xmlns:svg="http://www.w3.org/2000/svg"><defs
   id="defs14"><color-profile
     name="Adobe-RGB-1998"
     xlink:href="file:///System/Library/ColorSync/Profiles/AdobeRGB1998.icc"
     id="color-profile1" /></defs><sodipodi:namedview
   id="namedview14"
   pagecolor="#ffffff"
   bordercolor="#999999"
   borderopacity="1"
   inkscape:showpageshadow="2"
   inkscape:pageopacity="0"
   inkscape:pagecheckerboard="0"
   inkscape:deskcolor="#d1d1d1"
   inkscape:zoom="0.56253427"
   inkscape:cx="329.75769"
   inkscape:cy="186.6553"
   inkscape:window-width="1312"
   inkscape:window-height="449"
   inkscape:window-x="0"
   inkscape:window-y="38"
   inkscape:window-maximized="0"
   inkscape:current-layer="Ebene_1"
   inkscape:document-units="mm" />
<g
   id="g14"
   transform="translate(-18.002,-29.363)"
   inkscape:label="logo pure ism">
	<path
   fill="#405c7a"
   d="M 79.414,101.876 V 55.324 c 0,-5.193 -1.072,-5.37 -5.551,-5.37 H 45.037 c -4.477,0 -5.551,0.177 -5.551,5.37 v 51.925 h 34.377 c 4.479,0 5.551,-0.18 5.551,-5.373 m 1.791,25.963 H 39.486 v 30.439 c 0,3.758 -1.611,5.371 -5.369,5.371 H 23.371 c -3.758,0 -5.369,-1.613 -5.369,-5.371 V 48.342 c 0,-15.936 6.267,-18.979 19.693,-18.979 h 43.51 c 13.432,0 19.695,3.043 19.695,18.979 v 60.516 c 0,15.937 -6.263,18.981 -19.695,18.981"
   id="path1" />
	<path
   fill="#405c7a"
   d="m 183.613,127.839 h -43.51 c -13.426,0 -19.695,-3.044 -19.695,-18.981 V 34.734 c 0,-3.761 1.613,-5.371 5.371,-5.371 h 10.744 c 3.76,0 5.371,1.61 5.371,5.371 v 67.142 c 0,5.193 1.073,5.373 5.549,5.373 h 28.828 c 4.477,0 5.551,-0.18 5.551,-5.373 V 34.734 c 0,-3.761 1.611,-5.371 5.375,-5.371 h 10.74 c 3.758,0 5.369,1.61 5.369,5.371 v 74.124 c 0,15.937 -6.263,18.981 -19.693,18.981"
   id="path2" />
	<path
   fill="#405c7a"
   d="m 244.482,122.469 c 0,3.758 -1.613,5.37 -5.371,5.37 h -10.746 c -3.758,0 -5.369,-1.612 -5.369,-5.37 V 48.342 c 0,-15.936 6.267,-18.979 19.693,-18.979 h 34.916 c 3.758,0 5.371,1.61 5.371,5.371 v 9.847 c 0,3.761 -1.613,5.373 -5.371,5.373 h -27.574 c -4.477,0 -5.549,0.177 -5.549,5.37 z"
   id="path3" />
	<path
   fill="#405c7a"
   d="m 356.916,63.741 v -8.417 c 0,-5.193 -1.072,-5.37 -5.551,-5.37 h -28.826 c -4.473,0 -5.551,0.177 -5.551,5.37 v 13.787 h 34.377 c 4.479,0 5.551,-0.179 5.551,-5.37 m 17.549,58.728 c 0,3.758 -1.613,5.37 -5.371,5.37 h -53.891 c -13.432,0 -19.699,-3.044 -19.699,-18.981 V 48.342 c 0,-15.936 6.268,-18.979 19.699,-18.979 h 43.504 c 13.432,0 19.695,3.043 19.695,18.979 v 22.381 c 0,15.936 -6.264,18.978 -19.695,18.978 h -41.719 v 12.175 c 0,5.194 1.078,5.373 5.551,5.373 h 46.555 c 3.758,0 5.371,1.609 5.371,5.37 z"
   id="path4" />
	<path
   fill="#405c7a"
   d="m 178.603,248.167 c 0,2.315 -1.089,3.406 -3.406,3.406 h -4.767 c -2.316,0 -3.406,-1.091 -3.406,-3.406 v -91.553 c 0,-2.314 1.09,-3.406 3.406,-3.406 h 4.767 c 2.317,0 3.406,1.092 3.406,3.406 z"
   id="path5" />
	<path
   fill="#405c7a"
   d="m 251.647,251.572 h -37.74 c -10.218,0 -14.985,-2.315 -14.985,-14.441 v -11.444 c 0,-2.315 1.09,-3.406 3.407,-3.406 h 4.766 c 2.317,0 3.406,1.091 3.406,3.406 v 9.537 c 0,3.952 0.818,5.451 5.588,5.451 h 33.375 c 4.771,0 5.589,-1.499 5.589,-5.451 v -21.796 c 0,-3.953 -0.818,-5.451 -5.589,-5.451 h -35.691 c -10.218,0 -14.988,-2.315 -14.988,-14.441 V 167.65 c 0,-12.125 4.77,-14.441 14.988,-14.441 h 37.736 c 10.218,0 14.988,2.316 14.988,14.441 v 11.445 c 0,2.316 -1.093,3.406 -3.406,3.406 h -4.77 c -2.316,0 -3.405,-1.09 -3.405,-3.406 v -9.537 c 0,-3.949 -0.819,-5.448 -5.585,-5.448 h -33.379 c -4.77,0 -5.585,1.499 -5.585,5.448 v 22.071 c 0,3.952 0.815,5.451 5.585,5.451 h 35.695 c 10.217,0 14.984,2.315 14.984,14.44 v 25.611 c 0,12.126 -4.767,14.441 -14.984,14.441"
   id="path6" />
	<path
   fill="#405c7a"
   d="m 373.057,248.167 c 0,2.315 -1.09,3.406 -3.406,3.406 h -4.768 c -2.315,0 -3.405,-1.091 -3.405,-3.406 v -79.425 l -23.297,79.562 c -0.682,2.317 -1.908,3.27 -4.359,3.27 h -6.812 c -2.453,0 -3.681,-0.952 -4.361,-3.27 l -24.25,-79.837 v 79.7 c 0,2.315 -1.09,3.406 -3.406,3.406 h -4.767 c -2.316,0 -3.406,-1.091 -3.406,-3.406 v -91.553 c 0,-2.314 1.09,-3.406 3.406,-3.406 h 11.58 c 2.453,0 3.677,0.955 4.36,3.271 l 24.25,77.518 23.295,-77.518 c 0.682,-2.316 1.908,-3.271 4.362,-3.271 h 11.578 c 2.316,0 3.406,1.092 3.406,3.406 z"
   id="path7" />
	<path
   fill="none"
   stroke="#c7cd00"
   stroke-width="10.609"
   stroke-linecap="round"
   stroke-linejoin="round"
   d="m 563.775,206.681 c 0,0 -3.285,35.903 -39.63,54.158 -22.243,11.173 -44.832,9.685 -65.413,0.171 -22.117,-10.225 -35.994,-33.096 -39.823,-55.095 -4.62,-26.552 10.579,-49.316 10.579,-49.316"
   id="path8" />
	<path
   fill="none"
   stroke="#c7cd00"
   stroke-width="7.949"
   stroke-linecap="round"
   stroke-linejoin="round"
   d="m 437.612,191.226 c 0,0 -1.31,-15.901 12.347,-32.738 11.862,-14.624 29.559,-21.7 48.639,-19.455 19.917,2.343 33.061,13.013 41.156,26.564 17.772,29.745 0.748,55 0.748,55"
   id="path9" />
	<path
   fill="none"
   stroke="#c7cd00"
   stroke-width="5.299"
   stroke-linecap="round"
   stroke-linejoin="round"
   d="m 527.248,208.824 c 0,0 -6.229,18.748 -25.901,23.935 -15.971,4.211 -32.277,-3.24 -40.379,-15.398 -7.9,-11.857 -9.091,-23.798 -3.9,-35.867 8.325,-19.351 25.684,-22.604 25.684,-22.604"
   id="path10" />
	<path
   fill="#c7cd00"
   d="m 506.579,153.454 c 7.113,0 12.88,-5.767 12.88,-12.881 0,-7.113 -5.767,-12.88 -12.88,-12.88 -7.114,0 -12.88,5.767 -12.88,12.88 0,7.114 5.766,12.881 12.88,12.881"
   id="path11" />
	<path
   fill="#c7cd00"
   d="m 462.943,274.374 c 7.113,0 12.88,-5.767 12.88,-12.881 0,-7.113 -5.767,-12.88 -12.88,-12.88 -7.114,0 -12.881,5.767 -12.881,12.88 0,7.114 5.767,12.881 12.881,12.881"
   id="path12" />
	<path
   fill="#405c7a"
   d="m 566.769,309.563 c 0.164,-0.487 -0.041,-0.773 -0.569,-0.773 h -1.138 c -0.569,0 -0.855,0.204 -1.058,0.773 l -6.059,17.689 -6.223,-17.689 c -0.204,-0.569 -0.487,-0.773 -1.058,-0.773 h -1.302 c -0.527,0 -0.731,0.286 -0.569,0.773 l 7.849,21.593 -2.48,7.361 c -0.161,0.487 0.041,0.772 0.569,0.772 h 0.896 c 0.569,0 0.854,-0.203 1.057,-0.772 z m -20.658,19.885 c 0,-0.569 -0.244,-0.813 -0.813,-0.813 h -3.375 c -1.627,0 -1.871,-0.649 -1.871,-1.829 v -15.453 h 5.246 c 0.569,0 0.813,-0.244 0.813,-0.813 v -0.935 c 0,-0.57 -0.244,-0.814 -0.813,-0.814 h -5.246 v -7.562 c 0,-0.57 -0.244,-0.813 -0.813,-0.813 h -1.138 c -0.57,0 -0.814,0.243 -0.814,0.813 v 7.562 h -2.888 c -0.568,0 -0.812,0.244 -0.812,0.814 v 0.935 c 0,0.569 0.244,0.813 0.812,0.813 h 2.888 v 15.493 c 0,3.619 1.423,4.311 4.473,4.311 h 3.539 c 0.569,0 0.813,-0.244 0.813,-0.812 v -0.897 z M 528.746,302.61 c 0,-0.569 -0.244,-0.813 -0.812,-0.813 h -1.1 c -0.568,0 -0.812,0.244 -0.812,0.813 v 0.935 c 0,0.569 0.244,0.813 0.812,0.813 h 1.1 c 0.568,0 0.812,-0.244 0.812,-0.813 z m 0,6.994 c 0,-0.57 -0.244,-0.814 -0.812,-0.814 h -5.776 c -0.568,0 -0.812,0.244 -0.812,0.814 v 0.935 c 0,0.569 0.244,0.813 0.812,0.813 h 3.864 v 18.991 c 0,0.568 0.244,0.812 0.812,0.812 h 1.1 c 0.568,0 0.812,-0.244 0.812,-0.812 z m -20.78,3.579 c 0,-1.179 0.244,-1.83 1.871,-1.83 h 8.173 c 0.569,0 0.813,-0.244 0.813,-0.813 v -0.935 c 0,-0.57 -0.244,-0.814 -0.813,-0.814 h -8.337 c -3.049,0 -4.473,0.692 -4.473,4.312 v 17.241 c 0,0.568 0.244,0.812 0.813,0.812 h 1.139 c 0.569,0 0.813,-0.244 0.813,-0.812 v -17.161 z m -9.232,13.663 v -17.241 c 0,-0.57 -0.244,-0.814 -0.813,-0.814 h -1.098 c -0.568,0 -0.812,0.244 -0.812,0.814 v 17.201 c 0,1.18 -0.245,1.829 -1.871,1.829 h -9.597 c -1.628,0 -1.871,-0.649 -1.871,-1.829 v -17.201 c 0,-0.57 -0.244,-0.814 -0.813,-0.814 h -1.14 c -0.568,0 -0.812,0.244 -0.812,0.814 v 17.241 c 0,3.619 1.423,4.311 4.474,4.311 h 9.882 c 3.049,-10e-4 4.471,-0.692 4.471,-4.311 m -24.155,2.602 c 0,-0.569 -0.244,-0.813 -0.813,-0.813 h -11.264 c -1.627,0 -1.871,-0.649 -1.871,-1.829 v -13.623 c 0,-1.179 0.244,-1.83 1.871,-1.83 h 11.264 c 0.569,0 0.813,-0.244 0.813,-0.813 v -0.935 c 0,-0.57 -0.244,-0.814 -0.813,-0.814 h -11.428 c -3.05,0 -4.473,0.692 -4.473,4.312 v 13.743 c 0,3.619 1.423,4.311 4.473,4.311 h 11.428 c 0.569,0 0.813,-0.244 0.813,-0.812 z m -27.125,-9.475 h -11.467 v -6.79 c 0,-1.179 0.243,-1.83 1.87,-1.83 h 9.597 c 1.627,0 1.871,0.651 1.871,1.83 v 4.962 c 0,1.179 -0.244,1.828 -1.871,1.828 m 3.7,9.475 c 0,-0.569 -0.244,-0.813 -0.812,-0.813 h -10.41 c -3.335,0 -3.944,-0.041 -3.944,-1.829 v -4.312 h 11.589 c 3.051,0 4.474,-0.691 4.474,-4.311 v -5.081 c 0,-3.62 -1.423,-4.312 -4.474,-4.312 h -9.881 c -3.051,0 -4.473,0.692 -4.473,4.312 v 13.743 c 0,3.619 1.422,4.311 4.473,4.311 h 12.646 c 0.568,0 0.812,-0.244 0.812,-0.812 z m -23.625,-2.602 v -3.863 c 0,-3.619 -1.423,-4.311 -4.473,-4.311 h -8.785 c -1.504,0 -1.748,-0.731 -1.748,-1.83 v -3.659 c 0,-1.179 0.244,-1.83 1.87,-1.83 h 11.306 c 0.568,0 0.813,-0.244 0.813,-0.813 v -0.935 c 0,-0.57 -0.245,-0.814 -0.813,-0.814 h -11.428 c -3.049,0 -4.473,0.692 -4.473,4.312 v 3.78 c 0,3.619 1.424,4.311 4.473,4.311 h 8.621 c 1.627,0 1.871,0.65 1.871,1.83 v 3.782 c 0,1.18 -0.244,1.829 -1.871,1.829 h -11.345 c -0.569,0 -0.813,0.244 -0.813,0.813 v 0.896 c 0,0.568 0.244,0.812 0.813,0.812 h 11.509 c 3.05,0 4.473,-0.691 4.473,-4.31 m -33.223,-13.743 c 0,-3.62 -1.424,-4.312 -4.474,-4.312 h -9.882 c -3.05,0 -4.474,0.692 -4.474,4.312 v 17.241 c 0,0.568 0.244,0.812 0.814,0.812 h 1.138 c 0.569,0 0.813,-0.244 0.813,-0.812 v -17.161 c 0,-1.179 0.244,-1.83 1.871,-1.83 h 9.597 c 1.626,0 1.87,0.651 1.87,1.83 v 17.161 c 0,0.568 0.245,0.812 0.813,0.812 h 1.099 c 0.569,0 0.813,-0.244 0.813,-0.812 v -17.241 z m -29.849,15.532 h -9.598 c -1.627,0 -1.871,-0.649 -1.871,-1.829 v -13.623 c 0,-1.179 0.244,-1.83 1.871,-1.83 h 9.598 c 1.626,0 1.869,0.651 1.869,1.83 v 13.623 c 0,1.179 -0.243,1.829 -1.869,1.829 m 4.596,-1.789 v -13.743 c 0,-3.62 -1.424,-4.312 -4.475,-4.312 h -9.882 c -3.05,0 -4.473,0.692 -4.473,4.312 v 13.743 c 0,3.619 1.423,4.311 4.473,4.311 h 9.882 c 3.051,-10e-4 4.475,-0.692 4.475,-4.311 M 343.756,302.61 c 0,-0.569 -0.243,-0.813 -0.812,-0.813 h -1.098 c -0.569,0 -0.813,0.244 -0.813,0.813 v 0.935 c 0,0.569 0.244,0.813 0.813,0.813 h 1.098 c 0.569,0 0.812,-0.244 0.812,-0.813 z m 0,6.994 c 0,-0.57 -0.243,-0.814 -0.812,-0.814 h -5.774 c -0.569,0 -0.813,0.244 -0.813,0.814 v 0.935 c 0,0.569 0.244,0.813 0.813,0.813 h 3.863 v 18.991 c 0,0.568 0.244,0.812 0.813,0.812 h 1.098 c 0.569,0 0.812,-0.244 0.812,-0.812 z m -9.921,19.844 c 0,-0.569 -0.244,-0.813 -0.813,-0.813 h -3.376 c -1.626,0 -1.87,-0.649 -1.87,-1.829 v -15.453 h 5.246 c 0.569,0 0.813,-0.244 0.813,-0.813 v -0.935 c 0,-0.57 -0.244,-0.814 -0.813,-0.814 h -5.246 v -7.562 c 0,-0.57 -0.243,-0.813 -0.812,-0.813 h -1.14 c -0.569,0 -0.812,0.243 -0.812,0.813 v 7.562 h -2.888 c -0.569,0 -0.813,0.244 -0.813,0.814 v 0.935 c 0,0.569 0.244,0.813 0.813,0.813 h 2.888 v 15.493 c 0,3.619 1.423,4.311 4.474,4.311 h 3.537 c 0.569,0 0.813,-0.244 0.813,-0.812 v -0.897 z m -21.878,-0.813 h -9.599 c -1.626,0 -1.87,-0.649 -1.87,-1.829 v -5.246 c 0,-1.18 0.244,-1.831 1.87,-1.831 h 11.47 v 7.077 c 0,1.179 -0.244,1.829 -1.871,1.829 m 4.595,-1.789 v -13.743 c 0,-3.62 -1.423,-4.312 -4.473,-4.312 h -13.095 c -0.57,0 -0.814,0.244 -0.814,0.814 v 0.935 c 0,0.569 0.244,0.813 0.814,0.813 h 12.973 c 1.627,0 1.871,0.651 1.871,1.83 v 3.986 h -11.631 c -3.051,0 -4.474,0.69 -4.474,4.309 v 5.368 c 0,3.619 1.423,4.311 4.474,4.311 h 9.882 c 3.05,-10e-4 4.473,-0.692 4.473,-4.311 m -24.807,-13.743 c 0,-3.62 -1.423,-4.312 -4.472,-4.312 h -7.564 c -1.586,0 -2.726,0.204 -3.457,1.669 -0.732,-1.465 -1.913,-1.669 -3.458,-1.669 h -7.686 c -3.05,0 -4.473,0.692 -4.473,4.312 v 17.241 c 0,0.568 0.244,0.812 0.813,0.812 h 1.138 c 0.57,0 0.814,-0.244 0.814,-0.812 v -17.161 c 0,-1.179 0.244,-1.83 1.87,-1.83 h 7.767 c 1.627,0 1.871,0.651 1.871,1.83 v 17.161 c 0,0.568 0.244,0.812 0.813,0.812 h 1.099 c 0.569,0 0.813,-0.244 0.813,-0.812 v -17.161 c 0,-1.179 0.244,-1.83 1.87,-1.83 h 7.646 c 1.626,0 1.87,0.651 1.87,1.83 v 17.161 c 0,0.568 0.244,0.812 0.813,0.812 h 1.098 c 0.569,0 0.813,-0.244 0.813,-0.812 v -17.241 z m -46.319,0.08 c 0,-1.179 0.244,-1.83 1.87,-1.83 h 8.174 c 0.57,0 0.814,-0.244 0.814,-0.813 v -0.935 c 0,-0.57 -0.244,-0.814 -0.814,-0.814 h -8.336 c -3.051,0 -4.474,0.692 -4.474,4.312 v 17.241 c 0,0.568 0.244,0.812 0.813,0.812 h 1.139 c 0.569,0 0.813,-0.244 0.813,-0.812 v -17.161 z m -13.784,15.452 h -9.598 c -1.626,0 -1.87,-0.649 -1.87,-1.829 v -13.623 c 0,-1.179 0.244,-1.83 1.87,-1.83 h 9.598 c 1.626,0 1.87,0.651 1.87,1.83 v 13.623 c -0.001,1.179 -0.244,1.829 -1.87,1.829 m 4.594,-1.789 v -13.743 c 0,-3.62 -1.423,-4.312 -4.474,-4.312 h -9.881 c -3.051,0 -4.474,0.692 -4.474,4.312 v 13.743 c 0,3.619 1.423,4.311 4.474,4.311 h 9.881 c 3.051,-10e-4 4.474,-0.692 4.474,-4.311 M 205.33,311.312 h 6.913 c 0.569,0 0.813,-0.244 0.813,-0.812 v -0.895 c 0,-0.57 -0.244,-0.814 -0.813,-0.814 h -6.913 v -5.773 c 0,-1.18 0.244,-1.83 1.87,-1.83 h 5.043 c 0.569,0 0.813,-0.244 0.813,-0.813 v -0.936 c 0,-0.569 -0.244,-0.813 -0.813,-0.813 h -5.165 c -3.049,0 -4.473,0.691 -4.473,4.311 v 5.855 h -2.887 c -0.57,0 -0.814,0.244 -0.814,0.814 v 0.895 c 0,0.568 0.245,0.812 0.814,0.812 h 2.887 v 19.032 c 0,0.568 0.244,0.812 0.814,0.812 h 1.098 c 0.569,0 0.813,-0.244 0.813,-0.812 z m -11.224,1.791 c 0,-3.62 -1.423,-4.312 -4.474,-4.312 h -9.881 c -3.05,0 -4.474,0.692 -4.474,4.312 v 17.241 c 0,0.568 0.245,0.812 0.814,0.812 h 1.139 c 0.569,0 0.813,-0.244 0.813,-0.812 v -17.161 c 0,-1.179 0.245,-1.83 1.871,-1.83 h 9.597 c 1.627,0 1.871,0.651 1.871,1.83 v 17.161 c 0,0.568 0.244,0.812 0.813,0.812 h 1.098 c 0.569,0 0.813,-0.244 0.813,-0.812 z m -25.66,-10.493 c 0,-0.569 -0.244,-0.813 -0.813,-0.813 h -1.139 c -0.569,0 -0.813,0.244 -0.813,0.813 v 27.733 c 0,0.568 0.244,0.812 0.813,0.812 h 1.139 c 0.569,0 0.813,-0.244 0.813,-0.812 z"
   id="path13" />
	<path
   fill="#405c7a"
   d="m 460.273,384.484 v -3.863 c 0,-3.619 -1.423,-4.311 -4.474,-4.311 h -8.783 c -1.505,0 -1.749,-0.732 -1.749,-1.83 v -3.661 c 0,-1.179 0.244,-1.829 1.871,-1.829 h 11.305 c 0.57,0 0.813,-0.244 0.813,-0.814 v -0.935 c 0,-0.569 -0.243,-0.813 -0.813,-0.813 h -11.427 c -3.05,0 -4.474,0.691 -4.474,4.311 v 3.782 c 0,3.619 1.424,4.312 4.474,4.312 h 8.621 c 1.626,0 1.87,0.649 1.87,1.828 v 3.783 c 0,1.18 -0.244,1.83 -1.87,1.83 h -11.346 c -0.569,0 -0.813,0.244 -0.813,0.813 v 0.894 c 0,0.57 0.244,0.814 0.813,0.814 H 455.8 c 3.051,0 4.473,-0.692 4.473,-4.311 m -27.49,-6.873 h -11.468 v -6.792 c 0,-1.179 0.243,-1.829 1.871,-1.829 h 9.597 c 1.627,0 1.871,0.65 1.871,1.829 v 4.962 c 0,1.179 -0.244,1.83 -1.871,1.83 m 3.701,9.476 c 0,-0.569 -0.244,-0.813 -0.813,-0.813 H 425.26 c -3.335,0 -3.944,-0.041 -3.944,-1.83 v -4.311 h 11.591 c 3.049,0 4.473,-0.691 4.473,-4.312 v -5.083 c 0,-3.619 -1.424,-4.311 -4.473,-4.311 h -9.883 c -3.05,0 -4.474,0.691 -4.474,4.311 v 13.746 c 0,3.618 1.424,4.311 4.474,4.311 h 12.647 c 0.569,0 0.813,-0.244 0.813,-0.814 z m -22.285,0 c 0,-0.569 -0.244,-0.813 -0.813,-0.813 h -3.375 c -1.627,0 -1.871,-0.65 -1.871,-1.83 v -27.367 c 0,-0.569 -0.244,-0.813 -0.813,-0.813 h -1.138 c -0.57,0 -0.814,0.244 -0.814,0.813 v 27.408 c 0,3.618 1.424,4.311 4.474,4.311 h 3.538 c 0.569,0 0.813,-0.244 0.813,-0.814 v -0.895 z m -19.845,-0.814 h -9.599 c -1.626,0 -1.87,-0.65 -1.87,-1.83 V 368.99 h 11.469 c 1.626,0 1.87,0.65 1.87,1.829 v 13.624 c 0.001,1.18 -0.244,1.83 -1.87,1.83 m 4.595,-1.789 v -13.746 c 0,-3.619 -1.423,-4.311 -4.474,-4.311 h -11.59 v -9.352 c 0,-0.569 -0.243,-0.813 -0.812,-0.813 h -1.14 c -0.569,0 -0.812,0.244 -0.812,0.813 v 27.408 c 0,3.618 1.423,4.311 4.474,4.311 h 9.881 c 3.05,0.001 4.473,-0.691 4.473,-4.31 m -29.848,1.789 h -9.597 c -1.627,0 -1.871,-0.65 -1.871,-1.83 v -5.245 c 0,-1.181 0.244,-1.831 1.871,-1.831 h 11.467 v 7.076 c 0,1.18 -0.244,1.83 -1.87,1.83 m 4.594,-1.789 v -13.746 c 0,-3.619 -1.423,-4.311 -4.473,-4.311 h -13.094 c -0.57,0 -0.814,0.244 -0.814,0.813 v 0.935 c 0,0.57 0.244,0.814 0.814,0.814 H 369.1 c 1.626,0 1.87,0.65 1.87,1.829 v 3.986 h -11.63 c -3.05,0 -4.473,0.69 -4.473,4.31 v 5.369 c 0,3.618 1.423,4.311 4.473,4.311 h 9.883 c 3.049,0.001 4.472,-0.691 4.472,-4.31 m -23.26,-17.283 c 0.121,-0.529 -0.081,-0.814 -0.61,-0.814 h -1.221 c -0.569,0 -0.853,0.204 -0.976,0.772 l -4.473,18.261 -4.229,-18.261 c -0.122,-0.568 -0.407,-0.772 -0.977,-0.772 h -1.869 c -0.569,0 -0.855,0.204 -0.977,0.772 l -4.271,18.261 -4.432,-18.261 c -0.122,-0.568 -0.406,-0.772 -0.976,-0.772 h -1.262 c -0.528,0 -0.731,0.285 -0.609,0.814 l 5.571,20.779 c 0.163,0.57 0.447,0.773 1.017,0.773 h 1.505 c 0.569,0 0.854,-0.203 0.977,-0.773 l 4.392,-17.892 4.474,17.892 c 0.122,0.57 0.406,0.773 0.976,0.773 h 1.505 c 0.568,0 0.854,-0.203 1.017,-0.773 z m -35.991,10.41 h -11.467 v -6.792 c 0,-1.179 0.243,-1.829 1.87,-1.829 h 9.597 c 1.627,0 1.871,0.65 1.871,1.829 v 4.962 c 0,1.179 -0.244,1.83 -1.871,1.83 m 3.701,9.476 c 0,-0.569 -0.244,-0.813 -0.812,-0.813 h -10.41 c -3.335,0 -3.944,-0.041 -3.944,-1.83 v -4.311 h 11.589 c 3.05,0 4.474,-0.691 4.474,-4.312 v -5.083 c 0,-3.619 -1.424,-4.311 -4.474,-4.311 h -9.882 c -3.05,0 -4.474,0.691 -4.474,4.311 v 13.746 c 0,3.618 1.424,4.311 4.474,4.311 h 12.647 c 0.568,0 0.812,-0.244 0.812,-0.814 z m -24.358,-16.349 c 0,-3.619 -1.423,-4.311 -4.474,-4.311 h -9.882 c -3.05,0 -4.473,0.691 -4.473,4.311 v 17.242 c 0,0.57 0.244,0.814 0.813,0.814 h 1.139 c 0.569,0 0.813,-0.244 0.813,-0.814 v -17.161 c 0,-1.179 0.244,-1.829 1.87,-1.829 h 9.598 c 1.627,0 1.871,0.65 1.871,1.829 v 17.161 c 0,0.57 0.244,0.814 0.813,0.814 h 1.098 c 0.569,0 0.813,-0.244 0.813,-0.814 v -17.242 z m -29.28,6.873 h -11.468 v -6.792 c 0,-1.179 0.245,-1.829 1.87,-1.829 h 9.598 c 1.627,0 1.871,0.65 1.871,1.829 v 4.962 c 0,1.179 -0.244,1.83 -1.871,1.83 m 3.7,9.476 c 0,-0.569 -0.244,-0.813 -0.813,-0.813 h -10.411 c -3.334,0 -3.944,-0.041 -3.944,-1.83 v -4.311 h 11.589 c 3.05,0 4.474,-0.691 4.474,-4.312 v -5.083 c 0,-3.619 -1.423,-4.311 -4.474,-4.311 h -9.881 c -3.05,0 -4.474,0.691 -4.474,4.311 v 13.746 c 0,3.618 1.424,4.311 4.474,4.311 h 12.646 c 0.569,0 0.813,-0.244 0.813,-0.814 v -0.894 z m -33.142,-16.268 c 0,-1.179 0.244,-1.829 1.87,-1.829 h 8.174 c 0.569,0 0.813,-0.244 0.813,-0.814 v -0.935 c 0,-0.569 -0.244,-0.813 -0.813,-0.813 h -8.337 c -3.049,0 -4.472,0.691 -4.472,4.311 v 17.242 c 0,0.57 0.244,0.814 0.813,0.814 h 1.138 c 0.57,0 0.814,-0.244 0.814,-0.814 z m -27.044,0 c 0,-1.179 0.244,-1.829 1.872,-1.829 h 8.174 c 0.569,0 0.813,-0.244 0.813,-0.814 v -0.935 c 0,-0.569 -0.245,-0.813 -0.813,-0.813 h -8.337 c -3.05,0 -4.474,0.691 -4.474,4.311 v 17.242 c 0,0.57 0.245,0.814 0.814,0.814 h 1.139 c 0.569,0 0.813,-0.244 0.813,-0.814 v -17.162 z m -13.785,15.454 h -9.597 c -1.628,0 -1.872,-0.65 -1.872,-1.83 v -13.624 c 0,-1.179 0.244,-1.829 1.872,-1.829 h 9.597 c 1.626,0 1.871,0.65 1.871,1.829 v 13.624 c -0.001,1.18 -0.245,1.83 -1.871,1.83 m 4.595,-1.789 v -13.746 c 0,-3.619 -1.424,-4.311 -4.473,-4.311 h -9.882 c -3.051,0 -4.474,0.691 -4.474,4.311 v 13.746 c 0,3.618 1.423,4.311 4.474,4.311 h 9.882 c 3.049,0 4.473,-0.692 4.473,-4.311 m -30.907,-15.535 h 6.913 c 0.57,0 0.814,-0.244 0.814,-0.812 v -0.896 c 0,-0.569 -0.245,-0.813 -0.814,-0.813 h -6.913 v -5.774 c 0,-1.179 0.244,-1.83 1.871,-1.83 h 5.042 c 0.57,0 0.814,-0.244 0.814,-0.813 v -0.934 c 0,-0.569 -0.245,-0.813 -0.814,-0.813 h -5.165 c -3.05,0 -4.473,0.691 -4.473,4.31 v 5.855 h -2.887 c -0.569,0 -0.813,0.244 -0.813,0.813 v 0.896 c 0,0.568 0.244,0.812 0.813,0.812 h 2.887 v 19.031 c 0,0.57 0.244,0.814 0.813,0.814 h 1.098 c 0.569,0 0.813,-0.244 0.813,-0.814 v -19.032 z"
   id="path14" />
</g>
</svg>
