<?xml version="1.0" encoding="UTF-8" standalone="no"?>
<!-- Created with Inkscape (http://www.inkscape.org/) -->

<svg
   id="svg2"
   version="1.1"
   inkscape:version="1.3.2 (091e20e, 2023-11-25)"
   xml:space="preserve"
   width="231.48065mm"
   height="14.962188mm"
   viewBox="0 0 874.8875 56.550001"
   sodipodi:docname="Schutzwerk_Logo_RZ.svg"
   xmlns:inkscape="http://www.inkscape.org/namespaces/inkscape"
   xmlns:sodipodi="http://sodipodi.sourceforge.net/DTD/sodipodi-0.dtd"
   xmlns:xlink="http://www.w3.org/1999/xlink"
   xmlns="http://www.w3.org/2000/svg"
   xmlns:svg="http://www.w3.org/2000/svg"
   xmlns:rdf="http://www.w3.org/1999/02/22-rdf-syntax-ns#"
   xmlns:cc="http://creativecommons.org/ns#"
   xmlns:dc="http://purl.org/dc/elements/1.1/"><metadata
     id="metadata8"><rdf:RDF><cc:Work
         rdf:about=""><dc:format>image/svg+xml</dc:format><dc:type
           rdf:resource="http://purl.org/dc/dcmitype/StillImage" /></cc:Work></rdf:RDF></metadata><defs
     id="defs6"><color-profile
       name="Adobe-RGB-1998"
       xlink:href="file:///System/Library/ColorSync/Profiles/AdobeRGB1998.icc"
       id="color-profile2" /></defs><sodipodi:namedview
     pagecolor="#ffffff"
     bordercolor="#666666"
     borderopacity="1"
     objecttolerance="10"
     gridtolerance="10"
     guidetolerance="10"
     inkscape:pageopacity="0"
     inkscape:pageshadow="2"
     inkscape:window-width="1312"
     inkscape:window-height="449"
     id="namedview4"
     showgrid="false"
     inkscape:zoom="0.42502145"
     inkscape:cx="398.80341"
     inkscape:cy="54.114916"
     inkscape:window-x="0"
     inkscape:window-y="38"
     inkscape:window-maximized="0"
     inkscape:current-layer="g10"
     inkscape:showpageshadow="2"
     inkscape:pagecheckerboard="0"
     inkscape:deskcolor="#d1d1d1"
     inkscape:document-units="mm" /><g
     id="g10"
     inkscape:groupmode="layer"
     inkscape:label="logo schutzwerk"
     transform="matrix(1.25,0,0,-1.25,0,56.55)"><g
       id="g12"
       transform="scale(0.1)"><path
         d="M 2784.93,446.887 V 324.664 c 0,0.008 0.01,0.016 0.01,0.024 v -0.024 c 15.7,54.359 88.38,62.332 137.6,62.488 0.5,0 1.04,0.016 1.54,0.016 h 85.19 V 99.9609 c -0.88,-45.2343 -7.56,-74.6015 -49.61,-90.04293 -2.88,-1.01563 -5.89,-1.99609 -9.1,-2.92578 h 252.66 c -3.22,0.92969 -6.22,1.91015 -9.1,2.92578 -42.05,15.44143 -48.73,44.80863 -49.61,90.04293 V 387.168 h 85.19 c 0.5,0 1.04,-0.016 1.53,-0.016 49.23,-0.156 121.91,-8.129 137.61,-62.488 v 0.024 c 0,-0.008 0.01,-0.016 0.01,-0.024 v 122.223 h -583.92"
         style="fill:#231f20;fill-opacity:1;fill-rule:nonzero;stroke:none"
         id="path14"
         inkscape:connector-curvature="0" /><path
         d="M 237.008,0 C 172.871,0 80.5078,8.53516 12.4219,20.7617 L 0.0507813,22.9805 0,136.504 v 0 C 10.8398,83.5352 145.699,57.2969 238.047,57.2969 c 84.887,0 129.312,24.8047 129.312,49.3051 0,34.238 -76.695,53.722 -150.836,72.539 C 115.035,204.863 0,234.078 0,315.289 c 0,87.145 94.0586,137.094 257.992,137.094 53.278,0 94.758,-5.445 131.356,-10.32 26.55,-3.473 51.629,-6.778 76.761,-7.297 l 15.184,-0.297 0.055,-111.563 v 0 c -14.461,44.586 -122.969,72.125 -220.2,72.125 -65.339,0 -114.609,-19.679 -114.609,-45.754 0,-30.574 73.387,-48.382 144.356,-65.648 C 399.336,257.309 522.281,227.441 522.281,135.91 522.281,52.0898 412.969,0 237.008,0 v 0"
         style="fill:#231f20;fill-opacity:1;fill-rule:nonzero;stroke:none"
         id="path16"
         inkscape:connector-curvature="0" /><path
         d="M 3445.41,6.99219 3839.8,387.168 h -183.82 c -73.99,0 -144.85,-18.027 -159.05,-62.504 v 122.223 h 555.78 L 3659.24,66.7305 h 169.41 c 102.37,0 175.84,1.2187 204.24,65.1955 V 6.99219 h -587.48"
         style="fill:#231f20;fill-opacity:1;fill-rule:nonzero;stroke:none"
         id="path18"
         inkscape:connector-curvature="0" /><path
         d="m 810.219,226.641 c -0.223,-6.899 0.683,-19.536 0.84,-22.965 3.152,-69.016 40.043,-146.1799 189.311,-146.1799 84.22,0 216.42,19.0234 238.1,84.6919 V 26.9844 l -12.9,-0.4883 C 1209.76,25.8359 1187.46,21.918 1161.62,17.4648 1116.88,9.69141 1061.21,0 1001.27,0 783.43,0 648.102,86.6797 648.102,226.184 c 0,139.519 135.328,226.199 353.168,226.199 59.94,0 115.61,-7.422 160.35,-15.195 25.84,-4.454 48.14,-8.368 63.95,-9.02 l 12.9,-0.492 V 312.5 c -21.68,65.645 -153.88,82.387 -238.1,82.387 -149.448,0 -186.245,-77.356 -189.315,-146.43 -0.153,-3.34 -0.672,-16.57 -0.836,-21.816"
         style="fill:#231f20;fill-opacity:1;fill-rule:nonzero;stroke:none"
         id="path20"
         inkscape:connector-curvature="0" /><path
         d="m 2698.38,446.887 h -199.46 c 46.04,-13.328 56.12,-46.285 58.18,-83.028 V 166.828 c 0,-46.015 -16.92,-98.8007 -148.86,-98.8007 -102.34,0 -154.22,29.1719 -154.22,86.6607 v 209.171 c 1.08,41.477 8.98,68.692 58.53,83.028 h -251 C 2116.46,431 2120.9,413.082 2120.9,363.859 V 143.711 C 2120.9,0 2316.38,0 2380.63,0 c 214.76,0 259.84,93.2734 259.84,171.465 v 192.394 c 2.65,34.336 13.73,70.243 57.91,83.028"
         style="fill:#231f20;fill-opacity:1;fill-rule:nonzero;stroke:none"
         id="path22"
         inkscape:connector-curvature="0" /><path
         d="m 1916.29,102.68 h -0.08 v 248.179 c 0.74,43.457 7.67,81.305 58.63,96.028 h -245.61 v 0.023 h -0.5 c 0.13,0 0.24,-0.023 0.38,-0.023 h -6.69 c 54.9,-15.86 58.71,-46.805 58.71,-96.028 h 0.14 v -82.41 h -233.25 v 82.41 h 0.09 c 0,49.223 3.81,80.168 58.71,96.028 h -245.78 v 0.023 h -0.51 c 0.14,0 0.25,-0.023 0.39,-0.023 h -6.63 c 54.91,-15.86 58.71,-46.805 58.71,-96.028 h 0.05 V 102.68 H 1413 c 0,-49.2269 -3.8,-79.8284 -58.71,-95.71516 h 252.3 C 1556.48,21.4648 1548.96,60.4414 1548.02,102.68 v 96.675 h 233.25 V 102.68 h -0.08 c 0,-49.2269 -3.81,-79.8284 -58.71,-95.71516 H 1975 C 1920.1,22.8516 1916.29,53.4531 1916.29,102.68"
         style="fill:#231f20;fill-opacity:1;fill-rule:nonzero;stroke:none"
         id="path24"
         inkscape:connector-curvature="0" /><path
         d="m 4866.19,446.887 c 38.91,-15.93 30.1,-37.617 22.17,-50.657 l -154.26,-245.246 -77.77,117.524 70.8,111.074 c 13.44,17.41 38.92,58 79.88,67.305 h -122.77 l -71.49,-112.539 -74.47,112.539 H 4335.7 c 55.71,-11.457 69.48,-29.383 103.71,-73.672 l 101.35,-152.203 -44.47,-70.028 -196.06,295.903 h -202.52 c 55.73,-11.457 69.5,-29.383 103.74,-73.672 L 4445.35,6.93359 h 44.26 L 4584.35,155.566 4683.32,6.93359 h 44.26 L 4965.12,379.582 c 13.43,17.41 38.9,58 79.86,67.305 h -178.79"
         style="fill:#000000;fill-opacity:1;fill-rule:nonzero;stroke:none"
         id="path26"
         inkscape:connector-curvature="0" /><path
         d="M 5404.18,66.8672 H 5290.8 V 199.289 h 113.38 v -0.039 c 8.77,0 16.87,-0.074 24.39,-0.34 33.89,-1.445 56.72,-7.332 69.44,-30.16 v 130.234 c -12.72,-22.828 -35.55,-28.714 -69.44,-30.16 -7.52,-0.265 -15.62,-0.34 -24.39,-0.34 v -0.035 H 5290.8 v 118.719 h 148.11 c 49.22,-0.156 121.89,-8.105 137.59,-62.465 v 0.024 c 0,-0.008 0.02,-0.016 0.02,-0.024 v 122.223 h -481.91 c 54.9,-15.86 58.77,-48.367 58.77,-97.59 V 104.492 c 0,-49.2225 -3.87,-81.6404 -58.77,-97.49981 h 519.61 V 126.094 C 5582.87,64.0234 5514.67,66.8672 5404.18,66.8672"
         style="fill:#231f20;fill-opacity:1;fill-rule:nonzero;stroke:none"
         id="path28"
         inkscape:connector-curvature="0" /><path
         d="m 6736.78,6.99219 h 262.28 c -20.97,1.02734 -72.26,39.00391 -93.73,57.08201 l -213.34,182.3668 156.92,117.118 c 40.56,26.785 94.43,72.316 139.35,83.328 -1.38,0 -227.52,0 -229.84,0 27.63,-1.574 35.13,-28.574 15.13,-45.461 L 6572.77,251.859 V 357.68 c 0.75,43.457 7.66,74.453 58.64,89.207 h -252.54 c 52.52,-15.196 58.28,-43.516 58.67,-89.207 V 96.1953 c -0.39,-45.6875 -6.15,-74.0078 -58.67,-89.20311 h 252.54 C 6580.43,21.7422 6573.52,52.7383 6572.77,96.1953 V 207.871 c 55.84,-45.43 163.03,-140.2733 181.12,-156.1522 18.08,-15.918 3.71,-43.77739 -17.11,-44.72661"
         style="fill:#231f20;fill-opacity:1;fill-rule:nonzero;stroke:none"
         id="path30"
         inkscape:connector-curvature="0" /><path
         d="M 6323.3,6.99219 C 6267.58,18.4492 6253.81,36.3711 6219.57,80.6641 l -72.05,98.8629 c -12.15,16.172 -18.61,24.051 -28.52,34.004 72.52,15.02 125.22,44.75 125.22,113.836 0,80.391 -74.81,119.442 -197.7,119.442 h -322.05 c 54.34,-15.723 58.83,-47.125 58.91,-95.496 V 102.922 c -0.08,-48.3712 -4.57,-80.2072 -58.91,-95.92981 h 252.54 C 5922.73,22.6992 5918.59,54.6289 5918.5,102.922 v 96.32 c 50.15,-0.398 68.34,-4.375 94.66,-39.66 L 6120.78,6.99219 Z M 5922.5,253.93 v 138.429 h 39.59 c 16.93,0 53.32,-2.328 53.32,-2.328 24.8,-2.605 44.59,-7.726 59.77,-15.183 22.69,-11.868 34.31,-25.41 34.31,-49.778 0,-22.711 -10.86,-43.218 -34.31,-54.277 -15.38,-6.75 -35.84,-11.52 -59.77,-14.152 -15.55,-1.813 -31.19,-2.711 -53.32,-2.711 h -39.59"
         style="fill:#000000;fill-opacity:1;fill-rule:nonzero;stroke:none"
         id="path32"
         inkscape:connector-curvature="0" /></g></g></svg>
