<?xml version="1.0" encoding="UTF-8" standalone="no"?>
<!-- Generator: Adobe Illustrator 26.0.3, SVG Export Plug-In . SVG Version: 6.00 Build 0)  -->

<svg
   version="1.1"
   x="0px"
   y="0px"
   viewBox="0 0 240.94501 87.874"
   xml:space="preserve"
   id="svg8"
   sodipodi:docname="SI_Logo_Claim_RGB_Blue.svg"
   width="208.31696mm"
   height="75.974365mm"
   inkscape:version="1.3.2 (091e20e, 2023-11-25)"
   xmlns:inkscape="http://www.inkscape.org/namespaces/inkscape"
   xmlns:sodipodi="http://sodipodi.sourceforge.net/DTD/sodipodi-0.dtd"
   xmlns:xlink="http://www.w3.org/1999/xlink"
   xmlns="http://www.w3.org/2000/svg"
   xmlns:svg="http://www.w3.org/2000/svg"><defs
   id="defs8"><color-profile
     name="Adobe-RGB-1998"
     xlink:href="file:///System/Library/ColorSync/Profiles/AdobeRGB1998.icc"
     id="color-profile1" /></defs><sodipodi:namedview
   id="namedview8"
   pagecolor="#ffffff"
   bordercolor="#999999"
   borderopacity="1"
   inkscape:showpageshadow="2"
   inkscape:pageopacity="0"
   inkscape:pagecheckerboard="0"
   inkscape:deskcolor="#d1d1d1"
   inkscape:zoom="0.33155217"
   inkscape:cx="266.92632"
   inkscape:cy="108.5802"
   inkscape:window-width="1312"
   inkscape:window-height="449"
   inkscape:window-x="0"
   inkscape:window-y="38"
   inkscape:window-maximized="0"
   inkscape:current-layer="g9"
   inkscape:document-units="mm" />
<style
   type="text/css"
   id="style1">
	.st0{fill:none;}
	.st1{fill:#003399;}
</style>

<g
   id="g9"
   inkscape:label="logo signal iduna"><g
     id="Ebene_2">
	<rect
   class="st0"
   width="240.94501"
   height="87.874001"
   id="rect1"
   x="0"
   y="0" />
</g><g
     id="Ebene_1">
	<g
   id="Logo">
		<g
   id="g6">
			<path
   class="st1"
   d="m 26.327,40.002 -3.981,-0.978 c -0.576,-0.13 -1.651,-0.37 -1.651,-1.596 0,-1.364 1.418,-1.847 2.743,-1.847 2.94,0 3.161,1.713 3.244,2.358 l 0.015,0.094 h 3.484 l -0.002,-0.108 c -0.036,-2.482 -1.757,-5.378 -6.491,-5.378 -5.926,0 -6.383,3.926 -6.383,5.13 0,3.667 2.676,4.293 5.267,4.897 l 1.754,0.403 c 1.781,0.426 2.875,0.745 2.875,1.918 0,1.329 -1.112,2.006 -3.31,2.006 -2.984,0 -3.343,-1.768 -3.36,-2.528 l -0.003,-0.104 h -3.493 v 0.106 c 0,1.677 0.691,5.564 7.107,5.564 1.095,0 6.553,-0.257 6.553,-5.452 0,-3.006 -2.099,-3.931 -4.368,-4.485 z"
   id="path1" />
			<rect
   x="33.118999"
   y="32.956001"
   class="st1"
   width="3.6340001"
   height="16.570999"
   id="rect2" />
			<path
   class="st1"
   d="m 47.406,43.47 h 3.785 c -0.758,3.186 -3.327,3.356 -3.84,3.356 -2.119,0 -4.644,-0.956 -4.644,-5.495 0,-4.24 2.366,-5.748 4.577,-5.748 2.405,0 3.488,2.043 3.488,2.571 v 0.107 h 3.642 l -0.009,-0.114 c -0.153,-1.935 -1.879,-5.597 -7.338,-5.597 -5.939,0 -8.048,4.706 -8.048,8.735 0,5.983 3.828,8.655 7.622,8.655 2.826,0 4.139,-1.348 5.022,-2.357 l 0.322,1.945 h 2.481 v -9.034 h -7.059 z"
   id="path2" />
			<polygon
   class="st1"
   points="57.626,49.527 61.015,49.527 61.015,38.07 67.637,49.527 71.155,49.527 71.155,32.956 67.764,32.956 67.764,44.145 61.323,32.956 57.626,32.956 "
   id="polygon2" />
			<path
   class="st1"
   d="m 78.825,32.956 -5.909,16.571 h 3.823 l 1.14,-3.37 h 5.883 l 1.05,3.37 h 3.942 L 82.912,32.956 Z m 3.915,10.165 h -3.875 l 1.957,-6.137 z"
   id="path3" />
			<polygon
   class="st1"
   points="102.455,49.527 102.455,46.358 94.319,46.358 94.319,32.956 90.679,32.956 90.679,49.527 "
   id="polygon3" />
			<rect
   x="110.368"
   y="32.956001"
   class="st1"
   width="3.635"
   height="16.570999"
   id="rect3" />
			<path
   class="st1"
   d="m 124.623,32.956 h -7.336 v 16.571 h 7.198 c 5.091,0 6.902,-4.479 6.902,-8.672 0,-1.852 -0.49,-7.899 -6.764,-7.899 z m -0.592,3.033 c 1.574,0 3.667,0.531 3.667,5.114 0,1.266 -0.258,5.39 -3.631,5.39 h -3.226 V 35.989 Z"
   id="path4" />
			<path
   class="st1"
   d="m 143.35,43.814 c 0,2.053 -1.011,3.011 -3.182,3.011 -1.761,0 -2.812,-1.188 -2.812,-3.173 V 32.956 h -3.696 v 10.929 c 0.051,1.808 0.467,3.087 1.298,4.028 1.587,1.766 3.983,2.026 5.275,2.026 4.462,0 6.829,-2.162 6.829,-6.254 V 32.956 h -3.713 v 10.858 z"
   id="path5" />
			<polygon
   class="st1"
   points="150.061,49.527 153.46,49.527 153.46,38.085 160.082,49.527 163.597,49.527 163.597,32.956 160.195,32.956 160.195,44.128 153.762,32.956 150.061,32.956 "
   id="polygon5" />
			<path
   class="st1"
   d="m 175.348,32.956 h -4.079 l -5.919,16.571 h 3.832 l 1.142,-3.37 h 5.87 l 1.058,3.37 h 3.947 z m -0.167,10.165 h -3.89 l 1.965,-6.137 z"
   id="path6" />
		</g>
		<path
   class="st1"
   d="m 200.398,32.962 h 7.692 c -4.633,12.659 -6.391,17.459 -7.064,19.291 -6.345,-2.691 -10.722,-9.437 -10.722,-17.108 0,-9.961 7.368,-18.349 16.829,-18.349 9.465,0 16.832,8.388 16.832,18.349 0,9.959 -7.366,18.347 -16.832,18.347 -1.289,0 -2.543,-0.157 -3.732,-0.451 l 7.348,-20.08 h 5.237 L 209.96,49.45 c 5.801,-1.432 10.308,-7.176 10.308,-14.305 0,-8.271 -6.05,-14.651 -13.135,-14.651 -7.084,0 -13.132,6.381 -13.132,14.651 0,3.226 0.913,6.162 2.469,8.549 z"
   id="path7" />
	</g>
	<g
   id="Claim">
		<g
   id="g8">
			<path
   class="st1"
   d="m 178.267,70.319 c -0.879,0 -1.528,-0.557 -1.528,-1.284 0,-0.742 0.649,-1.298 1.528,-1.298 0.851,0 1.543,0.527 1.543,1.284 0,0.77 -0.691,1.298 -1.543,1.298 m 3.447,-0.157 c -0.288,0 -0.447,-0.157 -0.447,-0.442 v -3.38 c 0,-1.583 -1.125,-2.567 -2.884,-2.567 -1.571,0 -2.855,0.856 -2.855,1.826 0,0.542 0.389,0.942 0.937,0.942 0.563,0 0.966,-0.414 0.966,-0.927 0,-0.386 -0.23,-0.699 -0.562,-0.799 0.447,-0.242 0.952,-0.271 1.197,-0.271 1.11,0 1.744,0.699 1.744,1.825 v 1.498 c -0.418,-0.599 -1.168,-0.927 -2.061,-0.927 -1.5,0 -2.61,0.913 -2.61,2.097 0,1.241 1.11,2.168 2.61,2.168 0.951,0 1.744,-0.414 2.148,-1.084 l 0.375,0.942 h 2.148 v -0.899 h -0.706 z m -12.215,0.1 c -1.182,0 -2.077,-0.998 -2.077,-2.766 0,-1.726 0.895,-2.767 2.077,-2.767 1.326,0 2.134,1.028 2.134,2.767 0,1.782 -0.808,2.766 -2.134,2.766 m 4.051,-0.1 c -0.288,0 -0.447,-0.157 -0.447,-0.442 v -8.357 h -2.624 v 0.884 h 0.706 c 0.288,0 0.447,0.157 0.447,0.442 v 2.567 c -0.563,-1.084 -1.544,-1.484 -2.553,-1.484 -1.875,0 -3.258,1.512 -3.258,3.723 0,2.254 1.384,3.708 3.258,3.708 1.009,0 1.99,-0.371 2.553,-1.441 v 1.298 h 2.624 v -0.899 h -0.706 z m -12.343,-6.39 c -1.053,0 -1.932,0.67 -2.408,2.126 v -2.011 h -2.624 v 0.899 h 0.706 c 0.288,0 0.447,0.156 0.447,0.442 v 4.492 c 0,0.285 -0.159,0.442 -0.447,0.442 h -0.706 v 0.899 h 4.427 v -0.899 h -1.356 c -0.288,0 -0.447,-0.157 -0.447,-0.442 v -1.483 c 0.116,-2.439 0.937,-3.366 1.831,-3.551 -0.043,0.113 -0.072,0.228 -0.072,0.357 0,0.527 0.389,0.841 0.909,0.841 0.562,0 0.981,-0.442 0.981,-1.013 0,-0.642 -0.505,-1.099 -1.241,-1.099 m -9.132,0.771 c 1.14,0 1.658,0.856 1.73,2.496 h -3.734 c 0.101,-1.541 0.85,-2.496 2.004,-2.496 m 3.274,3.209 c 0.014,-0.129 0.014,-0.214 0.014,-0.314 0,-2.153 -1.298,-3.665 -3.317,-3.665 -2.12,0 -3.605,1.626 -3.605,3.766 0,2.11 1.442,3.665 3.62,3.665 1.759,0 2.898,-0.998 3.245,-2.582 l -0.793,-0.143 c -0.245,1.113 -1.038,1.826 -2.221,1.826 -1.398,0 -2.133,-1.027 -2.22,-2.553 0,0 5.277,0 5.277,0 z m -12.302,2.51 c -1.182,0 -2.076,-0.998 -2.076,-2.766 0,-1.726 0.894,-2.767 2.076,-2.767 1.326,0 2.135,1.028 2.135,2.767 -10e-4,1.782 -0.809,2.766 -2.135,2.766 m 4.052,-0.1 c -0.288,0 -0.447,-0.157 -0.447,-0.442 v -8.357 h -2.624 v 0.884 h 0.706 c 0.288,0 0.448,0.157 0.448,0.442 v 2.567 c -0.562,-1.084 -1.543,-1.484 -2.552,-1.484 -1.874,0 -3.259,1.512 -3.259,3.723 0,2.254 1.385,3.708 3.259,3.708 1.009,0 1.99,-0.371 2.552,-1.441 v 1.298 h 2.624 v -0.899 h -0.707 z m -9.05,0 c -0.288,0 -0.447,-0.157 -0.447,-0.442 v -3.693 c 0,-1.298 -0.995,-2.254 -2.307,-2.254 -1.067,0 -1.932,0.628 -2.437,1.569 v -1.455 h -2.624 v 0.899 h 0.706 c 0.288,0 0.447,0.156 0.447,0.442 v 4.492 c 0,0.285 -0.159,0.442 -0.447,0.442 h -0.706 v 0.899 h 3.634 v -0.899 h -0.563 c -0.288,0 -0.447,-0.157 -0.447,-0.442 v -2.838 c 0.13,-1.526 1.067,-2.04 1.846,-2.04 0.836,0 1.412,0.599 1.412,1.441 v 3.437 c 0,0.285 -0.158,0.442 -0.447,0.442 h -0.563 v 0.899 h 3.648 v -0.899 z m -12.923,0.157 c -0.879,0 -1.528,-0.557 -1.528,-1.284 0,-0.742 0.649,-1.298 1.528,-1.298 0.851,0 1.543,0.527 1.543,1.284 0,0.77 -0.692,1.298 -1.543,1.298 m 3.447,-0.157 c -0.288,0 -0.447,-0.157 -0.447,-0.442 v -3.38 c 0,-1.583 -1.125,-2.567 -2.884,-2.567 -1.571,0 -2.855,0.856 -2.855,1.826 0,0.542 0.389,0.942 0.937,0.942 0.563,0 0.966,-0.414 0.966,-0.927 0,-0.386 -0.23,-0.699 -0.562,-0.799 0.447,-0.242 0.952,-0.271 1.197,-0.271 1.11,0 1.744,0.699 1.744,1.825 v 1.498 c -0.418,-0.599 -1.168,-0.927 -2.061,-0.927 -1.5,0 -2.61,0.913 -2.61,2.097 0,1.241 1.11,2.168 2.61,2.168 0.951,0 1.744,-0.414 2.148,-1.084 l 0.375,0.942 h 2.148 v -0.899 h -0.706 z m -8.142,0 c -0.288,0 -0.446,-0.157 -0.446,-0.442 v -3.693 c 0,-1.298 -0.996,-2.254 -2.307,-2.254 -1.068,0 -1.933,0.628 -2.437,1.569 v -1.455 h -2.624 v 0.899 h 0.707 c 0.288,0 0.446,0.156 0.446,0.442 v 4.492 c 0,0.285 -0.158,0.442 -0.446,0.442 h -0.707 v 0.899 h 3.634 v -0.899 h -0.562 c -0.288,0 -0.447,-0.157 -0.447,-0.442 v -2.838 c 0.13,-1.526 1.067,-2.04 1.846,-2.04 0.836,0 1.413,0.599 1.413,1.441 v 3.437 c 0,0.285 -0.159,0.442 -0.447,0.442 h -0.562 v 0.899 h 3.649 v -0.899 z m -9.585,0 c -0.288,0 -0.446,-0.157 -0.446,-0.442 v -5.833 h -2.755 v 0.899 h 0.837 c 0.288,0 0.447,0.156 0.447,0.442 v 4.492 c 0,0.285 -0.159,0.442 -0.447,0.442 h -0.837 v 0.899 h 4.038 v -0.899 z m -1.139,-7.159 c 0.577,0 0.995,-0.428 0.995,-1.013 0,-0.584 -0.418,-1.012 -0.995,-1.012 -0.592,0 -1.038,0.442 -1.038,1.027 0,0.57 0.447,0.998 1.038,0.998 m -6.111,1.54 c 1.14,0 1.659,0.856 1.73,2.496 h -3.734 c 0.101,-1.541 0.851,-2.496 2.004,-2.496 m 3.273,3.209 c 0.015,-0.129 0.015,-0.214 0.015,-0.314 0,-2.153 -1.298,-3.665 -3.317,-3.665 -2.119,0 -3.605,1.626 -3.605,3.766 0,2.11 1.442,3.665 3.62,3.665 1.759,0 2.898,-0.998 3.244,-2.582 l -0.793,-0.143 c -0.246,1.113 -1.039,1.826 -2.221,1.826 -1.398,0 -2.134,-1.027 -2.22,-2.553 0,0 5.277,0 5.277,0 z m -8.725,-3.98 c -1.053,0 -1.932,0.67 -2.408,2.126 v -2.011 h -2.624 v 0.899 h 0.706 c 0.288,0 0.447,0.156 0.447,0.442 v 4.492 c 0,0.285 -0.159,0.442 -0.447,0.442 h -0.706 v 0.899 h 4.427 v -0.899 h -1.356 c -0.288,0 -0.447,-0.157 -0.447,-0.442 v -1.483 c 0.116,-2.439 0.937,-3.366 1.831,-3.551 -0.043,0.113 -0.072,0.228 -0.072,0.357 0,0.527 0.389,0.841 0.909,0.841 0.562,0 0.981,-0.442 0.981,-1.013 0,-0.642 -0.505,-1.099 -1.241,-1.099 M 89.138,62.96 c 0.548,0 0.952,-0.413 0.952,-0.97 0,-0.556 -0.404,-0.97 -0.952,-0.97 -0.562,0 -0.995,0.428 -0.995,0.985 0,0.541 0.433,0.955 0.995,0.955 m -2.696,0 c 0.548,0 0.952,-0.413 0.952,-0.97 0,-0.556 -0.404,-0.97 -0.952,-0.97 -0.562,0 -0.995,0.428 -0.995,0.985 0,0.541 0.433,0.955 0.995,0.955 m 4.947,7.202 c -0.288,0 -0.447,-0.157 -0.447,-0.442 V 63.887 H 88.39 v 0.899 h 0.635 c 0.274,0 0.447,0.143 0.447,0.428 v 2.539 c 0,1.811 -1.023,2.382 -1.86,2.382 -0.837,0 -1.413,-0.585 -1.413,-1.441 v -4.806 h -5.453 v -1.113 c 0,-1.141 0.374,-1.697 1.34,-1.697 0.188,0 0.375,0.028 0.534,0.1 -0.433,0.086 -0.649,0.456 -0.649,0.856 0,0.514 0.389,0.884 0.923,0.884 0.592,0 0.966,-0.428 0.966,-0.998 0,-1.027 -1.023,-1.511 -2.062,-1.511 -1.456,0 -2.537,0.827 -2.537,2.367 v 0.685 c 0,0.285 -0.159,0.428 -0.447,0.428 h -0.951 v 0.899 h 1.398 v 4.934 c 0,0.285 -0.159,0.442 -0.447,0.442 h -0.807 v 0.899 h 4.412 v -0.899 h -1.226 c -0.288,0 -0.446,-0.157 -0.446,-0.442 v -4.934 h 3.549 c 0.23,0 0.389,0.1 0.418,0.328 v 3.836 c 0,1.312 0.996,2.254 2.307,2.254 1.067,0 1.947,-0.628 2.451,-1.583 v 1.441 h 2.624 v -0.899 h -0.707 z"
   id="path8" />
		</g>
	</g>
</g></g>
</svg>
