<?xml version="1.0" encoding="UTF-8" standalone="no"?>
<svg
   id="Layer_1"
   data-name="Layer 1"
   viewBox="0 0 576.00002 180"
   version="1.1"
   sodipodi:docname="TM_Horizontal Logo_RGB_Colour.svg"
   width="209.99982mm"
   height="65.624939mm"
   inkscape:version="1.3.2 (091e20e, 2023-11-25)"
   xmlns:inkscape="http://www.inkscape.org/namespaces/inkscape"
   xmlns:sodipodi="http://sodipodi.sourceforge.net/DTD/sodipodi-0.dtd"
   xmlns:xlink="http://www.w3.org/1999/xlink"
   xmlns="http://www.w3.org/2000/svg"
   xmlns:svg="http://www.w3.org/2000/svg">
  <sodipodi:namedview
     id="namedview14"
     pagecolor="#ffffff"
     bordercolor="#999999"
     borderopacity="1"
     inkscape:showpageshadow="2"
     inkscape:pageopacity="0"
     inkscape:pagecheckerboard="0"
     inkscape:deskcolor="#d1d1d1"
     inkscape:zoom="0.56634882"
     inkscape:cx="354.02211"
     inkscape:cy="54.736585"
     inkscape:window-width="1312"
     inkscape:window-height="449"
     inkscape:window-x="1"
     inkscape:window-y="38"
     inkscape:window-maximized="0"
     inkscape:current-layer="g14"
     inkscape:document-units="mm" />
  <defs
     id="defs1">
    <color-profile
       name="Adobe-RGB-1998"
       xlink:href="file:///System/Library/ColorSync/Profiles/AdobeRGB1998.icc"
       id="color-profile1" />
    <style
       id="style1">
      .cls-1 {
        fill: #fff;
      }

      .cls-2 {
        fill: #d71920;
      }

      .cls-3 {
        fill: #231f20;
      }
    </style>
  </defs>
  <g
     id="g14"
     inkscape:label="logo trend">
    <g
       id="g4">
      <path
         class="cls-1"
         d="m 154.17,90 c 0,26.93 -21.83,48.76 -48.76,48.76 -26.93,0 -48.76,-21.83 -48.76,-48.76 0,-26.93 21.83,-48.76 48.76,-48.76 26.93,0 48.76,21.83 48.76,48.76 z"
         id="path1" />
      <g
         id="g3">
        <path
           class="cls-2"
           d="M 64.8,117.01 C 59.64,109.28 56.64,99.99 56.64,90 c 0,-26.93 21.83,-48.77 48.76,-48.77 14.18,0 26.95,6.06 35.86,15.73 -9.42,-6.44 -27.37,-3.36 -44.51,7.61 15.54,-9.48 32.03,-10.98 38.65,-2.51 7.61,9.73 -0.39,28.7 -17.88,42.37 -17.49,13.66 -35.23,16.24 -38.52,7.02 -1.21,-3.44 -2.16,-7.83 4.91,-21.69 l 8.29,0.04 1.59,-3.35 h -8.43 l 5.15,-11.09 c 0,0 -4.12,0 -4.15,0.03 -10.3,9.36 -20.53,11.42 -20.53,11.42 l -1.34,3.15 h 5.7 c -6.38,10.02 -8.34,19.9 -5.39,27.05 z"
           id="path2" />
        <path
           class="cls-2"
           d="m 154.17,90 c 0,26.93 -21.83,48.76 -48.76,48.76 -13.88,0 -26.4,-5.8 -35.28,-15.1 10.7,7.37 32.49,2.35 51.73,-12.68 19.05,-14.88 29.18,-34.56 24.94,-46.77 4.67,7.48 7.37,16.32 7.37,25.79 z"
           id="path3" />
      </g>
    </g>
    <g
       id="g13">
      <g
         id="g10">
        <g
           id="g8">
          <path
             class="cls-3"
             d="m 491.33,113.51 -2.82,-0.3 v 0.12 l 2.27,0.87 5.3,3.03 v 0.89 l -5.31,3.18 -2.26,0.9 v 0.1 l 2.81,-0.4 h 7.38 v 2.63 h -14.19 v -2.54 l 6.49,-3.79 1.62,-0.67 v -0.08 l -1.67,-0.61 -6.44,-3.59 v -2.52 h 14.19 v 2.78 h -7.36 z"
             id="path4" />
          <path
             class="cls-3"
             d="m 484.5,106.3 v -2.78 h 14.19 v 2.78 z"
             id="path5" />
          <path
             class="cls-3"
             d="m 498.12,90.3 c 0.3,0.43 0.53,0.98 0.66,1.65 0.13,0.66 0.2,1.35 0.2,2.06 0,0.85 -0.13,1.66 -0.39,2.42 -0.27,0.76 -0.69,1.43 -1.28,2.02 -0.59,0.58 -1.34,1.04 -2.29,1.39 -0.94,0.34 -2.08,0.52 -3.42,0.52 -1.34,0 -2.55,-0.19 -3.5,-0.57 -0.93,-0.39 -1.69,-0.89 -2.27,-1.5 -0.57,-0.61 -0.99,-1.3 -1.24,-2.06 -0.25,-0.76 -0.38,-1.52 -0.38,-2.27 0,-0.81 0.06,-1.49 0.17,-2.06 0.11,-0.56 0.24,-1.03 0.39,-1.39 l 2.35,0.55 c -0.15,0.31 -0.26,0.68 -0.33,1.11 -0.07,0.42 -0.1,0.94 -0.1,1.55 0,1.12 0.4,2.03 1.2,2.7 0.8,0.69 2.04,1.03 3.73,1.03 0.74,0 1.39,-0.08 2,-0.24 0.61,-0.16 1.12,-0.41 1.54,-0.74 0.43,-0.33 0.76,-0.74 1.01,-1.24 0.24,-0.49 0.35,-1.07 0.35,-1.72 0,-0.61 -0.06,-1.13 -0.18,-1.54 -0.12,-0.42 -0.27,-0.79 -0.46,-1.1 l 2.26,-0.56 z"
             id="path6" />
          <path
             class="cls-3"
             d="m 484.63,87.03 c -0.06,-0.31 -0.11,-0.65 -0.15,-1.01 -0.05,-0.35 -0.08,-0.71 -0.11,-1.07 -0.03,-0.36 -0.05,-0.71 -0.07,-1.05 0,-0.34 -0.02,-0.65 -0.02,-0.93 0,-0.66 0.06,-1.32 0.19,-1.96 0.12,-0.64 0.33,-1.22 0.62,-1.72 0.3,-0.51 0.71,-0.91 1.23,-1.22 0.51,-0.3 1.17,-0.46 1.96,-0.46 1.16,0 2.11,0.27 2.84,0.81 0.73,0.54 1.24,1.27 1.52,2.17 l 0.63,-0.99 5.41,-3.25 v 3.21 l -5.56,3.22 -0.26,1.46 h 5.82 v 2.78 h -14.05 z m 2.14,-4.26 c 0,0.28 0,0.56 0.02,0.84 0,0.28 0.04,0.49 0.07,0.64 h 4.12 v -1.18 c 0,-0.77 -0.18,-1.38 -0.52,-1.84 -0.35,-0.46 -0.94,-0.69 -1.75,-0.69 -0.61,0 -1.08,0.19 -1.42,0.57 -0.34,0.38 -0.51,0.93 -0.51,1.66 z"
             id="path7" />
          <path
             class="cls-3"
             d="m 491.59,74.59 c -2.36,0 -4.19,-0.52 -5.46,-1.56 -1.27,-1.04 -1.92,-2.53 -1.92,-4.46 0,-1.01 0.17,-1.89 0.53,-2.66 0.35,-0.76 0.85,-1.38 1.51,-1.88 0.64,-0.51 1.43,-0.88 2.33,-1.12 0.91,-0.24 1.91,-0.36 3.02,-0.36 2.37,0 4.19,0.52 5.47,1.57 1.28,1.04 1.91,2.53 1.91,4.45 0,1.03 -0.17,1.92 -0.52,2.68 -0.35,0.76 -0.86,1.39 -1.5,1.88 -0.65,0.49 -1.43,0.87 -2.33,1.11 -0.9,0.24 -1.91,0.37 -3.03,0.37 z m 0,-2.92 c 0.72,0 1.38,-0.06 1.98,-0.18 0.6,-0.12 1.12,-0.31 1.55,-0.56 0.43,-0.26 0.77,-0.57 1.02,-0.97 0.24,-0.39 0.36,-0.86 0.36,-1.4 0,-0.99 -0.39,-1.75 -1.15,-2.29 -0.78,-0.54 -2.02,-0.81 -3.76,-0.81 -0.68,0 -1.33,0.06 -1.92,0.17 -0.6,0.12 -1.11,0.3 -1.57,0.54 -0.44,0.24 -0.79,0.56 -1.05,0.95 -0.24,0.39 -0.37,0.87 -0.37,1.44 0,0.99 0.4,1.75 1.19,2.3 0.79,0.54 2.03,0.81 3.71,0.81 z"
             id="path8" />
        </g>
        <g
           id="g9">
          <polygon
             class="cls-3"
             points="508.92,69.37 508.03,69.37 508.03,63.36 505.78,63.36 505.78,62.56 511.19,62.56 511.19,63.36 508.92,63.36 "
             id="polygon8" />
          <path
             class="cls-3"
             d="m 519.36,69.37 h -0.86 v -5.7 l -1.98,5.7 h -0.81 l -1.94,-5.8 -0.02,5.8 h -0.88 v -6.81 h 1.35 l 1.62,4.82 c 0,0 0.07,0.2 0.18,0.57 0.07,0.21 0.13,0.36 0.13,0.45 l 0.38,-1.1 1.63,-4.74 h 1.2 z"
             id="path9" />
        </g>
      </g>
      <g
         id="g12">
        <polygon
           class="cls-3"
           points="338.67,124.52 293.29,124.52 293.29,62.55 337.73,62.55 337.73,72.85 306.58,72.85 306.58,87.42 335.24,87.42 335.24,97.71 306.58,97.71 306.58,114.22 338.67,114.22 "
           id="polygon10" />
        <polygon
           class="cls-3"
           points="403.69,62.55 403.69,124.52 387.35,124.52 364.6,83.31 364.43,83.49 364.43,124.52 351.99,124.52 351.99,62.55 368.46,62.55 391.08,103.04 391.26,102.87 391.26,62.55 "
           id="polygon11" />
        <path
           class="cls-3"
           d="m 438.97,62.55 h -21.09 v 61.97 h 21.09 c 19.33,0.17 31.34,-9.45 31.34,-30.99 0,-21.54 -12.01,-31.17 -31.34,-30.98 z m -0.92,51.67 h -6.88 V 73.33 h 6.88 c 15.78,-0.18 18.11,10.33 18.11,20.2 0,9.87 -2.33,20.88 -18.11,20.69 z"
           id="path11" />
        <polygon
           class="cls-3"
           points="218.54,72.85 200.09,72.85 200.09,124.52 186.8,124.52 186.8,72.85 168.35,72.85 168.35,62.55 218.54,62.55 "
           id="polygon12" />
        <path
           class="cls-3"
           d="m 269.6,98.29 c 6.9,-2.53 11.83,-9.21 11.83,-17.07 0,-0.93 -0.07,-1.85 -0.2,-2.74 -0.86,-5.74 -3.93,-10.13 -9.09,-13.14 -0.6,-0.38 -4.5,-2.79 -16.02,-2.79 v 0 c -0.23,0 -0.45,-0.01 -0.67,0 h -26.3 v 61.97 h 13.29 v -24.6 h 14.06 c 0,0 8.68,19.09 9.81,24.6 h 16.35 L 269.62,98.29 Z M 242.43,73.06 h 15.7 c 5.27,0.08 8.57,1.98 9.16,6.39 v 0.08 c 0.02,0.15 0.03,0.31 0.04,0.46 0.02,0.15 0.02,0.31 0.03,0.46 0,0.08 0,0.19 0,0.27 0,0.11 0,0.22 0,0.33 -0.05,5.38 -3.47,8.24 -9.24,8.31 h -15.7 V 73.07 Z"
           id="path12" />
      </g>
    </g>
  </g>
</svg>
